<svg width="147" height="54" viewBox="0 0 147 54" fill="none" xmlns="http://www.w3.org/2000/svg">
<path d="M26.8191 49.866H28.4466C28.8328 49.866 29.1379 49.9488 29.3638 50.1143C29.5879 50.2798 29.7017 50.5073 29.7017 50.797C29.7017 51.009 29.6413 51.1883 29.5224 51.3349C29.4069 51.4831 29.2483 51.5814 29.0465 51.6314C29.2948 51.6728 29.4896 51.7797 29.6327 51.9486C29.7741 52.1141 29.8465 52.3245 29.8465 52.5762C29.8465 52.8986 29.7241 53.152 29.481 53.3348C29.2414 53.5141 28.9086 53.6037 28.4811 53.6037H26.8191V49.866ZM27.4535 50.4246V51.4107H28.4121C28.6138 51.4107 28.7707 51.3676 28.881 51.2797C28.9948 51.1935 29.0534 51.0711 29.0534 50.9142C29.0534 50.7539 28.9948 50.6315 28.881 50.5487C28.7707 50.466 28.6138 50.4246 28.4121 50.4246H27.4535ZM27.4535 51.9693V53.0451H28.4121C28.6604 53.0451 28.8535 53.0003 28.9914 52.9072C29.1293 52.8106 29.1983 52.6762 29.1983 52.5003C29.1983 52.3348 29.1293 52.2072 28.9914 52.1141C28.8535 52.0176 28.6604 51.9693 28.4121 51.9693H27.4535Z" fill="#060606"/>
<path d="M34.1662 53.6037H33.5317V49.866H34.1662V53.6037Z" fill="#060606"/>
<path d="M41.265 49.866V52.0521C41.265 52.54 41.1202 52.9262 40.8305 53.2106C40.5443 53.4916 40.1495 53.6313 39.6444 53.6313C39.1375 53.6313 38.7376 53.4916 38.4445 53.2106C38.1548 52.9262 38.01 52.54 38.01 52.0521V49.866H38.6445V52.0521C38.6445 52.3658 38.7341 52.6141 38.9134 52.7969C39.0927 52.9762 39.3375 53.0658 39.6513 53.0658C39.9547 53.0658 40.1926 52.9762 40.3685 52.7969C40.5478 52.6176 40.6374 52.3693 40.6374 52.0521V49.866H41.265Z" fill="#060606"/>
<path d="M47.4802 53.6037L46.7975 52.4727C46.7595 52.4727 46.7026 52.4727 46.6251 52.4727H45.7424V53.6037H45.1079V49.866H46.6251C47.1026 49.866 47.4733 49.9763 47.7353 50.197C48.0008 50.4177 48.1353 50.7332 48.1353 51.1418C48.1353 51.4418 48.0681 51.6935 47.9353 51.9004C47.8009 52.1072 47.6112 52.259 47.3629 52.3555L48.1974 53.6037H47.4802ZM45.7424 51.9073H46.6251C47.2319 51.9073 47.5354 51.6573 47.5354 51.1556C47.5354 50.6728 47.2319 50.4315 46.6251 50.4315H45.7424V51.9073Z" fill="#060606"/>
<path d="M52.1732 50.3901C52.5542 50.0281 53.0249 49.8453 53.5869 49.8453C54.1472 49.8453 54.6162 50.0281 54.9937 50.3901C55.3747 50.7539 55.5661 51.2021 55.5661 51.7348C55.5661 52.2693 55.3747 52.7193 54.9937 53.0865C54.6162 53.4503 54.1472 53.6313 53.5869 53.6313C53.0249 53.6313 52.5542 53.4503 52.1732 53.0865C51.7905 52.7193 51.6008 52.2693 51.6008 51.7348C51.6008 51.2021 51.7905 50.7539 52.1732 50.3901ZM53.5938 50.4108C53.2214 50.4108 52.9008 50.5401 52.6353 50.797C52.3732 51.0504 52.2422 51.3625 52.2422 51.7348C52.2422 52.1038 52.3749 52.4176 52.6421 52.6796C52.9076 52.9382 53.2231 53.0658 53.5869 53.0658C53.9541 53.0658 54.2696 52.9382 54.5317 52.6796C54.7937 52.4176 54.9248 52.1038 54.9248 51.7348C54.9248 51.3625 54.7937 51.0504 54.5317 50.797C54.2696 50.5401 53.9559 50.4108 53.5938 50.4108Z" fill="#060606"/>
<path d="M66.0569 50.4315H64.8708V53.6037H64.2364V50.4315H63.0571V49.866H66.0569V50.4315Z" fill="#060606"/>
<path d="M71.8772 53.0313V53.6037H69.6222V51.6383L69.1808 51.7624L69.0774 51.3625L69.6222 51.197V49.866H70.2497V51.0108L71.1049 50.7625L71.2152 51.1694L70.2497 51.4521V53.0313H71.8772Z" fill="#060606"/>
<path d="M78.5958 49.866V52.0521C78.5958 52.54 78.451 52.9262 78.1613 53.2106C77.8752 53.4916 77.4803 53.6313 76.9752 53.6313C76.4683 53.6313 76.0684 53.4916 75.7753 53.2106C75.4856 52.9262 75.3408 52.54 75.3408 52.0521V49.866H75.9753V52.0521C75.9753 52.3658 76.0649 52.6141 76.2442 52.7969C76.4235 52.9762 76.6683 53.0658 76.9821 53.0658C77.2855 53.0658 77.5234 52.9762 77.6993 52.7969C77.8786 52.6176 77.9682 52.3693 77.9682 52.0521V49.866H78.5958Z" fill="#060606"/>
<path d="M86.3976 53.6037H85.8114V50.8108L84.6253 53.2106H84.2184L83.0323 50.8108V53.6037H82.4392V49.866H83.1909L84.4253 52.3486L85.6528 49.866H86.3976V53.6037Z" fill="#060606"/>
<path d="M92.7421 52.7624H90.8526L90.494 53.6037H89.8389L91.487 49.866H92.1353L93.7697 53.6037H93.1007L92.7421 52.7624ZM92.5008 52.1969L91.7905 50.5349L91.0871 52.1969H92.5008Z" fill="#060606"/>
<path d="M98.8668 49.8453C99.1289 49.8453 99.384 49.897 99.6323 49.997C99.884 50.0987 100.103 50.2418 100.287 50.4246L99.915 50.8866C99.7806 50.7401 99.6202 50.6246 99.4323 50.5418C99.2478 50.4556 99.0616 50.4108 98.8737 50.4108C98.5013 50.4108 98.1841 50.5384 97.9221 50.7901C97.6635 51.0435 97.5359 51.3538 97.5359 51.7211C97.5359 52.0934 97.6635 52.4089 97.9221 52.6658C98.1841 52.9193 98.5013 53.0451 98.8737 53.0451C99.2634 53.0451 99.6116 52.8968 99.915 52.5969L100.287 53.0175C100.098 53.2072 99.8754 53.3554 99.6185 53.4658C99.3599 53.5761 99.1013 53.6313 98.8392 53.6313C98.291 53.6313 97.829 53.4503 97.4531 53.0865C97.0807 52.7193 96.8945 52.2659 96.8945 51.728C96.8945 51.2004 97.0825 50.7539 97.46 50.3901C97.841 50.0281 98.31 49.8453 98.8668 49.8453Z" fill="#060606"/>
<path d="M106.71 50.3142L104.435 53.0382H106.738V53.6037H103.58V53.1486L105.862 50.4315H103.649V49.866H106.71V50.3142Z" fill="#060606"/>
<path d="M113.044 50.4315H111.002V51.4383H112.83V52.0038H111.002V53.0382H113.106V53.6037H110.368V49.866H113.044V50.4315Z" fill="#060606"/>
<path d="M119.282 48.935L118.627 49.4591H118.082L118.648 48.6661L119.282 48.935ZM120.061 53.6037H119.441L117.448 50.9211V53.6037H116.813V49.866H117.434L119.441 52.5486V49.866H120.061V53.6037Z" fill="#060606"/>
<path d="M61.1963 4.31015C61.8446 4.31015 62.3549 4.38256 62.7273 4.52393C63.1031 4.66185 63.4893 4.86184 63.8858 5.12389C64.2117 5.33078 64.4616 5.43422 64.6375 5.43422C64.7702 5.43422 64.8737 5.35836 64.9478 5.20665C65.0202 5.05149 65.0788 4.80322 65.1202 4.46187H65.6305C65.5564 5.31699 65.5202 6.81862 65.5202 8.96504H65.0099C64.922 7.77546 64.5789 6.77207 63.9824 5.95833C63.3893 5.14113 62.5273 4.73081 61.3963 4.73081C60.5998 4.73081 59.9516 4.97046 59.4516 5.44801C58.9499 5.92729 58.6999 6.54105 58.6999 7.28928C58.6999 7.84614 58.8275 8.3306 59.0861 8.74437C59.343 9.15469 59.6688 9.50639 60.0654 9.79947C60.4653 10.0943 61.0325 10.4718 61.7687 10.9304L62.41 11.3235C63.3341 11.8993 64.0651 12.4045 64.603 12.8407C65.1409 13.2734 65.5702 13.7699 65.8926 14.3302C66.2184 14.8871 66.3822 15.5405 66.3822 16.2887C66.3822 17.6266 65.9409 18.661 65.0582 19.392C64.1755 20.1195 63.0583 20.4816 61.7066 20.4816C60.9981 20.4816 60.4188 20.4075 59.9688 20.2609C59.5223 20.1144 59.093 19.9144 58.6792 19.6609C58.3568 19.4592 58.1069 19.3575 57.9276 19.3575C57.7983 19.3575 57.6965 19.4368 57.6241 19.592C57.55 19.7437 57.4896 19.9885 57.4448 20.323H56.9414C56.9966 19.5144 57.0242 17.7507 57.0242 15.0336H57.5345C57.6345 16.5198 58 17.7266 58.631 18.6541C59.2654 19.5782 60.2378 20.0402 61.548 20.0402C62.3428 20.0402 63.0186 19.7954 63.5755 19.3023C64.1358 18.8058 64.4168 18.0731 64.4168 17.1025C64.4168 16.2801 64.141 15.5836 63.5893 15.013C63.0376 14.4388 62.1652 13.7906 60.9756 13.0682C60.1067 12.5407 59.4033 12.0718 58.8654 11.6614C58.331 11.2477 57.8948 10.7511 57.5552 10.1719C57.219 9.58914 57.0517 8.90642 57.0517 8.12371C57.0517 6.89275 57.4465 5.94971 58.2379 5.2963C59.0327 4.63944 60.0188 4.31015 61.1963 4.31015Z" fill="#060606"/>
<path d="M79.0176 17.3507C79.0176 18.1886 79.0693 19.1282 79.1762 20.1713C78.1728 20.1264 76.4884 20.1023 74.1213 20.1023C71.2973 20.1023 69.1647 20.1264 67.7217 20.1713V19.7299C68.2544 19.7023 68.6406 19.6454 68.8802 19.5575C69.1233 19.4661 69.2888 19.2955 69.3768 19.0472C69.463 18.7955 69.5078 18.3903 69.5078 17.8335V6.8893C69.5078 6.33416 69.463 5.93074 69.3768 5.68248C69.2888 5.43077 69.1233 5.26009 68.8802 5.17217C68.6406 5.08079 68.2544 5.02045 67.7217 4.99287V4.55151C69.1647 4.59806 71.2973 4.62048 74.1213 4.62048C76.2815 4.62048 77.8193 4.59806 78.7348 4.55151C78.6279 5.52214 78.5762 6.39106 78.5762 7.15825C78.5762 7.72891 78.5986 8.18405 78.6452 8.52369H78.1348C78.0331 7.56857 77.9021 6.85827 77.7418 6.39278C77.5797 5.92902 77.3073 5.59111 76.9211 5.37905C76.5384 5.16872 75.9591 5.06183 75.1833 5.06183H73.3489C72.8196 5.06183 72.4335 5.1032 72.1904 5.18596C71.9456 5.26526 71.7801 5.43077 71.6939 5.68248C71.6059 5.93074 71.5628 6.33416 71.5628 6.8893V12.0959H73.0179C73.5317 12.0959 73.9299 11.9769 74.2109 11.7373C74.4902 11.4942 74.6764 11.2063 74.7695 10.8753C74.8661 10.5443 74.9437 10.1288 75.004 9.62707L75.073 9.18572H75.5764C75.535 9.80292 75.5143 10.4943 75.5143 11.2615V12.3166C75.5143 13.0665 75.5574 14.1096 75.6453 15.4474H75.135C75.1212 15.3474 75.0764 14.9923 75.004 14.3854C74.9299 13.7751 74.7282 13.3148 74.3971 13.0062C74.0661 12.6941 73.6058 12.5372 73.0179 12.5372H71.5628V17.8335C71.5628 18.3903 71.6059 18.7955 71.6939 19.0472C71.7801 19.2955 71.9456 19.461 72.1904 19.5437C72.4335 19.623 72.8196 19.6609 73.3489 19.6609H74.9626C75.8729 19.6609 76.566 19.542 77.0453 19.3023C77.5228 19.0593 77.8728 18.6679 78.0935 18.13C78.3141 17.5921 78.4745 16.8025 78.5762 15.7577H79.0865C79.04 16.1577 79.0176 16.6887 79.0176 17.3507Z" fill="#060606"/>
<path d="M86.5199 4.55151C89.1215 4.55151 91.0679 5.2032 92.3609 6.50312C93.6574 7.80477 94.3056 9.69948 94.3056 12.1855C94.3056 13.7906 93.9884 15.1957 93.354 16.3991C92.723 17.6042 91.8092 18.5352 90.6093 19.192C89.4094 19.8454 87.9784 20.1713 86.3199 20.1713L85.0372 20.1506C84.2131 20.1195 83.6115 20.1023 83.2304 20.1023C82.0253 20.1023 81.1133 20.1264 80.4927 20.1713V19.7299C81.0254 19.7023 81.4116 19.6454 81.6512 19.5575C81.8943 19.4661 82.0598 19.2955 82.1477 19.0472C82.2339 18.7955 82.2788 18.3903 82.2788 17.8335V6.8893C82.2788 6.33416 82.2339 5.93074 82.1477 5.68248C82.0598 5.43077 81.8943 5.26009 81.6512 5.17217C81.4116 5.08079 81.0254 5.02045 80.4927 4.99287V4.55151C81.0064 4.59806 81.7219 4.62048 82.6374 4.62048L84.5131 4.59979C85.5096 4.56875 86.1785 4.55151 86.5199 4.55151ZM85.9682 4.95149C85.5131 4.95149 85.17 5.00321 84.9407 5.1032C84.7097 5.20492 84.5511 5.38939 84.4648 5.6549C84.3769 5.92212 84.3338 6.32037 84.3338 6.84793V17.8748C84.3338 18.4041 84.3769 18.8024 84.4648 19.0679C84.5511 19.3351 84.7097 19.5196 84.9407 19.6196C85.17 19.7213 85.52 19.7713 85.9889 19.7713C87.5474 19.7713 88.7749 19.4885 89.6714 18.9231C90.5679 18.3576 91.1955 17.5335 91.5541 16.4473C91.9161 15.3578 92.0989 13.9682 92.0989 12.2752C92.0989 10.5839 91.8989 9.20468 91.4989 8.1375C91.1024 7.07205 90.4593 6.27382 89.568 5.74455C88.6801 5.21699 87.4802 4.95149 85.9682 4.95149Z" fill="#060606"/>
<path d="M38.6873 23.5434C39.3355 23.5434 39.8458 23.6158 40.2182 23.7572C40.5941 23.8951 40.9803 24.0951 41.3768 24.3572C41.7026 24.5641 41.9526 24.6675 42.1285 24.6675C42.2612 24.6675 42.3647 24.5916 42.4388 24.4399C42.5112 24.2848 42.5698 24.0365 42.6112 23.6951H43.1215C43.0474 24.5503 43.0112 26.0519 43.0112 28.1983H42.5009C42.4129 27.0087 42.0698 26.0053 41.4733 25.1916C40.8803 24.3744 40.0182 23.9641 38.8873 23.9641C38.0908 23.9641 37.4425 24.2037 36.9426 24.6813C36.4409 25.1606 36.1909 25.7743 36.1909 26.5226C36.1909 27.0794 36.3185 27.5639 36.5771 27.9776C36.834 28.388 37.1598 28.7397 37.5563 29.0328C37.9563 29.3276 38.5235 29.7051 39.2597 30.1637L39.901 30.5568C40.8251 31.1326 41.5561 31.6378 42.094 32.0739C42.6319 32.5067 43.0612 33.0032 43.3836 33.5635C43.7094 34.1204 43.8732 34.7738 43.8732 35.522C43.8732 36.8599 43.4318 37.8943 42.5491 38.6253C41.6664 39.3528 40.5492 39.7149 39.1976 39.7149C38.489 39.7149 37.9097 39.6407 37.4598 39.4942C37.0133 39.3476 36.584 39.1477 36.1702 38.8942C35.8478 38.6925 35.5978 38.5908 35.4185 38.5908C35.2892 38.5908 35.1875 38.6701 35.1151 38.8253C35.041 38.977 34.9806 39.2218 34.9358 39.5563H34.4324C34.4875 38.7477 34.5151 36.984 34.5151 34.2669H35.0254C35.1254 35.753 35.4909 36.9599 36.1219 37.8874C36.7564 38.8115 37.7287 39.2735 39.039 39.2735C39.8338 39.2735 40.5096 39.0287 41.0665 38.5356C41.6268 38.0391 41.9078 37.3064 41.9078 36.3358C41.9078 35.5134 41.6319 34.8169 41.0802 34.2462C40.5286 33.6721 39.6562 33.0239 38.4666 32.3015C37.5977 31.774 36.8943 31.305 36.3564 30.8947C35.8219 30.4809 35.3858 29.9844 35.0461 29.4051C34.7099 28.8224 34.5427 28.1397 34.5427 27.357C34.5427 26.126 34.9375 25.183 35.7288 24.5296C36.5236 23.8727 37.5098 23.5434 38.6873 23.5434Z" fill="#060606"/>
<path d="M56.5085 36.584C56.5085 37.4219 56.5602 38.3615 56.6671 39.4045C55.6637 39.3597 53.9794 39.3356 51.6123 39.3356C48.7883 39.3356 46.6557 39.3597 45.2126 39.4045V38.9632C45.7454 38.9356 46.1316 38.8787 46.3712 38.7908C46.6143 38.6994 46.7798 38.5287 46.8677 38.2805C46.9539 38.0288 46.9987 37.6236 46.9987 37.0667V26.1226C46.9987 25.5674 46.9539 25.164 46.8677 24.9158C46.7798 24.664 46.6143 24.4934 46.3712 24.4054C46.1316 24.3141 45.7454 24.2537 45.2126 24.2261V23.7848C46.6557 23.8313 48.7883 23.8538 51.6123 23.8538C53.7725 23.8538 55.3103 23.8313 56.2258 23.7848C56.1189 24.7554 56.0672 25.6243 56.0672 26.3915C56.0672 26.9622 56.0896 27.4173 56.1361 27.757H55.6258C55.5241 26.8018 55.3931 26.0915 55.2327 25.6261C55.0707 25.1623 54.7983 24.8244 54.4121 24.6123C54.0294 24.402 53.4501 24.2951 52.6743 24.2951H50.8399C50.3106 24.2951 49.9244 24.3365 49.6813 24.4192C49.4365 24.4985 49.271 24.664 49.1848 24.9158C49.0969 25.164 49.0538 25.5674 49.0538 26.1226V31.3292H50.5089C51.0226 31.3292 51.4209 31.2102 51.7019 30.9706C51.9812 30.7275 52.1674 30.4396 52.2605 30.1085C52.357 29.7775 52.4346 29.362 52.495 28.8603L52.5639 28.419H53.0673C53.026 29.0362 53.0053 29.7275 53.0053 30.4947V31.5498C53.0053 32.2998 53.0484 33.3428 53.1363 34.6807H52.626C52.6122 34.5807 52.5674 34.2255 52.495 33.6187C52.4208 33.0084 52.2191 32.5481 51.8881 32.2395C51.5571 31.9274 51.0968 31.7705 50.5089 31.7705H49.0538V37.0667C49.0538 37.6236 49.0969 38.0288 49.1848 38.2805C49.271 38.5287 49.4365 38.6942 49.6813 38.777C49.9244 38.8563 50.3106 38.8942 50.8399 38.8942H52.4536C53.3639 38.8942 54.0569 38.7753 54.5362 38.5356C55.0138 38.2925 55.3638 37.9012 55.5844 37.3633C55.8051 36.8254 55.9654 36.0358 56.0672 34.991H56.5775C56.5309 35.391 56.5085 35.922 56.5085 36.584Z" fill="#060606"/>
<path d="M71.8382 24.2261C71.3227 24.2537 70.9417 24.333 70.6935 24.4606C70.4452 24.5847 70.2745 24.7916 70.1832 25.0813C70.0952 25.3675 70.0521 25.7881 70.0521 26.3433V39.5149H69.5487L60.2803 25.1985V36.8461C60.2803 37.4219 60.3286 37.8495 60.4251 38.1288C60.5217 38.4046 60.7079 38.608 60.9837 38.7356C61.263 38.8597 61.6975 38.9356 62.2871 38.9632V39.4045C61.7578 39.3597 61.0078 39.3356 60.0389 39.3356C59.1562 39.3356 58.4701 39.3597 57.9839 39.4045V38.9632C58.4976 38.9356 58.8804 38.8597 59.1286 38.7356C59.3804 38.608 59.551 38.4011 59.639 38.115C59.7252 37.8253 59.77 37.4029 59.77 36.8461V26.1226C59.77 25.5674 59.7252 25.164 59.639 24.9158C59.551 24.664 59.3855 24.4934 59.1424 24.4054C58.9028 24.3141 58.5166 24.2537 57.9839 24.2261V23.7848C58.4701 23.8313 59.1562 23.8538 60.0389 23.8538C60.701 23.8538 61.2733 23.8313 61.7561 23.7848L69.5487 35.7841V26.3433C69.5487 25.7692 69.5004 25.3433 69.4039 25.0675C69.3073 24.7882 69.1177 24.5847 68.8384 24.4606C68.5574 24.333 68.1247 24.2537 67.5419 24.2261V23.7848C68.0695 23.8313 68.8194 23.8538 69.7901 23.8538C70.6728 23.8538 71.3555 23.8313 71.8382 23.7848V24.2261Z" fill="#060606"/>
<path d="M77.6184 23.5434C78.2667 23.5434 78.777 23.6158 79.1494 23.7572C79.5252 23.8951 79.9114 24.0951 80.3079 24.3572C80.6338 24.5641 80.8838 24.6675 81.0596 24.6675C81.1924 24.6675 81.2958 24.5916 81.3699 24.4399C81.4423 24.2848 81.501 24.0365 81.5423 23.6951H82.0527C81.9785 24.5503 81.9423 26.0519 81.9423 28.1983H81.432C81.3441 27.0087 81.001 26.0053 80.4045 25.1916C79.8114 24.3744 78.9494 23.9641 77.8184 23.9641C77.0219 23.9641 76.3737 24.2037 75.8737 24.6813C75.372 25.1606 75.122 25.7743 75.122 26.5226C75.122 27.0794 75.2496 27.5639 75.5082 27.9776C75.7651 28.388 76.0909 28.7397 76.4875 29.0328C76.8875 29.3276 77.4547 29.7051 78.1908 30.1637L78.8322 30.5568C79.7562 31.1326 80.4872 31.6378 81.0251 32.0739C81.563 32.5067 81.9923 33.0032 82.3147 33.5635C82.6406 34.1204 82.8043 34.7738 82.8043 35.522C82.8043 36.8599 82.363 37.8943 81.4803 38.6253C80.5976 39.3528 79.4804 39.7149 78.1288 39.7149C77.4202 39.7149 76.8409 39.6407 76.3909 39.4942C75.9444 39.3476 75.5151 39.1477 75.1014 38.8942C74.779 38.6925 74.529 38.5908 74.3497 38.5908C74.2204 38.5908 74.1187 38.6701 74.0462 38.8253C73.9721 38.977 73.9118 39.2218 73.8669 39.5563H73.3635C73.4187 38.7477 73.4463 36.984 73.4463 34.2669H73.9566C74.0566 35.753 74.4221 36.9599 75.0531 37.8874C75.6875 38.8115 76.6599 39.2735 77.9701 39.2735C78.7649 39.2735 79.4407 39.0287 79.9976 38.5356C80.5579 38.0391 80.8389 37.3064 80.8389 36.3358C80.8389 35.5134 80.5631 34.8169 80.0114 34.2462C79.4597 33.6721 78.5873 33.0239 77.3978 32.3015C76.5289 31.774 75.8254 31.305 75.2875 30.8947C74.7531 30.4809 74.3169 29.9844 73.9773 29.4051C73.6411 28.8224 73.4739 28.1397 73.4739 27.357C73.4739 26.126 73.8687 25.183 74.66 24.5296C75.4548 23.8727 76.4409 23.5434 77.6184 23.5434Z" fill="#060606"/>
<path d="M97.6671 24.2261C97.1516 24.2537 96.7706 24.333 96.5223 24.4606C96.2741 24.5847 96.1034 24.7916 96.012 25.0813C95.9241 25.3675 95.881 25.7881 95.881 26.3433V32.9842C95.881 34.0428 95.8086 34.9496 95.6672 35.7082C95.5293 36.4668 95.2983 37.1185 94.9776 37.6598C94.6086 38.2943 94.069 38.796 93.357 39.1632C92.6432 39.5304 91.8398 39.7149 90.9433 39.7149C89.3245 39.7149 88.0883 39.3183 87.2332 38.5218C86.585 37.9201 86.1505 37.2374 85.9299 36.4737C85.7092 35.7065 85.5988 34.5669 85.5988 33.0532V26.1226C85.5988 25.5674 85.554 25.164 85.4678 24.9158C85.3799 24.664 85.2144 24.4934 84.9713 24.4054C84.7317 24.3141 84.3455 24.2537 83.8127 24.2261V23.7848C84.4334 23.8313 85.3747 23.8538 86.6402 23.8538C87.8297 23.8538 88.7642 23.8313 89.44 23.7848V24.2261C88.9107 24.2537 88.5245 24.3141 88.2814 24.4054C88.0366 24.4934 87.8711 24.664 87.7849 24.9158C87.697 25.164 87.6539 25.5674 87.6539 26.1226V33.4256C87.6539 34.6031 87.7332 35.5824 87.8953 36.3633C88.0556 37.1409 88.3883 37.7667 88.8952 38.2391C89.4055 38.708 90.152 38.9425 91.1364 38.9425C92.6984 38.9425 93.7949 38.4443 94.4259 37.446C95.0603 36.4444 95.3776 35.0376 95.3776 33.2256V26.3433C95.3776 25.5485 95.2327 25.0037 94.9431 24.7089C94.6569 24.4158 94.1328 24.2537 93.3708 24.2261V23.7848C93.8983 23.8313 94.6483 23.8538 95.6189 23.8538C96.5016 23.8538 97.1844 23.8313 97.6671 23.7848V24.2261Z" fill="#060606"/>
<path d="M115.889 24.2261C115.36 24.2537 114.974 24.3141 114.731 24.4054C114.486 24.4934 114.321 24.664 114.234 24.9158C114.146 25.164 114.103 25.5674 114.103 26.1226V37.0667C114.103 37.6236 114.146 38.0288 114.234 38.2805C114.321 38.5287 114.486 38.6994 114.731 38.7908C114.974 38.8787 115.36 38.9356 115.889 38.9632V39.4045C115.214 39.3597 114.279 39.3356 113.09 39.3356C111.824 39.3356 110.883 39.3597 110.262 39.4045V38.9632C110.79 38.9356 111.176 38.8787 111.421 38.7908C111.664 38.6994 111.829 38.5287 111.917 38.2805C112.003 38.0288 112.048 37.6236 112.048 37.0667V25.2399L106.731 39.5149H106.38L100.821 25.1985V36.8461C100.821 37.4219 100.87 37.8495 100.966 38.1288C101.063 38.4046 101.249 38.608 101.525 38.7356C101.804 38.8597 102.238 38.9356 102.828 38.9632V39.4045C102.299 39.3597 101.549 39.3356 100.58 39.3356C99.6972 39.3356 99.0111 39.3597 98.5249 39.4045V38.9632C99.0387 38.9356 99.4214 38.8597 99.6697 38.7356C99.9214 38.608 100.092 38.4011 100.18 38.115C100.266 37.8253 100.311 37.4029 100.311 36.8461V26.1226C100.311 25.5674 100.266 25.164 100.18 24.9158C100.092 24.664 99.9265 24.4934 99.6835 24.4054C99.4438 24.3141 99.0576 24.2537 98.5249 24.2261V23.7848C99.0111 23.8313 99.6972 23.8538 100.58 23.8538C101.342 23.8538 101.968 23.8313 102.456 23.7848L107.311 36.5564L112.048 23.8538H113.09C114.279 23.8538 115.214 23.8313 115.889 23.7848V24.2261Z" fill="#060606"/>
<path d="M21.6884 52.1417H1V1H145.819V52.1417H126.289" stroke="black"/>
</svg>
