<svg width="557" height="551" viewBox="0 0 557 551" fill="none" xmlns="http://www.w3.org/2000/svg">
<mask id="mask0_113_1281" style="mask-type:luminance" maskUnits="userSpaceOnUse" x="0" y="0" width="557" height="551">
<path d="M0.5 0H556.187V551H0.5V0Z" fill="white"/>
</mask>
<g mask="url(#mask0_113_1281)">
<path d="M556.187 275.5C556.187 280.006 556.086 284.511 555.855 289.017C555.637 293.522 555.305 298.014 554.856 302.505C554.407 306.982 553.858 311.458 553.192 315.921C552.512 320.384 551.745 324.817 550.848 329.251C549.965 333.671 548.966 338.061 547.867 342.438C546.767 346.814 545.551 351.162 544.234 355.467C542.903 359.786 541.485 364.062 539.951 368.309C538.417 372.556 536.782 376.761 535.045 380.922C533.309 385.097 531.456 389.216 529.517 393.291C527.578 397.366 525.523 401.398 523.382 405.372C521.24 409.347 518.997 413.264 516.667 417.139C514.323 420.998 511.892 424.815 509.374 428.56C506.841 432.305 504.222 435.993 501.516 439.609C498.81 443.239 496.017 446.784 493.123 450.27C490.243 453.757 487.276 457.172 484.223 460.515C481.17 463.859 478.029 467.116 474.817 470.301C471.604 473.487 468.305 476.601 464.933 479.628C461.576 482.656 458.132 485.597 454.615 488.467C451.099 491.323 447.51 494.092 443.863 496.775C440.202 499.473 436.498 502.056 432.706 504.567C428.929 507.078 425.094 509.488 421.187 511.799C417.294 514.123 413.329 516.347 409.321 518.471C405.312 520.595 401.261 522.618 397.136 524.541C393.027 526.478 388.873 528.3 384.677 530.022C380.48 531.758 376.24 533.38 371.957 534.886C367.673 536.407 363.361 537.828 359.005 539.133C354.649 540.439 350.265 541.644 345.865 542.735C341.452 543.84 337.009 544.83 332.552 545.705C328.095 546.581 323.609 547.355 319.123 548.015C314.623 548.675 310.108 549.235 305.578 549.666C301.063 550.11 296.519 550.44 291.975 550.67C287.446 550.885 282.902 551 278.344 551C273.8 551 269.256 550.885 264.712 550.67C260.168 550.44 255.639 550.11 251.109 549.666C246.594 549.235 242.079 548.675 237.579 548.015C233.078 547.355 228.607 546.581 224.15 545.705C219.678 544.83 215.25 543.84 210.836 542.735C206.423 541.644 202.052 540.439 197.697 539.133C193.341 537.828 189.029 536.407 184.745 534.886C180.462 533.38 176.222 531.758 172.025 530.022C167.828 528.3 163.661 526.478 159.551 524.541C155.441 522.618 151.389 520.595 147.381 518.471C143.358 516.347 139.407 514.123 135.515 511.799C131.607 509.488 127.773 507.078 123.981 504.567C120.204 502.056 116.485 499.473 112.839 496.775C109.192 494.092 105.603 491.323 102.087 488.467C98.5701 485.597 95.126 482.656 91.7543 479.628C88.397 476.601 85.0976 473.487 81.885 470.301C78.6725 467.116 75.5323 463.859 72.4789 460.515C69.4255 457.172 66.4589 453.757 63.5792 450.27C60.685 446.784 57.8921 443.239 55.186 439.609C52.4799 435.993 49.8607 432.305 47.3282 428.56C44.8103 424.815 42.3791 420.998 40.0348 417.139C37.6905 413.264 35.462 409.347 33.3203 405.372C31.1641 401.398 29.1237 397.366 27.1846 393.291C25.231 389.216 23.3932 385.097 21.6566 380.922C19.9201 376.761 18.2849 372.556 16.751 368.309C15.217 364.062 13.7844 359.786 12.4675 355.467C11.1507 351.162 9.93511 346.814 8.83531 342.438C7.72104 338.061 6.73701 333.671 5.83981 329.251C4.95708 324.817 4.17564 320.384 3.50997 315.921C2.84431 311.458 2.29441 306.982 1.84581 302.505C1.3972 298.014 1.06437 293.522 0.847305 289.017C0.615768 284.511 0.5 280.006 0.5 275.5C0.5 270.994 0.615768 266.489 0.847305 261.983C1.06437 257.478 1.3972 252.986 1.84581 248.495C2.29441 244.004 2.84431 239.527 3.50997 235.079C4.17564 230.616 4.95708 226.168 5.83981 221.749C6.73701 217.329 7.72104 212.924 8.83531 208.562C9.93511 204.186 11.1507 199.838 12.4675 195.519C13.7844 191.214 15.217 186.924 16.751 182.691C18.2849 178.444 19.9201 174.239 21.6566 170.064C23.3932 165.903 25.231 161.785 27.1846 157.709C29.1237 153.634 31.1641 149.602 33.3203 145.628C35.462 141.653 37.6905 137.736 40.0348 133.861C42.3791 130.002 44.8103 126.185 47.3282 122.44C49.8607 118.695 52.4799 115.007 55.186 111.377C57.8921 107.761 60.685 104.202 63.5792 100.73C66.4589 97.2429 69.4255 93.8278 72.4789 90.4845C75.5323 87.1412 78.6725 83.884 81.885 80.6842C85.0976 77.4987 88.397 74.3994 91.7543 71.3717C95.126 68.3441 98.5701 65.3882 102.087 62.5328C105.603 59.6773 109.192 56.8936 112.839 54.2104C116.485 51.5271 120.204 48.9299 123.981 46.4332C127.773 43.9222 131.607 41.5115 135.515 39.187C139.407 36.8768 143.358 34.6527 147.381 32.5291C151.389 30.4054 155.441 28.3822 159.551 26.4451C163.661 24.5224 167.828 22.7001 172.025 20.9638C176.222 19.242 180.462 17.6205 184.745 16.0995C189.029 14.5785 193.341 13.1723 197.697 11.8666C202.052 10.5465 206.423 9.35552 210.836 8.25065C215.25 7.16013 219.678 6.17005 224.15 5.29477C228.607 4.40513 233.078 3.64463 237.579 2.98458C242.079 2.32453 246.594 1.76492 251.109 1.3201C255.639 0.889634 260.168 0.545258 264.712 0.330026C269.256 0.114791 273.8 0 278.344 0C282.902 0 287.446 0.114791 291.975 0.330026C296.519 0.545258 301.063 0.889634 305.578 1.3201C310.108 1.76492 314.623 2.32453 319.123 2.98458C323.609 3.64463 328.095 4.40513 332.552 5.29477C337.009 6.17005 341.452 7.16013 345.865 8.25065C350.265 9.35552 354.649 10.5465 359.005 11.8666C363.361 13.1723 367.673 14.5785 371.957 16.0995C376.24 17.6205 380.48 19.242 384.677 20.9638C388.873 22.7001 393.027 24.5224 397.136 26.4451C401.261 28.3822 405.312 30.4054 409.321 32.5291C413.329 34.6527 417.294 36.8768 421.187 39.187C425.094 41.5115 428.929 43.9222 432.706 46.4332C436.498 48.9299 440.202 51.5271 443.863 54.2104C447.51 56.8936 451.099 59.6773 454.615 62.5328C458.132 65.3882 461.576 68.3441 464.933 71.3717C468.305 74.3994 471.604 77.4987 474.817 80.6842C478.029 83.884 481.17 87.1412 484.223 90.4845C487.276 93.8278 490.243 97.2429 493.123 100.73C496.017 104.202 498.81 107.761 501.516 111.377C504.222 115.007 506.841 118.695 509.374 122.44C511.892 126.185 514.323 130.002 516.667 133.861C518.997 137.736 521.24 141.653 523.382 145.628C525.523 149.602 527.578 153.634 529.517 157.709C531.456 161.785 533.309 165.903 535.045 170.064C536.782 174.239 538.417 178.444 539.951 182.691C541.485 186.924 542.903 191.214 544.234 195.519C545.551 199.838 546.767 204.186 547.867 208.562C548.966 212.924 549.965 217.329 550.848 221.749C551.745 226.168 552.512 230.616 553.192 235.079C553.858 239.527 554.407 244.004 554.856 248.495C555.305 252.986 555.637 257.478 555.855 261.983C556.086 266.489 556.187 270.994 556.187 275.5Z" fill="#168D71"/>
</g>
<mask id="mask1_113_1281" style="mask-type:luminance" maskUnits="userSpaceOnUse" x="407" y="160" width="150" height="192">
<path d="M407.333 160.961H556.5V351.974H407.333V160.961Z" fill="white"/>
</mask>
<g mask="url(#mask1_113_1281)">
<path d="M556.5 275.624C556.5 301.108 553.027 325.773 546.472 349.205H410.806V161.865H531.769C547.644 196.561 556.5 235.059 556.5 275.624Z" fill="white"/>
</g>
<path d="M31.0635 243.947V430.354C31.0635 434.515 32.6553 438.662 35.8389 441.819C39.037 444.99 43.2047 446.568 47.3868 446.568H363.101C367.269 446.568 371.436 444.99 374.649 441.819C377.818 438.662 379.424 434.515 379.424 430.354V243.947H31.0635Z" fill="#D9D8D7"/>
<path d="M248.491 432.563C248.491 433.28 247.927 433.869 247.189 433.869H163.286C162.548 433.869 161.983 433.28 161.983 432.563V383.174C161.983 382.456 162.548 381.854 163.286 381.854H247.189C247.927 381.854 248.491 382.456 248.491 383.174V432.563Z" fill="white"/>
<path d="M69.3958 280.551C69.3958 281.11 68.9182 281.569 68.3539 281.569H52.7975C52.2621 281.569 51.8135 281.11 51.8135 280.551V265.154C51.8135 264.58 52.2621 264.15 52.7975 264.15H68.3539C68.9182 264.15 69.3958 264.58 69.3958 265.154V280.551Z" fill="white"/>
<path d="M101.58 301.787C101.58 302.346 101.146 302.806 100.596 302.806H85.0538C84.4894 302.806 84.0264 302.346 84.0264 301.787V286.362C84.0264 285.831 84.4894 285.372 85.0538 285.372H100.596C101.146 285.372 101.58 285.831 101.58 286.362V301.787Z" fill="white"/>
<path d="M106.675 323.038C106.675 323.569 106.226 324.028 105.677 324.028H90.1347C89.5558 324.028 89.0928 323.569 89.0928 323.038V307.598C89.0928 307.053 89.5558 306.594 90.1347 306.594H105.677C106.212 306.594 106.675 307.053 106.675 307.598V323.038Z" fill="white"/>
<path d="M96.2127 344.245C96.2127 344.805 95.7496 345.264 95.1708 345.264H79.6144C79.079 345.264 78.6304 344.805 78.6304 344.245V328.835C78.6304 328.275 79.079 327.83 79.6144 327.83H95.1708C95.7496 327.83 96.2127 328.275 96.2127 328.835V344.245Z" fill="white"/>
<path d="M69.3958 368.151C69.3958 368.725 68.9182 369.156 68.3539 369.156H52.7975C52.2621 369.156 51.8135 368.725 51.8135 368.151V350.043C51.8135 349.512 52.2621 349.038 52.7975 349.038H68.3539C68.9182 349.038 69.3958 349.512 69.3958 350.043V368.151Z" fill="white"/>
<path d="M90.727 368.151C90.727 368.725 90.2784 369.156 89.7285 369.156H74.1866C73.6078 369.156 73.1592 368.725 73.1592 368.151V350.043C73.1592 349.512 73.6078 349.038 74.1866 349.038H89.7285C90.2784 349.038 90.727 349.512 90.727 350.043V368.151Z" fill="white"/>
<path d="M112.101 368.151C112.101 368.725 111.609 369.156 111.073 369.156H95.5315C94.9816 369.156 94.5186 368.725 94.5186 368.151V350.043C94.5186 349.512 94.9672 349.038 95.5315 349.038H111.073C111.609 349.038 112.101 349.512 112.101 350.043V368.151Z" fill="white"/>
<path d="M294.479 368.151C294.479 368.725 293.972 369.156 293.437 369.156H277.895C277.345 369.156 276.868 368.725 276.868 368.151V350.043C276.868 349.512 277.345 349.038 277.895 349.038H293.437C293.972 349.038 294.479 349.512 294.479 350.043V368.151Z" fill="white"/>
<path d="M315.852 368.151C315.852 368.725 315.418 369.155 314.868 369.155H299.326C298.733 369.155 298.284 368.725 298.284 368.151V360.101C298.284 359.556 298.733 359.111 299.326 359.111H314.868C315.418 359.111 315.852 359.556 315.852 360.101V368.151Z" fill="white"/>
<path d="M358.657 368.151C358.657 368.725 358.209 369.155 357.659 369.155H342.117C341.581 369.155 341.089 368.725 341.089 368.151V360.101C341.089 359.556 341.581 359.111 342.117 359.111H357.659C358.209 359.111 358.657 359.556 358.657 360.101V368.151Z" fill="white"/>
<path d="M139.001 368.151C139.001 368.725 138.553 369.156 138.017 369.156H116.89C116.311 369.156 115.862 368.725 115.862 368.151V350.043C115.862 349.512 116.311 349.038 116.89 349.038H138.017C138.553 349.038 139.001 349.512 139.001 350.043V368.151Z" fill="white"/>
<path d="M273.047 368.151C273.047 368.725 272.598 369.156 272.019 369.156H250.877C250.356 369.156 249.878 368.725 249.878 368.151V350.043C249.878 349.512 250.356 349.038 250.877 349.038H272.019C272.598 349.038 273.047 349.512 273.047 350.043V368.151Z" fill="white"/>
<path d="M246.044 368.151C246.044 368.725 245.596 369.156 245.046 369.156H143.85C143.315 369.156 142.852 368.725 142.852 368.151V350.043C142.852 349.512 143.315 349.038 143.85 349.038H245.046C245.596 349.038 246.044 349.512 246.044 350.043V368.151Z" fill="white"/>
<path d="M117.57 344.245C117.57 344.805 117.136 345.264 116.6 345.264H101.044C100.509 345.264 100.017 344.805 100.017 344.245V328.835C100.017 328.275 100.509 327.83 101.044 327.83H116.6C117.136 327.83 117.57 328.275 117.57 328.835V344.245Z" fill="white"/>
<path d="M139.003 344.245C139.003 344.805 138.554 345.264 138.019 345.264H122.477C121.884 345.264 121.435 344.805 121.435 344.245V328.835C121.435 328.275 121.884 327.83 122.477 327.83H138.019C138.554 327.83 139.003 328.275 139.003 328.835V344.245Z" fill="white"/>
<path d="M160.434 344.245C160.434 344.805 159.985 345.264 159.392 345.264H143.85C143.315 345.264 142.852 344.805 142.852 344.245V328.835C142.852 328.275 143.315 327.83 143.85 327.83H159.392C159.985 327.83 160.434 328.275 160.434 328.835V344.245Z" fill="white"/>
<path d="M181.807 344.245C181.807 344.805 181.359 345.264 180.823 345.264H165.281C164.717 345.264 164.254 344.805 164.254 344.245V328.835C164.254 328.275 164.717 327.83 165.281 327.83H180.823C181.359 327.83 181.807 328.275 181.807 328.835V344.245Z" fill="white"/>
<path d="M203.24 344.245C203.24 344.805 202.791 345.264 202.198 345.264H186.685C186.12 345.264 185.657 344.805 185.657 344.245V328.835C185.657 328.275 186.12 327.83 186.685 327.83H202.198C202.791 327.83 203.24 328.275 203.24 328.835V344.245Z" fill="white"/>
<path d="M224.657 344.245C224.657 344.805 224.223 345.264 223.644 345.264H208.088C207.538 345.264 207.089 344.805 207.089 344.245V328.835C207.089 328.275 207.538 327.83 208.088 327.83H223.644C224.223 327.83 224.657 328.275 224.657 328.835V344.245Z" fill="white"/>
<path d="M246.043 344.245C246.043 344.805 245.595 345.264 245.045 345.264H229.489C228.924 345.264 228.476 344.805 228.476 344.245V328.835C228.476 328.275 228.924 327.83 229.489 327.83H245.045C245.595 327.83 246.043 328.275 246.043 328.835V344.245Z" fill="white"/>
<path d="M267.461 344.245C267.461 344.805 267.012 345.264 266.433 345.264H250.877C250.356 345.264 249.878 344.805 249.878 344.245V328.835C249.878 328.275 250.356 327.83 250.877 327.83H266.433C267.012 327.83 267.461 328.275 267.461 328.835V344.245Z" fill="white"/>
<path d="M288.893 344.245C288.893 344.805 288.401 345.264 287.866 345.264H272.31C271.76 345.264 271.311 344.805 271.311 344.245V328.835C271.311 328.275 271.76 327.83 272.31 327.83H287.866C288.401 327.83 288.893 328.275 288.893 328.835V344.245Z" fill="white"/>
<path d="M310.282 344.245C310.282 344.805 309.833 345.264 309.284 345.264H293.742C293.163 345.264 292.7 344.805 292.7 344.245V328.835C292.7 328.275 293.163 327.83 293.742 327.83H309.284C309.833 327.83 310.282 328.275 310.282 328.835V344.245Z" fill="white"/>
<path d="M358.658 344.245C358.658 344.805 358.21 345.264 357.674 345.264H315.303C314.724 345.264 314.29 344.805 314.29 344.245V328.835C314.29 328.275 314.724 327.83 315.303 327.83H357.674C358.21 327.83 358.644 328.275 358.644 328.835L358.658 344.245Z" fill="white"/>
<path d="M128.09 323.038C128.09 323.569 127.656 324.028 127.062 324.028H111.506C110.971 324.028 110.522 323.569 110.522 323.038V307.598C110.522 307.053 110.971 306.594 111.506 306.594H127.062C127.656 306.594 128.09 307.053 128.09 307.598V323.038Z" fill="white"/>
<path d="M149.479 323.038C149.479 323.569 149.03 324.028 148.48 324.028H132.924C132.36 324.028 131.911 323.569 131.911 323.038V307.598C131.911 307.053 132.36 306.594 132.924 306.594H148.48C149.03 306.594 149.479 307.053 149.479 307.598V323.038Z" fill="white"/>
<path d="M170.895 323.038C170.895 323.569 170.447 324.028 169.868 324.028H154.326C153.791 324.028 153.328 323.569 153.328 323.038V307.598C153.328 307.053 153.791 306.594 154.326 306.594H169.868C170.447 306.594 170.895 307.053 170.895 307.598V323.038Z" fill="white"/>
<path d="M192.329 323.038C192.329 323.569 191.822 324.028 191.301 324.028H175.745C175.195 324.028 174.747 323.569 174.747 323.038V307.598C174.747 307.053 175.195 306.594 175.745 306.594H191.301C191.822 306.594 192.329 307.053 192.329 307.598V323.038Z" fill="white"/>
<path d="M213.716 323.038C213.716 323.569 213.253 324.028 212.718 324.028H197.176C196.597 324.028 196.12 323.569 196.12 323.038V307.598C196.12 307.053 196.597 306.594 197.176 306.594H212.718C213.253 306.594 213.716 307.053 213.716 307.598V323.038Z" fill="white"/>
<path d="M235.119 323.038C235.119 323.569 234.67 324.028 234.106 324.028H218.549C218.014 324.028 217.565 323.569 217.565 323.038V307.598C217.565 307.053 218.014 306.594 218.549 306.594H234.106C234.67 306.594 235.119 307.053 235.119 307.598V323.038Z" fill="white"/>
<path d="M256.537 323.038C256.537 323.569 256.059 324.028 255.524 324.028H239.982C239.432 324.028 238.955 323.569 238.955 323.038V307.598C238.955 307.053 239.432 306.594 239.982 306.594H255.524C256.059 306.594 256.537 307.053 256.537 307.598V323.038Z" fill="white"/>
<path d="M277.939 323.038C277.939 323.569 277.491 324.028 276.941 324.028H261.399C260.82 324.028 260.357 323.569 260.357 323.038V307.598C260.357 307.053 260.82 306.594 261.399 306.594H276.941C277.491 306.594 277.939 307.053 277.939 307.598V323.038Z" fill="white"/>
<path d="M299.354 323.038C299.354 323.569 298.906 324.028 298.327 324.028H282.771C282.235 324.028 281.787 323.569 281.787 323.038V307.598C281.787 307.053 282.235 306.594 282.771 306.594H298.327C298.906 306.594 299.354 307.053 299.354 307.598V323.038Z" fill="white"/>
<path d="M320.744 323.038C320.744 323.569 320.281 324.028 319.76 324.028H304.204C303.668 324.028 303.176 323.569 303.176 323.038V307.598C303.176 307.053 303.668 306.594 304.204 306.594H319.76C320.281 306.594 320.744 307.053 320.744 307.598V323.038Z" fill="white"/>
<path d="M342.16 323.038C342.16 323.569 341.711 324.028 341.161 324.028H325.619C325.026 324.028 324.592 323.569 324.592 323.038V307.598C324.592 307.053 325.026 306.594 325.619 306.594H341.161C341.711 306.594 342.16 307.053 342.16 307.598V323.038Z" fill="white"/>
<path d="M123.011 301.787C123.011 302.346 122.563 302.806 121.999 302.806H106.442C105.892 302.806 105.429 302.346 105.429 301.787V286.362C105.429 285.831 105.892 285.372 106.442 285.372H121.999C122.563 285.372 123.011 285.831 123.011 286.362V301.787Z" fill="white"/>
<path d="M144.444 301.787C144.444 302.346 143.967 302.806 143.402 302.806H127.86C127.31 302.806 126.862 302.346 126.862 301.787V286.362C126.862 285.831 127.31 285.372 127.86 285.372H143.402C143.967 285.372 144.444 285.831 144.444 286.362V301.787Z" fill="white"/>
<path d="M165.831 301.787C165.831 302.346 165.368 302.806 164.832 302.806H149.276C148.697 302.806 148.249 302.346 148.249 301.787V286.362C148.249 285.831 148.697 285.372 149.276 285.372H164.832C165.368 285.372 165.831 285.831 165.831 286.362V301.787Z" fill="white"/>
<path d="M187.235 301.787C187.235 302.346 186.786 302.806 186.222 302.806H170.665C170.116 302.806 169.667 302.346 169.667 301.787V286.362C169.667 285.831 170.116 285.372 170.665 285.372H186.222C186.786 285.372 187.235 285.831 187.235 286.362V301.787Z" fill="white"/>
<path d="M208.665 301.787C208.665 302.346 208.173 302.806 207.623 302.806H192.082C191.546 302.806 191.083 302.346 191.083 301.787V286.362C191.083 285.831 191.546 285.372 192.082 285.372H207.623C208.173 285.372 208.665 285.831 208.665 286.362V301.787Z" fill="white"/>
<path d="M230.04 301.787C230.04 302.346 229.606 302.806 229.056 302.806H213.5C212.921 302.806 212.472 302.346 212.472 301.787V286.362C212.472 285.831 212.921 285.372 213.5 285.372H229.056C229.606 285.372 230.04 285.831 230.04 286.362V301.787Z" fill="white"/>
<path d="M251.47 301.787C251.47 302.346 251.036 302.806 250.442 302.806H234.886C234.35 302.806 233.902 302.346 233.902 301.787V286.362C233.902 285.831 234.35 285.372 234.886 285.372H250.442C251.036 285.372 251.47 285.831 251.47 286.362V301.787Z" fill="white"/>
<path d="M272.902 301.787C272.902 302.346 272.41 302.806 271.86 302.806H256.318C255.769 302.806 255.291 302.346 255.291 301.787V286.362C255.291 285.831 255.769 285.372 256.318 285.372H271.86C272.41 285.372 272.902 285.831 272.902 286.362V301.787Z" fill="white"/>
<path d="M294.275 301.787C294.275 302.346 293.827 302.806 293.291 302.806H277.735C277.142 302.806 276.708 302.346 276.708 301.787V286.362C276.708 285.831 277.142 285.372 277.735 285.372H293.291C293.827 285.372 294.275 285.831 294.275 286.362V301.787Z" fill="white"/>
<path d="M315.707 301.787C315.707 302.346 315.244 302.806 314.68 302.806H299.124C298.588 302.806 298.14 302.346 298.14 301.787V286.362C298.14 285.831 298.588 285.372 299.124 285.372H314.68C315.244 285.372 315.707 285.831 315.707 286.362V301.787Z" fill="white"/>
<path d="M337.081 301.787C337.081 302.346 336.632 302.806 336.096 302.806H320.54C320.005 302.806 319.513 302.346 319.513 301.787V286.362C319.513 285.831 320.005 285.372 320.54 285.372H336.096C336.632 285.372 337.081 285.831 337.081 286.362V301.787Z" fill="white"/>
<path d="M80.2048 301.787C80.2048 302.346 79.7562 302.806 79.1774 302.806H52.8112C52.2613 302.806 51.8271 302.346 51.8271 301.787V286.362C51.8271 285.831 52.2613 285.372 52.8112 285.372H79.1774C79.7562 285.372 80.2048 285.831 80.2048 286.362V301.787Z" fill="white"/>
<path d="M358.657 280.551C358.657 281.11 358.194 281.569 357.658 281.569H331.292C330.728 281.569 330.279 281.11 330.279 280.551V265.154C330.279 264.58 330.728 264.15 331.292 264.15H357.658C358.194 264.15 358.657 264.58 358.657 265.154V280.551Z" fill="white"/>
<path d="M85.256 323.038C85.256 323.569 84.8074 324.028 84.243 324.028H52.7975C52.2621 324.028 51.8135 323.569 51.8135 323.038V307.598C51.8135 307.053 52.2621 306.594 52.7975 306.594H84.243C84.8074 306.594 85.256 307.053 85.256 307.598V323.038Z" fill="white"/>
<path d="M74.779 344.245C74.779 344.805 74.3304 345.264 73.795 345.264H52.7975C52.2621 345.264 51.8135 344.805 51.8135 344.245V328.835C51.8135 328.275 52.2621 327.83 52.7975 327.83H73.795C74.3304 327.83 74.779 328.275 74.779 328.835V344.245Z" fill="white"/>
<path d="M90.7714 280.551C90.7714 281.11 90.3373 281.569 89.7729 281.569H74.2455C73.6522 281.569 73.2036 281.11 73.2036 280.551V265.154C73.2036 264.58 73.6522 264.15 74.2455 264.15H89.7729C90.3373 264.15 90.7714 264.58 90.7714 265.154V280.551Z" fill="white"/>
<path d="M112.201 280.551C112.201 281.11 111.753 281.569 111.159 281.569H95.6173C95.0819 281.569 94.6333 281.11 94.6333 280.551V265.154C94.6333 264.58 95.0819 264.15 95.6173 264.15H111.159C111.753 264.15 112.201 264.58 112.201 265.154V280.551Z" fill="white"/>
<path d="M133.634 280.551C133.634 281.11 133.128 281.569 132.578 281.569H117.051C116.501 281.569 116.009 281.11 116.009 280.551V265.154C116.009 264.58 116.501 264.15 117.051 264.15H132.578C133.128 264.15 133.634 264.58 133.634 265.154V280.551Z" fill="white"/>
<path d="M155.022 280.551C155.022 281.11 154.558 281.569 154.009 281.569H138.467C137.888 281.569 137.425 281.11 137.425 280.551V265.154C137.425 264.58 137.888 264.15 138.467 264.15H154.009C154.558 264.15 155.022 264.58 155.022 265.154V280.551Z" fill="white"/>
<path d="M176.408 280.551C176.408 281.11 175.974 281.569 175.395 281.569H159.839C159.303 281.569 158.84 281.11 158.84 280.551V265.154C158.84 264.58 159.303 264.15 159.839 264.15H175.395C175.974 264.15 176.408 264.58 176.408 265.154V280.551Z" fill="white"/>
<path d="M197.825 280.551C197.825 281.11 197.362 281.569 196.812 281.569H181.285C180.735 281.569 180.243 281.11 180.243 280.551V265.154C180.243 264.58 180.735 264.15 181.285 264.15H196.812C197.362 264.15 197.825 264.58 197.825 265.154V280.551Z" fill="white"/>
<path d="M219.23 280.551C219.23 281.11 218.781 281.569 218.246 281.569H202.704C202.111 281.569 201.662 281.11 201.662 280.551V265.154C201.662 264.58 202.111 264.15 202.704 264.15H218.246C218.781 264.15 219.23 264.58 219.23 265.154V280.551Z" fill="white"/>
<path d="M240.661 280.551C240.661 281.11 240.198 281.569 239.619 281.569H224.077C223.527 281.569 223.079 281.11 223.079 280.551V265.154C223.079 264.58 223.527 264.15 224.077 264.15H239.619C240.198 264.15 240.661 264.58 240.661 265.154V280.551Z" fill="white"/>
<path d="M262.036 280.551C262.036 281.11 261.602 281.569 261.052 281.569H245.51C244.931 281.569 244.468 281.11 244.468 280.551V265.154C244.468 264.58 244.931 264.15 245.51 264.15H261.052C261.602 264.15 262.036 264.58 262.036 265.154V280.551Z" fill="white"/>
<path d="M283.466 280.551C283.466 281.11 283.017 281.569 282.453 281.569H266.882C266.347 281.569 265.884 281.11 265.884 280.551V265.154C265.884 264.58 266.347 264.15 266.882 264.15H282.453C283.017 264.15 283.466 264.58 283.466 265.154V280.551Z" fill="white"/>
<path d="M304.899 280.551C304.899 281.11 304.393 281.569 303.857 281.569H288.301C287.751 281.569 287.317 281.11 287.317 280.551V265.154C287.317 264.58 287.751 264.15 288.301 264.15H303.857C304.393 264.15 304.899 264.58 304.899 265.154V280.551Z" fill="white"/>
<path d="M326.27 280.551C326.27 281.11 325.822 281.569 325.286 281.569H309.73C309.151 281.569 308.703 281.11 308.703 280.551V265.154C308.703 264.58 309.151 264.15 309.73 264.15H325.286C325.822 264.15 326.27 264.58 326.27 265.154V280.551Z" fill="white"/>
<path d="M319.702 359.671V368.151C319.702 368.424 319.789 368.682 320.006 368.868C320.194 369.055 320.469 369.17 320.686 369.17H336.243C336.517 369.17 336.792 369.055 336.966 368.868C337.198 368.667 337.27 368.424 337.27 368.151V359.671H319.702Z" fill="white"/>
<path d="M337.27 358.537V350.043C337.27 349.799 337.198 349.541 336.966 349.354C336.792 349.153 336.517 349.038 336.243 349.038H320.686C320.469 349.038 320.194 349.153 320.006 349.354C319.789 349.555 319.702 349.799 319.702 350.043V358.537H337.27Z" fill="white"/>
<path d="M342.117 285.358C341.842 285.358 341.61 285.458 341.379 285.673C341.22 285.86 341.089 286.104 341.089 286.348V301.773C341.089 302.046 341.22 302.304 341.379 302.505C341.61 302.691 341.842 302.792 342.117 302.792H346.169V323.024C346.169 323.268 346.241 323.54 346.473 323.712C346.646 323.928 346.921 324.014 347.211 324.014H357.659C357.948 324.014 358.18 323.928 358.397 323.712C358.57 323.526 358.657 323.268 358.657 323.024V286.362C358.657 286.118 358.57 285.86 358.397 285.673C358.165 285.458 357.948 285.372 357.659 285.372H342.117V285.358Z" fill="white"/>
<path d="M47.3868 41.325C43.2047 41.325 39.037 42.9033 35.8389 46.0601C32.6553 49.2312 31.0635 53.3781 31.0635 57.5393V243.947H379.41V57.5393C379.41 53.3781 377.818 49.2312 374.635 46.0601C371.436 42.9033 367.269 41.325 363.101 41.325H47.3868Z" fill="#232E38"/>
<path d="M209.158 50.2926C209.158 52.445 207.393 54.1955 205.251 54.1955C203.08 54.1955 201.315 52.445 201.315 50.2926C201.315 48.1259 203.08 46.4327 205.251 46.4327C207.393 46.4327 209.158 48.1259 209.158 50.2926Z" fill="#474F59"/>
<path d="M206.842 50.2933C206.842 51.1829 206.118 51.886 205.25 51.886C204.367 51.886 203.644 51.1829 203.644 50.2933C203.644 49.4323 204.367 48.7292 205.25 48.7292C206.118 48.7292 206.842 49.4323 206.842 50.2933Z" fill="white"/>
<path d="M347.24 236.643H370.104V251.236H347.24V236.643Z" fill="#474F59"/>
<path d="M347.24 243.947H370.104V251.236H347.24V243.947Z" fill="#232E38"/>
<path d="M40.3672 236.643H63.2314V251.236H40.3672V236.643Z" fill="#474F59"/>
<path d="M40.3672 243.947H63.2314V251.236H40.3672V243.947Z" fill="#232E38"/>
<path d="M51.8271 61.5139H358.656V223.743H51.8271V61.5139Z" fill="white"/>
<path d="M71.7412 75.0879H85.344V80.0096H71.7412V75.0879Z" fill="#E6E5E5"/>
<path d="M71.7412 107.459H85.344V112.381H71.7412V107.459Z" fill="#E6E5E5"/>
<path d="M88.8589 75.0879H152.951V80.0096H88.8589V75.0879Z" fill="#E6E5E5"/>
<path d="M88.8589 107.459H137.945V112.381H88.8589V107.459Z" fill="#E6E5E5"/>
<path d="M85.3428 87.3853H106.948V92.3069H85.3428V87.3853Z" fill="#E6E5E5"/>
<path d="M85.3428 144.35H106.948V149.272H85.3428V144.35Z" fill="#E6E5E5"/>
<path d="M112.071 144.35H168.61V149.272H112.071V144.35Z" fill="#E6E5E5"/>
<path d="M97.5713 180.653H115.385V185.575H97.5713V180.653Z" fill="#E6E5E5"/>
<path d="M221.429 205.248H244.626V210.169H221.429V205.248Z" fill="#E6E5E5"/>
<path d="M175.007 144.35H215.671V149.272H175.007V144.35Z" fill="#E6E5E5"/>
<path d="M223.934 144.35H248.824V149.272H223.934V144.35Z" fill="#E6E5E5"/>
<path d="M85.3428 119.756H117.613V124.693H85.3428V119.756Z" fill="#E6E5E5"/>
<path d="M85.3428 132.068H131.1V136.99H85.3428V132.068Z" fill="#E6E5E5"/>
<path d="M97.5713 192.964H150.014V197.886H97.5713V192.964Z" fill="#E6E5E5"/>
<path d="M97.5713 205.248H145.76V210.169H97.5713V205.248Z" fill="#E6E5E5"/>
<path d="M161.359 205.248H211.328V210.169H161.359V205.248Z" fill="#E6E5E5"/>
<path d="M71.7412 180.653H90.2786V185.575H71.7412V180.653Z" fill="#E6E5E5"/>
<path d="M135.992 132.068H181.764V136.99H135.992V132.068Z" fill="#E6E5E5"/>
<path d="M230.025 132.068H256.753V136.99H230.025V132.068Z" fill="#E6E5E5"/>
<path d="M184.918 132.068H213.499V136.99H184.918V132.068Z" fill="#E6E5E5"/>
<path d="M128.164 119.756H177.727V124.693H128.164V119.756Z" fill="#E6E5E5"/>
<path d="M120.45 87.3853H140.348V92.3069H120.45V87.3853Z" fill="#E6E5E5"/>
<path d="M486.423 481.579C486.423 495.971 474.557 507.738 460.057 507.738H440.868C426.368 507.738 414.487 495.957 414.487 481.579V406.735C414.487 392.343 426.368 380.591 440.868 380.591H460.057C474.571 380.591 486.423 392.343 486.423 406.735V481.579Z" fill="white"/>
<path d="M474.282 384.753C474.543 386.245 474.702 387.752 474.702 389.302V446.066C474.702 457.402 470.346 468.709 461.635 477.347C452.923 485.985 441.52 490.304 430.088 490.304H429.133C423.909 490.304 419.032 488.74 414.908 486.114C417.093 498.339 427.917 507.724 440.854 507.724H460.043C474.557 507.724 486.409 495.957 486.409 481.58V406.736C486.424 397.538 481.561 389.431 474.282 384.753Z" fill="#E6E5E5"/>
<path d="M456.44 407.941C456.44 411.212 453.763 413.867 450.463 413.867C447.149 413.867 444.472 411.212 444.472 407.941C444.472 404.641 447.149 401.972 450.463 401.972C453.763 401.972 456.44 404.641 456.44 407.941Z" fill="#232E38"/>
<path d="M526.899 240.029L518.636 213.11L510.373 240.029H526.899Z" fill="#F2F2F2"/>
<path d="M518.635 213.11L526.898 240.029H521.703L518.635 213.11Z" fill="#CCCBCA"/>
<path d="M510.373 240.029H526.884V432.449H510.373V240.029Z" fill="#474F59"/>
<path d="M521.704 240.029H526.899V432.449H521.704V240.029Z" fill="#232E38"/>
<path d="M521.861 223.643L518.634 213.11L515.393 223.643H521.861Z" fill="#353F49"/>
<path d="M521.862 223.643L518.635 213.11L519.836 223.643H521.862Z" fill="#232E38"/>
<path d="M510.373 432.449H526.884V441.963H510.373V432.449Z" fill="#F2F2F2"/>
<path d="M521.704 432.449H526.899V441.963H521.704V432.449Z" fill="#CCCBCA"/>
<path d="M526.899 452.207C526.899 454.288 526.089 456.397 524.482 457.99C522.862 459.597 520.749 460.401 518.636 460.401C516.523 460.401 514.396 459.597 512.79 457.99C511.183 456.397 510.373 454.288 510.373 452.207V441.962H526.884L526.899 452.207Z" fill="#FF916E"/>
<path d="M512.789 457.99C511.848 457.057 511.226 455.952 510.821 454.79C511.675 455.063 512.543 455.249 513.44 455.249C515.553 455.249 517.666 454.446 519.286 452.839C520.893 451.246 521.703 449.151 521.703 447.056V441.962H526.898V452.207C526.898 454.288 526.088 456.397 524.481 457.99C522.861 459.597 520.748 460.401 518.635 460.401C516.522 460.401 514.395 459.597 512.789 457.99Z" fill="#F77B55"/>
</svg>
