<svg width="552" height="551" viewBox="0 0 552 551" fill="none" xmlns="http://www.w3.org/2000/svg">
<mask id="mask0_166_266" style="mask-type:luminance" maskUnits="userSpaceOnUse" x="0" y="0" width="552" height="551">
<path d="M0 0H551.424V551H0V0Z" fill="white"/>
</mask>
<g mask="url(#mask0_166_266)">
<path d="M551.424 275.5C551.424 280.006 551.324 284.511 551.094 289.017C550.879 293.522 550.548 298.014 550.103 302.505C549.658 306.982 549.112 311.458 548.452 315.921C547.777 320.384 547.016 324.817 546.125 329.251C545.249 333.671 544.259 338.061 543.167 342.438C542.076 346.814 540.87 351.162 539.563 355.467C538.242 359.786 536.834 364.062 535.312 368.309C533.79 372.556 532.167 376.761 530.444 380.922C528.721 385.097 526.883 389.216 524.959 393.291C523.034 397.366 520.995 401.398 518.87 405.372C516.745 409.347 514.519 413.264 512.207 417.139C509.881 420.998 507.468 424.815 504.97 428.56C502.457 432.305 499.857 435.993 497.172 439.609C494.487 443.239 491.715 446.784 488.843 450.27C485.986 453.757 483.042 457.172 480.012 460.515C476.982 463.859 473.866 467.116 470.678 470.301C467.49 473.487 464.216 476.601 460.87 479.628C457.538 482.656 454.121 485.597 450.631 488.467C447.142 491.323 443.581 494.092 439.962 496.775C436.329 499.473 432.653 502.056 428.89 504.567C425.142 507.078 421.337 509.488 417.46 511.799C413.597 514.123 409.662 516.347 405.685 518.471C401.707 520.595 397.686 522.618 393.593 524.541C389.515 526.478 385.394 528.3 381.229 530.022C377.065 531.758 372.858 533.38 368.607 534.886C364.356 536.407 360.077 537.828 355.755 539.133C351.432 540.439 347.081 541.644 342.716 542.735C338.336 543.84 333.928 544.83 329.505 545.705C325.082 546.581 320.63 547.355 316.179 548.015C311.713 548.675 307.232 549.235 302.738 549.666C298.257 550.11 293.748 550.44 289.239 550.67C284.745 550.885 280.236 551 275.712 551C271.203 551 266.694 550.885 262.185 550.67C257.676 550.44 253.181 550.11 248.687 549.666C244.206 549.235 239.726 548.675 235.26 548.015C230.794 547.355 226.357 546.581 221.934 545.705C217.497 544.83 213.102 543.84 208.723 542.735C204.343 541.644 200.006 540.439 195.684 539.133C191.361 537.828 187.082 536.407 182.832 534.886C178.581 533.38 174.374 531.758 170.209 530.022C166.045 528.3 161.909 526.478 157.831 524.541C153.753 522.618 149.732 520.595 145.754 518.471C141.762 516.347 137.842 514.123 133.979 511.799C130.102 509.488 126.296 507.078 122.534 504.567C118.786 502.056 115.095 499.473 111.477 496.775C107.858 494.092 104.297 491.323 100.807 488.467C97.3178 485.597 93.9001 482.656 90.5542 479.628C87.2227 476.601 83.9486 473.487 80.7607 470.301C77.5727 467.116 74.4566 463.859 71.4267 460.515C68.3967 457.172 65.4529 453.757 62.5953 450.27C59.7233 446.784 56.9518 443.239 54.2665 439.609C51.5811 435.993 48.982 432.305 46.469 428.56C43.9703 424.815 41.5579 420.998 39.2315 417.139C36.9052 413.264 34.6938 409.347 32.5685 405.372C30.4289 401.398 28.4041 397.366 26.4798 393.291C24.5412 389.216 22.7175 385.097 20.9943 380.922C19.2711 376.761 17.6484 372.556 16.1263 368.309C14.6041 364.062 13.1825 359.786 11.8757 355.467C10.569 351.162 9.36272 346.814 8.27136 342.438C7.16564 338.061 6.18916 333.671 5.29884 329.251C4.42288 324.817 3.64744 320.384 2.98688 315.921C2.32632 311.458 1.78064 306.982 1.33548 302.505C0.890319 298.014 0.560041 293.522 0.34464 289.017C0.11488 284.511 0 280.006 0 275.5C0 270.994 0.11488 266.489 0.34464 261.983C0.560041 257.478 0.890319 252.986 1.33548 248.495C1.78064 244.004 2.32632 239.527 2.98688 235.079C3.64744 230.616 4.42288 226.168 5.29884 221.749C6.18916 217.329 7.16564 212.924 8.27136 208.562C9.36272 204.186 10.569 199.838 11.8757 195.519C13.1825 191.214 14.6041 186.924 16.1263 182.691C17.6484 178.444 19.2711 174.239 20.9943 170.064C22.7175 165.903 24.5412 161.785 26.4798 157.709C28.4041 153.634 30.4289 149.602 32.5685 145.628C34.6938 141.653 36.9052 137.736 39.2315 133.861C41.5579 130.002 43.9703 126.185 46.469 122.44C48.982 118.695 51.5811 115.007 54.2665 111.377C56.9518 107.761 59.7233 104.202 62.5953 100.73C65.4529 97.2429 68.3967 93.8278 71.4267 90.4845C74.4566 87.1412 77.5727 83.884 80.7607 80.6842C83.9486 77.4987 87.2227 74.3994 90.5542 71.3717C93.9001 68.3441 97.3178 65.3882 100.807 62.5328C104.297 59.6773 107.858 56.8936 111.477 54.2104C115.095 51.5271 118.786 48.9299 122.534 46.4332C126.296 43.9222 130.102 41.5115 133.979 39.187C137.842 36.8768 141.762 34.6527 145.754 32.5291C149.732 30.4054 153.753 28.3822 157.831 26.4451C161.909 24.5224 166.045 22.7001 170.209 20.9638C174.374 19.242 178.581 17.6205 182.832 16.0995C187.082 14.5785 191.361 13.1723 195.684 11.8666C200.006 10.5465 204.343 9.35552 208.723 8.25065C213.102 7.16013 217.497 6.17005 221.934 5.29477C226.357 4.40513 230.794 3.64463 235.26 2.98458C239.726 2.32453 244.206 1.76492 248.687 1.3201C253.181 0.889634 257.676 0.545258 262.185 0.330026C266.694 0.114791 271.203 0 275.712 0C280.236 0 284.745 0.114791 289.239 0.330026C293.748 0.545258 298.257 0.889634 302.738 1.3201C307.232 1.76492 311.713 2.32453 316.179 2.98458C320.63 3.64463 325.082 4.40513 329.505 5.29477C333.928 6.17005 338.336 7.16013 342.716 8.25065C347.081 9.35552 351.432 10.5465 355.755 11.8666C360.077 13.1723 364.356 14.5785 368.607 16.0995C372.858 17.6205 377.065 19.242 381.229 20.9638C385.394 22.7001 389.515 24.5224 393.593 26.4451C397.686 28.3822 401.707 30.4054 405.685 32.5291C409.662 34.6527 413.597 36.8768 417.46 39.187C421.337 41.5115 425.142 43.9222 428.89 46.4332C432.653 48.9299 436.329 51.5271 439.962 54.2104C443.581 56.8936 447.142 59.6773 450.631 62.5328C454.121 65.3882 457.538 68.3441 460.87 71.3717C464.216 74.3994 467.49 77.4987 470.678 80.6842C473.866 83.884 476.982 87.1412 480.012 90.4845C483.042 93.8278 485.986 97.2429 488.843 100.73C491.715 104.202 494.487 107.761 497.172 111.377C499.857 115.007 502.457 118.695 504.97 122.44C507.468 126.185 509.881 130.002 512.207 133.861C514.519 137.736 516.745 141.653 518.87 145.628C520.995 149.602 523.034 153.634 524.959 157.709C526.883 161.785 528.721 165.903 530.444 170.064C532.167 174.239 533.79 178.444 535.312 182.691C536.834 186.924 538.242 191.214 539.563 195.519C540.87 199.838 542.076 204.186 543.167 208.562C544.259 212.924 545.249 217.329 546.125 221.749C547.016 226.168 547.777 230.616 548.452 235.079C549.112 239.527 549.658 244.004 550.103 248.495C550.548 252.986 550.879 257.478 551.094 261.983C551.324 266.489 551.424 270.994 551.424 275.5Z" fill="#168D71"/>
</g>
<path d="M411.377 342.874C406.648 345.458 396.43 332.02 393.737 326.083L410.255 324.041L415.47 336.229L411.377 342.874Z" fill="#A3CAE3"/>
<path d="M432.123 358.213C426.805 361.119 415.295 345.994 412.266 339.307L430.857 337.01L436.733 350.734L432.123 358.213Z" fill="#091626"/>
<path d="M386.217 241.536L384.269 245.817L380.868 253.286C379.095 251.005 377.576 241.484 379.411 240.046L379.421 240.036L379.483 240.015C380.32 239.822 386.217 241.536 386.217 241.536Z" fill="#091626"/>
<path d="M372.754 248.708C370.816 249.89 372.325 258.775 374.097 261.052L379.442 249.302L372.95 248.708H372.754Z" fill="#A3CAE3"/>
<path d="M372.36 347.651L372.329 347.526C372.34 347.552 372.35 347.578 372.36 347.604V347.651Z" fill="#F29D66"/>
<path d="M370.453 342.557C370.453 342.552 370.443 342.541 370.438 342.536C370.443 342.536 370.443 342.536 370.443 342.536C370.443 342.541 370.453 342.552 370.453 342.557ZM370.05 341.864C369.197 340.453 368.127 338.994 366.835 337.473C366.923 337.578 367.016 337.687 367.104 337.796C368.231 339.14 369.177 340.442 369.952 341.697C369.983 341.755 370.019 341.812 370.05 341.864ZM365.977 336.5C365.657 336.156 365.326 335.807 364.985 335.453C365.088 335.557 365.187 335.661 365.29 335.765C365.383 335.864 365.481 335.963 365.574 336.062C365.714 336.208 365.843 336.354 365.977 336.5ZM364.613 335.067C364.22 334.671 363.807 334.27 363.388 333.864C363.419 333.895 363.45 333.927 363.481 333.958C363.838 334.291 364.179 334.635 364.515 334.963C364.546 335 364.582 335.036 364.613 335.067ZM362.685 333.208C361.853 332.432 360.985 331.656 360.091 330.88C360.287 331.052 360.488 331.223 360.69 331.401C361.346 331.979 361.987 332.557 362.608 333.13C362.633 333.156 362.659 333.182 362.685 333.208ZM359.362 330.26C355.723 327.161 351.759 324.125 348.467 321.567C348.472 321.567 348.472 321.567 348.477 321.567C349.418 322.296 350.42 323.072 351.449 323.875C351.697 324.067 351.945 324.26 352.193 324.458C352.348 324.578 352.509 324.703 352.669 324.828C354.741 326.447 356.902 328.171 358.969 329.921C359.098 330.036 359.233 330.145 359.362 330.26ZM347.686 320.963C347.552 320.848 347.412 320.744 347.273 320.64H347.294L347.314 320.661C347.35 320.687 347.387 320.713 347.418 320.744C347.511 320.812 347.604 320.885 347.692 320.953C347.692 320.958 347.692 320.958 347.686 320.963Z" fill="#FDEADD"/>
<path d="M371.875 345.744C371.864 345.713 371.854 345.677 371.838 345.64C371.854 345.677 371.864 345.708 371.875 345.744ZM371.291 344.229C371.167 343.947 371.032 343.666 370.893 343.385C371.043 343.666 371.172 343.947 371.291 344.229ZM370.691 343.005C370.619 342.854 370.536 342.708 370.453 342.557C370.453 342.552 370.443 342.541 370.443 342.536C370.536 342.692 370.619 342.848 370.691 343.005ZM369.952 341.697C369.177 340.442 368.231 339.14 367.104 337.796C368.231 339.135 369.182 340.432 369.952 341.697ZM364.515 334.963C364.179 334.635 363.838 334.291 363.481 333.958C363.641 334.104 363.796 334.249 363.941 334.401C364.138 334.583 364.329 334.776 364.515 334.963ZM362.608 333.13C361.988 332.557 361.347 331.979 360.69 331.401C360.928 331.609 361.166 331.817 361.398 332.026C361.796 332.39 362.215 332.755 362.608 333.13ZM358.969 329.921C356.902 328.171 354.741 326.447 352.669 324.828C353.93 325.812 355.222 326.843 356.519 327.88C357.341 328.552 358.163 329.234 358.969 329.921ZM351.449 323.874C350.421 323.072 349.418 322.296 348.477 321.567C348.477 321.562 348.477 321.562 348.477 321.562C348.912 321.895 349.356 322.244 349.811 322.593C350.354 323.015 350.896 323.442 351.449 323.874ZM347.692 320.953C347.604 320.885 347.511 320.812 347.418 320.744C347.511 320.812 347.604 320.88 347.697 320.953H347.692ZM347.268 320.64H347.263C347.242 320.624 347.211 320.609 347.185 320.598C347.211 320.609 347.242 320.624 347.268 320.64ZM346.188 320.109C346.167 320.098 346.152 320.088 346.131 320.078C345.94 319.984 345.754 319.901 345.568 319.807C345.754 319.901 345.945 319.989 346.136 320.078C346.152 320.088 346.167 320.098 346.188 320.109ZM248.573 311.588C246.299 311.588 244.071 311.197 242.35 310.255C242.283 310.213 242.21 310.171 242.143 310.124C242.21 310.171 242.283 310.213 242.35 310.249C244.071 311.197 246.299 311.588 248.573 311.588C251.669 311.588 254.863 310.864 257.038 309.833C257.416 309.656 257.788 309.463 258.155 309.265C257.788 309.463 257.411 309.656 257.033 309.833C254.863 310.864 251.669 311.588 248.573 311.588ZM242.04 310.057C241.259 309.515 240.453 308.593 239.869 307.588L239.874 307.546C240.464 308.557 241.259 309.51 242.04 310.057ZM278.394 286.609C285.449 283.244 288.86 280.286 290.111 279.041C290.261 278.885 290.385 278.755 290.473 278.656C290.385 278.755 290.261 278.885 290.116 279.041C288.86 280.291 285.449 283.244 278.394 286.609ZM290.561 278.557C290.648 278.463 290.69 278.416 290.69 278.416C290.685 278.421 290.643 278.468 290.561 278.557Z" fill="#FCB075"/>
<path d="M348.467 321.567C348.204 321.364 347.945 321.156 347.687 320.963C347.692 320.958 347.692 320.958 347.692 320.953C347.951 321.156 348.214 321.359 348.478 321.567C348.473 321.567 348.473 321.567 348.467 321.567Z" fill="#FCD8BD"/>
<path d="M348.007 321.802L347.568 321.104C347.609 321.052 347.645 321.01 347.687 320.963C347.945 321.156 348.204 321.364 348.467 321.567C348.317 321.645 348.162 321.729 348.007 321.802Z" fill="#F29158"/>
<path d="M348.477 321.567C348.214 321.359 347.95 321.156 347.692 320.953H347.697C347.95 321.156 348.214 321.354 348.477 321.562C348.477 321.562 348.477 321.562 348.477 321.567Z" fill="#FCA364"/>
<path d="M269.019 290.432C269.252 290.359 269.479 290.265 269.691 290.197C269.495 290.265 269.277 290.348 269.066 290.421C269.045 290.421 269.035 290.427 269.019 290.432Z" fill="#F59E65"/>
<path d="M269.019 290.432C269.158 289.427 268.946 288.567 268.6 287.406C268.28 286.239 267.815 285.192 267.282 284.052C267.928 284.427 268.466 284.89 268.859 285.421C269.045 285.703 269.2 285.984 269.319 286.286C269.412 286.494 269.525 286.729 269.598 286.937C269.691 287.171 269.732 287.406 269.779 287.661C269.877 288.15 269.944 288.661 269.897 289.15C269.851 289.499 269.804 289.848 269.691 290.197C269.479 290.265 269.251 290.359 269.019 290.432Z" fill="#FFB274"/>
<path d="M291.155 278.927C291.15 278.921 291.145 278.916 291.14 278.906C291.145 278.916 291.15 278.916 291.15 278.927C291.15 278.927 291.15 278.927 291.155 278.927Z" fill="#F59E65"/>
<path d="M291.155 278.927C291.15 278.927 291.15 278.927 291.15 278.927C291.15 278.916 291.145 278.916 291.139 278.906C291.005 278.755 290.871 278.598 290.736 278.463L290.757 278.369C290.876 278.088 290.969 277.807 291.083 277.531L291.822 275.27C292.101 274.526 292.359 273.755 292.68 273.01C293.005 272.27 293.326 271.5 293.791 270.796C293.77 272.479 293.439 274.083 292.912 275.64C292.633 276.437 292.333 277.203 291.873 277.927C291.661 278.276 291.408 278.625 291.155 278.927Z" fill="#FFB274"/>
<path d="M290.716 278.437L290.69 278.416V278.411L290.716 278.437Z" fill="#F59E65"/>
<path d="M238.991 304.9V304.88C238.97 304.312 239.038 303.734 239.156 303.14C239.043 303.729 238.976 304.307 238.991 304.874V304.89C238.991 304.895 238.991 304.9 238.991 304.9ZM239.901 300.499C240.164 299.692 240.433 298.854 240.655 297.984C240.702 297.822 240.748 297.64 240.795 297.473C240.965 296.687 241.188 295.807 241.425 294.885C241.188 295.807 240.971 296.677 240.8 297.463C240.753 297.63 240.707 297.812 240.66 297.979C240.438 298.848 240.164 299.687 239.901 300.499ZM242.588 290.609C242.934 289.307 243.265 288.015 243.524 286.833C243.617 286.296 243.736 285.786 243.829 285.27C243.736 285.781 243.622 286.291 243.529 286.822C243.27 288.01 242.934 289.302 242.588 290.609Z" fill="#F5A068"/>
<path d="M166.876 334.817C163.853 333.812 161.496 333.401 159.765 333.307C166.173 318.708 174.98 291.604 183.513 252.062C183.854 252.281 184.206 252.489 184.568 252.682C179.529 286.635 171.43 318.354 166.876 334.817Z" fill="#F29D66"/>
<path d="M400.512 330.713C392.465 294.312 380.159 264.932 374.562 255.01C375.151 254.734 375.694 254.479 376.19 254.25C383.922 268.52 401.96 307.239 408.74 329.593C406.425 329.828 403.737 330.14 402.502 330.348C401.846 330.458 401.179 330.583 400.512 330.713Z" fill="#FFB477"/>
<path d="M237.089 364.953C237.095 364.942 237.1 364.932 237.105 364.927C240.397 360.979 243.829 359.218 247.281 359.218C248.858 359.218 250.434 359.588 252.005 360.276C250.434 359.588 248.858 359.223 247.287 359.223C243.829 359.223 240.387 360.989 237.089 364.953Z" fill="#FBA969"/>
<path d="M257.576 384.135L257.556 384.072C257.762 383.791 257.969 383.51 258.191 383.239C258.176 383.26 258.166 383.281 258.155 383.302C257.938 383.572 257.762 383.854 257.576 384.135Z" fill="#FBA969"/>
<path d="M207.908 358.973C207.944 358.921 207.986 358.864 208.017 358.812L208.032 358.822C207.991 358.875 207.95 358.921 207.908 358.973Z" fill="#FDEADD"/>
<path d="M231.559 373.468C233.461 369.817 234.82 366.083 234.717 362.666C234.82 366.083 233.466 369.812 231.564 373.463C231.564 373.463 231.564 373.468 231.559 373.468ZM234.712 362.515C234.712 362.515 234.712 362.515 234.712 362.51V362.515ZM207.779 359.166C207.821 359.104 207.862 359.041 207.909 358.973C207.95 358.921 207.991 358.874 208.033 358.822C209.077 357.557 210.214 356.385 211.495 355.369C210.105 356.473 208.896 357.776 207.779 359.166Z" fill="#FBA969"/>
<path d="M232.789 371.348C233.342 370.38 234.009 369.291 234.707 368.218C234.707 368.223 234.707 368.229 234.707 368.234C234.004 369.302 233.342 370.385 232.789 371.348Z" fill="#FBA969"/>
<path d="M258.683 382.677C258.703 382.651 258.714 382.625 258.734 382.599C260.657 380.432 263.169 378.724 266.042 378.583C263.138 378.729 260.621 380.479 258.683 382.677Z" fill="#FBA969"/>
<path d="M205.918 355.833C204.683 358.781 201.618 363.281 197.964 366.568C194.636 369.578 191.586 370.156 187.26 369.016C182.356 367.734 177.244 363.219 176.965 357.792C176.712 353.203 179.348 348.479 184.046 344.234C194.005 342.411 210.492 344.88 205.918 355.833Z" fill="#FEB87A"/>
<path d="M366.96 357.359C361.895 363.833 354.747 365.771 346.302 359.578L345.909 359.458V359.479L345.96 359.599C345.981 359.63 345.986 359.63 345.991 359.625C345.991 359.62 345.991 359.62 346.002 359.667C351.258 365.443 350.907 373.385 346.028 379.021C340.937 384.87 333.096 386.427 325.954 380.672C329.189 386.287 327.106 392.5 322.599 397C317.948 401.63 311.146 401.167 304.37 396.651C303.864 396.297 303.378 395.813 302.96 395.25C303.032 398.49 301.802 401.797 300.117 404.474C296.618 410.042 289.682 412.162 279.48 406.078L182.056 342.896C174.634 338.219 168.804 335.563 164.411 334.141C160.638 332.885 157.909 332.557 156.126 332.609L180.438 250.979C180.97 251.354 181.523 251.703 182.102 252.005C193.948 259.177 211.64 261.974 219.253 262.693C219.552 262.74 219.878 262.74 220.152 262.74H220.271C221.682 262.74 223.067 262.464 224.385 261.88L224.498 261.833C224.498 261.833 247.146 253.844 257.969 247.578C263.618 244.323 270.435 245.344 276.384 247.745C281.376 249.766 282.813 252.958 286.147 256.823C291.997 263.578 298.127 270.12 304.117 276.76C316.857 290.781 326.641 304.333 340.916 316.792C345.867 321.125 358.354 329.719 364.37 336.797C371.125 344.74 371.838 351.073 366.96 357.359Z" fill="#F5AB76"/>
<path d="M345.961 359.599C342.612 357.339 339.557 354.839 336.528 352.229C333.474 349.516 330.502 346.75 327.768 343.693C331.169 345.979 334.327 348.563 337.407 351.219C340.353 353.823 343.247 356.51 345.904 359.438V359.464L345.961 359.599Z" fill="#F29A63"/>
<path d="M326.336 380.927C326.336 380.927 320.625 376.781 318.398 374.922C315.943 372.755 313.482 370.719 311.379 368.156C314.299 369.833 316.878 371.849 319.395 373.948C321.845 376.115 324.233 378.333 326.336 380.927Z" fill="#F29A63"/>
<path d="M302.975 395.24C302.975 395.24 299.828 393.094 298.391 391.797C297.011 390.412 294.721 387.609 294.551 387.182C294.794 387.182 297.693 389.552 299.13 390.854C300.494 392.24 302.779 394.766 302.975 395.24Z" fill="#F29A63"/>
<path d="M233.636 267.865C231.6 265.953 229.104 264.786 226.514 264C224.478 263.391 222.354 262.995 220.271 262.74C221.682 262.74 223.067 262.464 224.385 261.88C225.264 262.182 226.101 262.531 226.933 262.901C229.476 264.115 231.9 265.698 233.636 267.865Z" fill="#F29A63"/>
<path d="M409.879 328.599L409.796 328.604C407.998 328.708 402.064 329.328 400.038 329.672C399.382 329.781 398.715 329.906 398.048 330.037C390.332 331.51 382.114 333.958 382.114 333.958C381.809 335.193 375.819 341.599 369.411 345.068C368.558 342.479 366.894 339.755 364.371 336.797C359.606 331.188 350.773 324.62 344.85 319.984L344.83 319.964H344.799C344.411 319.776 344.065 319.609 343.667 319.401C321.071 308.688 296.045 286.193 288.686 278.25C288.551 278.089 288.407 277.927 288.272 277.787L288.226 277.734C288.226 277.734 288.04 277.948 287.652 278.365C285.962 280.047 280.359 284.818 267.227 289.521C267.015 289.589 266.787 289.682 266.549 289.755C267.294 298.162 262.017 305.635 254.569 309.156C250.801 310.948 243.953 311.807 239.886 309.578C238.563 308.828 237.064 306.828 236.645 305.125C236.578 304.823 236.526 304.516 236.526 304.214V304.198C236.459 302.099 237.55 299.839 238.196 297.302C238.242 297.135 238.289 296.953 238.335 296.787C238.981 293.781 240.325 289.542 241.064 286.146C241.157 285.609 241.271 285.099 241.364 284.589C241.803 281.953 242.108 279.323 242.15 276.667C242.222 272.359 245.369 269.052 248.698 266.354C257.557 259.156 272.545 252.234 279.274 249.281H279.295C281.424 248.349 282.742 247.813 282.768 247.813C291.766 242.922 302.754 247.953 311.566 250.818C322.068 254.24 332.772 258.13 342.147 264.094C342.762 264.484 343.434 264.745 344.158 264.833C345.822 265.162 347.672 264.813 349.311 264.255L349.523 264.188C354.355 262.484 365.756 257.287 372.098 254.333C374.801 253.078 376.584 252.234 376.584 252.234C438.527 270.146 409.879 328.599 409.879 328.599Z" fill="#FFC087"/>
<path d="M369.864 346.849C368.934 344.594 367.399 342.219 365.223 339.661C360.463 334.047 351.625 327.484 345.707 322.849L345.681 322.823H345.656C345.263 322.641 344.917 322.474 344.524 322.266C321.928 311.552 296.897 289.057 289.543 281.115C289.408 280.948 289.269 280.792 289.129 280.646L289.083 280.604C289.083 280.604 288.897 280.813 288.504 281.229C286.814 282.911 281.216 287.682 268.078 292.385C267.872 292.453 267.639 292.547 267.406 292.62C268.145 301.026 262.874 308.5 255.426 312.016C253.255 313.052 250.056 313.776 246.96 313.776C244.686 313.776 242.464 313.385 240.738 312.438C239.42 311.693 237.916 309.693 237.502 307.99C237.43 307.688 237.383 307.385 237.383 307.078V307.057L237.404 306.911C237.988 307.917 238.794 308.839 239.575 309.38C239.611 309.401 239.642 309.427 239.678 309.448C239.745 309.495 239.818 309.536 239.885 309.578C241.606 310.521 243.833 310.911 246.108 310.911C249.203 310.911 252.397 310.188 254.568 309.156C254.945 308.979 255.323 308.786 255.69 308.589C262.543 304.875 267.257 297.734 266.554 289.755C266.569 289.75 266.579 289.745 266.6 289.745C266.812 289.672 267.029 289.589 267.226 289.521C270.6 288.313 273.484 287.099 275.929 285.932C282.984 282.568 286.395 279.615 287.651 278.365C287.796 278.208 287.92 278.078 288.008 277.979C288.044 277.943 288.075 277.911 288.095 277.88C288.178 277.792 288.219 277.745 288.225 277.74L288.25 277.76L288.271 277.786C288.406 277.922 288.54 278.078 288.674 278.229C288.679 278.24 288.685 278.245 288.69 278.25C295.982 286.125 320.651 308.313 343.102 319.13C343.288 319.224 343.475 319.307 343.666 319.401C343.686 319.412 343.702 319.422 343.723 319.432C344.064 319.609 344.379 319.76 344.72 319.922C344.746 319.932 344.777 319.948 344.798 319.964H344.808C344.948 320.068 345.087 320.172 345.221 320.286C345.18 320.333 345.144 320.375 345.103 320.427L345.542 321.125C345.697 321.052 345.852 320.969 346.002 320.891C349.294 323.448 353.258 326.484 356.897 329.583C357.021 329.693 357.145 329.797 357.269 329.906C357.388 330.005 357.502 330.104 357.626 330.203C358.52 330.979 359.388 331.755 360.22 332.531C360.277 332.589 360.334 332.641 360.391 332.698C360.566 332.865 360.747 333.031 360.923 333.188C361.342 333.594 361.755 333.995 362.148 334.391C362.231 334.479 362.318 334.568 362.401 334.656C362.442 334.693 362.484 334.734 362.52 334.776C362.861 335.13 363.192 335.479 363.512 335.823C363.807 336.151 364.096 336.479 364.37 336.797C365.662 338.318 366.732 339.776 367.585 341.188C367.688 341.365 367.792 341.536 367.885 341.714C367.916 341.76 367.947 341.807 367.973 341.859C367.978 341.865 367.988 341.875 367.988 341.88C368.071 342.031 368.154 342.177 368.226 342.328C368.257 342.38 368.278 342.432 368.303 342.484C368.345 342.557 368.391 342.635 368.427 342.708C368.567 342.99 368.701 343.271 368.825 343.552C368.903 343.729 368.975 343.911 369.037 344.089C369.167 344.38 369.275 344.672 369.373 344.964C369.389 345 369.399 345.036 369.409 345.068L369.864 346.849Z" fill="#F29D66"/>
<path d="M344.85 319.984L344.829 319.964C344.431 319.776 344.064 319.609 343.671 319.401C344.385 318.677 345.01 317.865 345.589 317.026C346.607 315.49 347.439 313.833 348.158 312.109C349.615 308.734 350.7 305.099 350.814 301.401H351.047C351.858 303.287 351.951 305.359 351.765 307.318C351.579 309.318 351.026 311.203 350.287 313.042C349.475 314.839 348.483 316.583 347.067 318.073C346.421 318.771 345.682 319.448 344.85 319.984Z" fill="#FFB274"/>
<path d="M346.012 320.885C345.749 320.677 345.485 320.479 345.232 320.276C346.901 318.302 348.69 316.427 350.654 314.766C351.878 313.766 353.196 312.859 354.561 312.109C355.972 311.391 357.429 310.714 359.073 310.714L359.047 310.948C357.615 311.787 356.577 312.813 355.439 313.719C354.354 314.698 353.243 315.604 352.137 316.563C350.953 317.469 349.821 318.422 348.55 319.307C347.759 319.865 346.932 320.406 346.012 320.885Z" fill="#FFB274"/>
<path d="M337.33 270.729C337.841 269.656 338.792 268.844 339.686 268.073C340.591 267.307 341.562 266.604 342.539 265.927C343.066 265.557 343.62 265.188 344.157 264.839C344.596 264.922 345.051 264.964 345.511 264.964C346.788 264.964 348.106 264.661 349.31 264.255C347.232 265.094 345.149 265.953 343.113 266.932C342.074 267.443 341.009 267.958 340.012 268.563C339.04 269.167 338.001 269.75 337.33 270.729Z" fill="#FFB274"/>
<path d="M287.646 278.365C287.693 277.037 287.439 275.828 287.114 274.594C286.742 273.13 286.235 271.708 285.822 270.12C286.421 270.662 286.886 271.333 287.3 272.031C287.713 272.734 288.018 273.5 288.251 274.292C288.53 275.365 288.618 276.594 288.292 277.693L288.272 277.787L288.225 277.734V277.74C288.225 277.74 288.184 277.787 288.096 277.88C288.075 277.912 288.044 277.943 288.008 277.979C287.92 278.078 287.796 278.208 287.646 278.365Z" fill="#FFB274"/>
<path d="M239.187 304.411C238.335 304.411 237.446 304.349 236.526 304.224C236.526 304.224 236.526 304.219 236.526 304.214V304.198C236.51 303.63 236.577 303.052 236.691 302.464C236.862 301.615 237.146 300.74 237.435 299.823C237.699 299.01 237.973 298.172 238.195 297.302C238.242 297.135 238.288 296.953 238.335 296.786C238.505 296 238.722 295.13 238.96 294.208C239.322 292.849 239.735 291.38 240.123 289.932C240.469 288.625 240.805 287.333 241.063 286.146C241.157 285.615 241.27 285.104 241.363 284.594C242.278 284.276 243.229 284.094 244.154 284.094C245.591 284.094 246.971 284.536 248.067 285.594C250.661 288.135 251.054 293.026 250.268 296.333C248.961 301.719 244.852 304.411 239.187 304.411Z" fill="#FFB477"/>
<path d="M201.199 388.63C194.465 384.234 193.653 376.391 198.749 368.484C201.809 363.729 204.538 358.255 209.029 354.693C214.384 350.432 220.818 349.641 226.385 352.912C239.476 360.599 227.449 375.688 221.444 385.01C216.761 392.287 207.401 392.677 201.199 388.63Z" fill="#FEB87A"/>
<path d="M217.237 374.542C215.976 374.542 214.555 374.286 212.932 373.719C206.487 371.453 205.272 365.672 208.234 361.307C209.567 359.344 211.536 356.099 213.593 355.229C213.8 355.141 214.017 355.099 214.255 355.099C216.338 355.099 219.645 358.354 227.336 361.292C229.62 362.161 228.669 364.38 226.907 367.13C224.493 370.88 222.033 374.542 217.237 374.542Z" fill="#FEAD6C"/>
<path d="M229.76 400.813C223.397 396.589 219.898 388.714 223.987 381.635C226.095 377.979 228.204 374.328 230.323 370.672C231.486 368.656 233.098 366.115 234.561 364.344C240.014 357.745 245.849 357.172 251.519 360.646C258.346 364.823 260.537 373.552 255.865 381.63C254.666 383.698 253.472 385.771 252.273 387.844C250.521 390.875 248.774 393.901 247.022 396.932C242.939 404.005 236.122 405.031 229.76 400.813Z" fill="#FEB87A"/>
<path d="M244.252 383.26C242.759 383.26 241.084 382.839 239.229 381.849C233.388 378.745 234.179 374.302 236.262 369.792C237.27 367.615 239.203 363.688 241.255 363.068C241.399 363.026 241.549 363.005 241.71 363.005C243.803 363.005 247.183 366.682 254.077 370.75C255.99 371.88 254.47 373.688 252.971 376.609C251.25 379.953 248.444 383.26 244.252 383.26Z" fill="#FEAD6C"/>
<path d="M275.691 403.609C275.505 403.776 275.298 403.964 275.086 404.125C275.019 404.172 274.926 404.245 274.786 404.359C274.668 404.453 274.507 404.568 274.326 404.682C271.732 406.526 264.031 411.672 263.638 411.787C263.452 411.859 263.292 411.88 263.106 411.953C259.845 412.906 256.372 412.88 252.904 411.182C246.753 408.156 244.324 401.375 247.472 396.089L252.071 388.313L254.175 384.797C256.165 381.443 259.519 378.089 263.618 377.901C266.879 377.761 269.975 378.833 272.311 381.162C273.422 382.255 274.394 383.609 275.066 385.005C276.456 387.917 275.246 391.505 273.954 394.162C273.102 395.948 272.218 398.073 271.014 400L270.972 399.979C270.9 400.12 270.807 400.281 270.734 400.422L275.691 403.609Z" fill="#FEB87A"/>
<path d="M264.699 395.734C263.898 395.734 262.993 395.589 261.97 395.266C257.277 393.776 256.259 389.896 258.28 386.948C259.189 385.62 260.657 383 261.768 382.797C261.851 382.781 261.944 382.776 262.042 382.776C263.784 382.776 267.753 385.073 271.025 386.354C272.668 386.995 272.007 388.339 271.066 390.323C269.914 392.76 268.353 395.734 264.699 395.734Z" fill="#FEAD6C"/>
<path d="M263.638 411.787C266.274 408.948 267.845 406.078 270.734 400.422L275.691 403.609C275.686 403.615 275.686 403.615 275.681 403.62C275.5 403.776 275.293 403.964 275.086 404.125C275.019 404.172 274.926 404.245 274.786 404.359C274.667 404.453 274.507 404.568 274.326 404.682C271.732 406.526 264.031 411.672 263.638 411.787Z" fill="#FEAA69"/>
<mask id="mask1_166_266" style="mask-type:luminance" maskUnits="userSpaceOnUse" x="369" y="192" width="155" height="151">
<path d="M369.89 192.349H523.918V342.443H369.89V192.349Z" fill="white"/>
</mask>
<g mask="url(#mask1_166_266)">
<path d="M523.913 192.417L370.97 247.599C370.215 247.917 370.195 248.089 370.195 248.089C372.097 247.412 409.536 325.234 408.911 342.198L523.913 308.287V192.417Z" fill="#D4EEFF"/>
</g>
<mask id="mask2_166_266" style="mask-type:luminance" maskUnits="userSpaceOnUse" x="376" y="184" width="161" height="174">
<path d="M376.945 184.438H536.849V357.682H376.945V184.438Z" fill="white"/>
</mask>
<g mask="url(#mask2_166_266)">
<path d="M537.763 186.5V253.5V286V320.5L527.605 325.043L465.011 347.682L436.475 358C438.095 353.458 428.89 331.692 417.465 308.317C404.473 281.722 388.615 253.041 382.561 245.2C379.608 241.379 377.627 239.314 377.097 239.408H377.085L377.097 239.398L377.167 239.377C377.848 239.158 399.34 233.904 453.819 214.209C471.751 207.727 490.523 202.155 505.95 197.085C527.355 190.06 537.763 186.5 537.763 186.5Z" fill="#1F2F57"/>
</g>
<mask id="mask3_166_266" style="mask-type:luminance" maskUnits="userSpaceOnUse" x="412" y="266" width="125" height="92">
<path d="M412.209 266.104H536.85V297V357.682H412.209V266.104Z" fill="white"/>
</mask>
<g mask="url(#mask3_166_266)">
<path d="M431.649 357.537C431.77 357.188 431.833 356.734 431.833 356.193C431.833 352.896 429.659 346.162 426.17 337.537C422.733 329.037 418.016 318.703 412.832 308.031C424.856 304.328 444.295 297.964 472.978 287.526C490.722 281.063 509.297 275.51 524.567 270.464C528.938 269.016 533.061 267.651 536.844 266.406V319.24L521.851 324.698L459.894 347.255L431.649 357.537Z" fill="#1A274C"/>
</g>
<path d="M255.09 383.396L255.07 383.323L255.018 383.094C255.297 382.604 255.581 382.12 255.866 381.63C257.551 378.708 258.341 375.708 258.346 372.865C258.346 367.833 255.881 363.313 251.519 360.646C250.863 360.24 250.201 359.891 249.54 359.599C247.968 358.912 246.392 358.542 244.816 358.542C241.363 358.542 237.931 360.302 234.639 364.25C235.223 363.401 235.812 362.578 236.381 361.891C239.699 357.875 243.157 356.089 246.635 356.089C248.873 356.089 251.116 356.828 253.338 358.188C260.166 362.37 262.357 371.099 257.68 379.172C257.029 380.302 256.377 381.432 255.726 382.563C255.504 382.833 255.297 383.115 255.09 383.396Z" fill="#F29D66"/>
<path d="M229.099 372.786C231.001 369.135 232.355 365.406 232.252 361.99C232.252 361.969 232.252 361.948 232.252 361.927C232.252 361.922 232.252 361.917 232.252 361.911V361.906C232.252 361.901 232.252 361.896 232.252 361.891C232.252 361.891 232.252 361.891 232.252 361.885C232.252 361.88 232.252 361.875 232.252 361.87C232.252 361.87 232.246 361.865 232.246 361.859C232.246 361.859 232.246 361.854 232.246 361.849C232.246 361.849 232.246 361.844 232.246 361.839V361.833C232.246 361.828 232.246 361.828 232.246 361.823C232.246 361.818 232.246 361.818 232.246 361.813C232.246 361.802 232.246 361.786 232.241 361.776C232.241 361.776 232.241 361.776 232.241 361.771C232.241 361.766 232.241 361.766 232.241 361.76C232.241 361.755 232.241 361.755 232.241 361.755C232.241 361.75 232.241 361.745 232.241 361.74C232.066 358.365 230.437 355.313 226.442 352.948C226.442 352.948 226.442 352.943 226.437 352.943C226.432 352.938 226.432 352.938 226.427 352.938C226.422 352.932 226.422 352.927 226.416 352.927C226.411 352.927 226.411 352.927 226.406 352.922C226.401 352.917 226.391 352.917 226.385 352.911C224.07 351.552 221.61 350.896 219.145 350.896C215.661 350.896 212.162 352.198 209.03 354.693C207.748 355.708 206.611 356.88 205.567 358.146L205.552 358.135C207.082 355.938 208.772 353.88 210.849 352.234C213.981 349.745 217.48 348.443 220.959 348.443C223.429 348.443 225.894 349.099 228.205 350.458C235.358 354.661 235.012 361.073 232.241 367.542C231.544 368.615 230.877 369.703 230.324 370.672C229.91 371.38 229.507 372.083 229.099 372.786Z" fill="#F29D66"/>
<path d="M270.88 400.5L270.745 400.417C270.812 400.276 270.9 400.115 270.973 399.979L271.014 400C272.218 398.073 273.102 395.948 273.955 394.162C274.839 392.344 275.681 390.094 275.681 387.917C275.681 386.917 275.505 385.927 275.066 385.005C274.394 383.609 273.422 382.255 272.311 381.162C270.109 378.969 267.231 377.891 264.176 377.891C263.99 377.891 263.799 377.896 263.618 377.901C263.608 377.901 263.602 377.901 263.597 377.901C263.592 377.901 263.587 377.906 263.582 377.906H263.577C260.703 378.047 258.191 379.755 256.269 381.922C258.279 378.714 261.509 375.625 265.432 375.448C265.623 375.438 265.809 375.438 265.995 375.438C269.05 375.438 271.929 376.516 274.13 378.708C275.242 379.807 276.213 381.156 276.885 382.552C278.27 385.464 277.071 389.047 275.774 391.703C274.957 393.412 274.105 395.406 272.988 397.266C272.549 397.729 272.125 398.208 271.82 398.766C271.717 398.953 271.686 399.151 271.686 399.339C271.422 399.729 271.148 400.115 270.88 400.5Z" fill="#F29D66"/>
<path d="M181.617 248.719C169.254 306.901 156.188 338.917 150.591 344.495C150.477 344.604 150.312 344.641 150.162 344.589L140.125 341.25L139.619 341.068L139.376 340.979L103.812 328.25L103.693 328.208L64.5945 314.208L64.0673 314.021L39.4142 305.203L39.1351 305.104L27.8267 301.521V187.786L67.7989 202.495L67.9333 202.536L85.8417 209.453L85.9089 209.479L135.014 228.411L135.045 228.427L149.325 233.927V233.932L171.394 242.432L174.087 243.469L180.046 245.766C181.229 246.229 181.88 247.484 181.617 248.719Z" fill="#E8F2F2"/>
<mask id="mask4_166_266" style="mask-type:luminance" maskUnits="userSpaceOnUse" x="16" y="180" width="160" height="177">
<path d="M16.8696 180H175.973V356.349H16.8696V180Z" fill="white"/>
</mask>
<g mask="url(#mask4_166_266)">
<path d="M174.93 239.88C174.83 240.359 174.536 241.604 173.948 243.469C165.264 270.781 157.889 291.802 151.746 307.87C151.191 309.318 150.642 310.729 150.115 312.094C138.09 342.932 131.12 353.844 128.584 356.021C128.218 356.333 127.696 356.427 127.23 356.26C124.095 355.151 108.025 349.448 90.7506 342.859C76.2786 337.333 59.9366 330.974 46.308 325.641C36.8358 321.938 28.6842 318.729 23.3792 316.635C19.3062 315.026 16.9146 314.083 16.9146 314.083V180L64.5201 197.464L66.6621 198.281L67.2447 198.505L79.2307 203.099L79.819 203.323L81.5281 203.979L81.7556 204.073L81.9553 204.146L135.421 224.594L149.848 229.146L173.193 236.505C174.558 237.062 175.208 238.484 174.93 239.88Z" fill="#262525"/>
</g>
<path d="M129.391 356C129.227 356 129.069 355.979 128.911 355.922C125.727 354.819 109.406 349.148 91.861 342.596C77.1626 337.101 60.5648 330.778 46.723 325.474C37.1025 321.792 28.8234 318.601 23.4355 316.519C19.2987 314.919 16.8696 313.982 16.8696 313.982V259L153.811 307.803C153.247 309.243 152.689 310.646 152.154 312.003C147.008 324.91 142.781 334.305 139.417 341.022C134.778 350.262 131.78 354.431 130.287 355.684C130.039 355.891 129.717 356 129.391 356Z" fill="#1C1B1B"/>
<path d="M125.369 336.646C125.369 339.995 122.672 342.703 119.348 342.703C116.02 342.703 113.327 339.995 113.327 336.646C113.327 333.297 116.02 330.583 119.348 330.583C122.672 330.583 125.369 333.297 125.369 336.646Z" fill="#414042"/>
<path d="M120.098 336.438L120.914 334.995C121.064 334.734 120.971 334.391 120.708 334.245C120.449 334.089 120.108 334.182 119.963 334.448L119.142 335.891L117.71 335.068C117.446 334.917 117.116 335.011 116.96 335.271C116.816 335.542 116.904 335.875 117.167 336.026L118.604 336.849L117.782 338.292C117.632 338.557 117.725 338.896 117.984 339.047C118.118 339.12 118.268 339.136 118.402 339.099C118.537 339.057 118.656 338.974 118.733 338.839L119.55 337.396L120.987 338.219C121.116 338.297 121.266 338.313 121.4 338.276C121.534 338.24 121.659 338.146 121.731 338.016C121.886 337.75 121.793 337.412 121.529 337.266L120.098 336.438Z" fill="#262525"/>
<path d="M452.166 335.896C452.166 339.24 449.473 341.953 446.144 341.953C442.821 341.953 440.128 339.24 440.128 335.896C440.128 332.547 442.821 329.833 446.144 329.833C449.473 329.833 452.166 332.547 452.166 335.896Z" fill="#2A4075"/>
<path d="M446.894 335.688L447.715 334.245C447.865 333.979 447.772 333.646 447.509 333.49C447.245 333.344 446.909 333.432 446.764 333.698L445.943 335.141L444.511 334.318C444.247 334.167 443.911 334.255 443.762 334.521C443.612 334.787 443.705 335.125 443.968 335.276L445.4 336.099L444.583 337.542C444.433 337.802 444.521 338.146 444.785 338.292C444.914 338.37 445.064 338.386 445.204 338.349C445.338 338.313 445.457 338.219 445.534 338.089L446.351 336.646L447.783 337.469C447.917 337.547 448.062 337.563 448.196 337.526C448.336 337.484 448.454 337.396 448.532 337.266C448.682 337 448.589 336.662 448.325 336.511L446.894 335.688Z" fill="#1F2F57"/>
<path d="M277.656 222.208L280.08 191.74L275.366 193.396L277.656 222.208Z" fill="#19BACC"/>
<path d="M224.049 234.901L206.75 209.792L211.644 208.839L224.049 234.901Z" fill="#19BACC"/>
<path d="M330.192 237.776L346.344 214.328L343.32 210.172L330.192 237.776Z" fill="#19BACC"/>
<mask id="mask5_166_266" style="mask-type:luminance" maskUnits="userSpaceOnUse" x="269" y="435" width="6" height="32">
<path d="M269.386 435.016H274.679V466H269.386V435.016Z" fill="white"/>
</mask>
<g mask="url(#mask5_166_266)">
<path d="M272.074 435.552L274.492 466.011L269.779 464.354L272.074 435.552Z" fill="#19BACC"/>
</g>
<path d="M219.067 419.979L201.768 445.094L206.668 446.047L219.067 419.979Z" fill="#19BACC"/>
<path d="M325.251 422.849L341.402 446.297L338.384 450.453L325.251 422.849Z" fill="#19BACC"/>
</svg>
