<svg width="146" height="53" viewBox="0 0 146 53" fill="none" xmlns="http://www.w3.org/2000/svg">
<mask id="path-1-inside-1_119_250" fill="white">
<path d="M26.6729 49.2798H28.2911C28.6751 49.2798 28.9786 49.3615 29.2031 49.5251C29.426 49.6886 29.5391 49.9134 29.5391 50.1996C29.5391 50.4091 29.4791 50.5863 29.3609 50.731C29.246 50.8775 29.0883 50.9746 28.8877 51.024C29.1346 51.0649 29.3283 51.1705 29.4706 51.3374C29.6111 51.501 29.6831 51.7088 29.6831 51.9575C29.6831 52.276 29.5614 52.5264 29.3197 52.7069C29.0814 52.8841 28.7506 52.9727 28.3254 52.9727H26.6729V49.2798ZM27.3037 49.8317V50.806H28.2569C28.4574 50.806 28.6134 50.7634 28.7231 50.6765C28.8363 50.5914 28.8946 50.4704 28.8946 50.3154C28.8946 50.157 28.8363 50.0361 28.7231 49.9543C28.6134 49.8726 28.4574 49.8317 28.2569 49.8317H27.3037ZM27.3037 51.3579V52.4208H28.2569C28.5037 52.4208 28.6957 52.3765 28.8329 52.2845C28.97 52.1891 29.0386 52.0563 29.0386 51.8825C29.0386 51.719 28.97 51.5929 28.8329 51.501C28.6957 51.4056 28.5037 51.3579 28.2569 51.3579H27.3037Z"/>
</mask>
<path d="M26.6729 49.2798H28.2911C28.6751 49.2798 28.9786 49.3615 29.2031 49.5251C29.426 49.6886 29.5391 49.9134 29.5391 50.1996C29.5391 50.4091 29.4791 50.5863 29.3609 50.731C29.246 50.8775 29.0883 50.9746 28.8877 51.024C29.1346 51.0649 29.3283 51.1705 29.4706 51.3374C29.6111 51.501 29.6831 51.7088 29.6831 51.9575C29.6831 52.276 29.5614 52.5264 29.3197 52.7069C29.0814 52.8841 28.7506 52.9727 28.3254 52.9727H26.6729V49.2798ZM27.3037 49.8317V50.806H28.2569C28.4574 50.806 28.6134 50.7634 28.7231 50.6765C28.8363 50.5914 28.8946 50.4704 28.8946 50.3154C28.8946 50.157 28.8363 50.0361 28.7231 49.9543C28.6134 49.8726 28.4574 49.8317 28.2569 49.8317H27.3037ZM27.3037 51.3579V52.4208H28.2569C28.5037 52.4208 28.6957 52.3765 28.8329 52.2845C28.97 52.1891 29.0386 52.0563 29.0386 51.8825C29.0386 51.719 28.97 51.5929 28.8329 51.501C28.6957 51.4056 28.5037 51.3579 28.2569 51.3579H27.3037Z" fill="#FCF5DB"/>
<path d="M26.6729 49.2798V47.9465H25.3395V49.2798H26.6729ZM29.2031 49.5251L29.9919 48.4501L29.988 48.4472L29.2031 49.5251ZM29.3609 50.731L28.3283 49.8875L28.3198 49.8978L28.3116 49.9083L29.3609 50.731ZM28.8877 51.024L28.5689 49.7294L28.6699 52.3394L28.8877 51.024ZM29.4706 51.3374L28.4558 52.2024L28.4595 52.2066L29.4706 51.3374ZM29.3197 52.7069L30.1152 53.777L30.1176 53.7751L29.3197 52.7069ZM26.6729 52.9727H25.3395V54.306H26.6729V52.9727ZM27.3037 49.8317V48.4983H25.9704V49.8317H27.3037ZM27.3037 50.806H25.9704V52.1393H27.3037V50.806ZM28.7231 50.6765L27.9213 49.6113L27.9082 49.6211L27.8955 49.6312L28.7231 50.6765ZM28.7231 49.9543L27.9264 51.0234L27.9343 51.0293L27.9422 51.035L28.7231 49.9543ZM27.3037 51.3579V50.0245H25.9704V51.3579H27.3037ZM27.3037 52.4208H25.9704V53.7541H27.3037V52.4208ZM28.8329 52.2845L29.5755 53.3918L29.5849 53.3856L29.5942 53.3791L28.8329 52.2845ZM28.8329 51.501L28.0715 52.5956L28.0808 52.602L28.0902 52.6083L28.8329 51.501ZM26.6729 50.6131H28.2911V47.9465H26.6729V50.6131ZM28.2911 50.6131C28.3908 50.6131 28.4431 50.624 28.4605 50.6286C28.4751 50.6326 28.4542 50.6291 28.4183 50.6029L29.988 48.4472C29.4633 48.0652 28.8526 47.9465 28.2911 47.9465V50.6131ZM28.4144 50.6001C28.3733 50.5699 28.3101 50.5086 28.2619 50.4121C28.2142 50.3165 28.2058 50.236 28.2058 50.1996H30.8725C30.8725 49.5003 30.5662 48.8715 29.9919 48.4501L28.4144 50.6001ZM28.2058 50.1996C28.2058 50.1761 28.2094 50.1276 28.2306 50.0646C28.2523 49.9999 28.2864 49.9388 28.3283 49.8875L30.3934 51.5746C30.7273 51.1659 30.8725 50.6815 30.8725 50.1996H28.2058ZM28.3116 49.9083C28.3511 49.858 28.4008 49.8135 28.4552 49.7799C28.508 49.7472 28.5503 49.734 28.5689 49.7294L29.2066 52.3187C29.6592 52.2072 30.089 51.9633 30.4101 51.5537L28.3116 49.9083ZM28.6699 52.3394C28.6653 52.3387 28.6324 52.3323 28.5852 52.3069C28.5362 52.2804 28.4911 52.2437 28.4558 52.2024L30.4853 50.4725C30.1153 50.0385 29.6251 49.7946 29.1055 49.7086L28.6699 52.3394ZM28.4595 52.2066C28.4184 52.1589 28.3874 52.1035 28.3687 52.049C28.3507 51.9966 28.3498 51.9623 28.3498 51.9575H31.0165C31.0165 51.4367 30.8588 50.9069 30.4817 50.4683L28.4595 52.2066ZM28.3498 51.9575C28.3498 51.9441 28.3533 51.8827 28.3925 51.8019C28.4328 51.7188 28.4869 51.6648 28.5218 51.6387L30.1176 53.7751C30.7166 53.3278 31.0165 52.6706 31.0165 51.9575H28.3498ZM28.5242 51.6369C28.5594 51.6108 28.5757 51.6108 28.5482 51.6181C28.5179 51.6262 28.4482 51.6393 28.3254 51.6393V54.306C28.9182 54.306 29.567 54.1845 30.1152 53.777L28.5242 51.6369ZM28.3254 51.6393H26.6729V54.306H28.3254V51.6393ZM28.0062 52.9727V49.2798H25.3395V52.9727H28.0062ZM25.9704 49.8317V50.806H28.637V49.8317H25.9704ZM27.3037 52.1393H28.2569V49.4727H27.3037V52.1393ZM28.2569 52.1393C28.6239 52.1393 29.1185 52.0642 29.5508 51.7219L27.8955 49.6312C28.1084 49.4626 28.2909 49.4727 28.2569 49.4727V52.1393ZM29.525 51.7418C30.0009 51.3835 30.2279 50.8527 30.2279 50.3154H27.5612C27.5612 50.2237 27.5792 50.0921 27.6476 49.9486C27.7175 49.802 27.8181 49.6889 27.9213 49.6113L29.525 51.7418ZM30.2279 50.3154C30.2279 49.786 30.0079 49.2377 29.5041 48.8736L27.9422 51.035C27.8272 50.9519 27.7201 50.8318 27.6476 50.6797C27.5774 50.5324 27.5612 50.4006 27.5612 50.3154H30.2279ZM29.5199 48.8852C29.0941 48.5679 28.6148 48.4983 28.2569 48.4983V51.165C28.2698 51.165 28.2414 51.1667 28.1852 51.1519C28.1268 51.1365 28.0309 51.1013 27.9264 51.0234L29.5199 48.8852ZM28.2569 48.4983H27.3037V51.165H28.2569V48.4983ZM25.9704 51.3579V52.4208H28.637V51.3579H25.9704ZM27.3037 53.7541H28.2569V51.0874H27.3037V53.7541ZM28.2569 53.7541C28.6358 53.7541 29.1298 53.6908 29.5755 53.3918L28.0902 51.1772C28.1794 51.1173 28.2524 51.0959 28.2808 51.0892C28.3077 51.0829 28.3039 51.0874 28.2569 51.0874V53.7541ZM29.5942 53.3791C30.1022 53.0257 30.3719 52.4772 30.3719 51.8825H27.7052C27.7052 51.7904 27.7246 51.6529 27.8007 51.5045C27.8776 51.3545 27.9825 51.2518 28.0715 51.1899L29.5942 53.3791ZM30.3719 51.8825C30.3719 51.2637 30.0727 50.7271 29.5755 50.3936L28.0902 52.6083C28.0068 52.5524 27.8975 52.4532 27.8141 52.2988C27.7301 52.1432 27.7052 51.9927 27.7052 51.8825H30.3719ZM29.5942 50.4064C29.1502 50.0975 28.6526 50.0245 28.2569 50.0245V52.6912C28.2974 52.6912 28.2959 52.6954 28.2646 52.6877C28.2314 52.6794 28.1583 52.6559 28.0715 52.5956L29.5942 50.4064ZM28.2569 50.0245H27.3037V52.6912H28.2569V50.0245Z" fill="#FCF5DB" mask="url(#path-1-inside-1_119_250)"/>
<mask id="path-3-inside-2_119_250" fill="white">
<path d="M33.9785 52.9727H33.3477V49.2798H33.9785V52.9727Z"/>
</mask>
<path d="M33.9785 52.9727H33.3477V49.2798H33.9785V52.9727Z" fill="#FCF5DB"/>
<path d="M33.9785 52.9727V54.306H35.3118V52.9727H33.9785ZM33.3477 52.9727H32.0143V54.306H33.3477V52.9727ZM33.3477 49.2798V47.9465H32.0143V49.2798H33.3477ZM33.9785 49.2798H35.3118V47.9465H33.9785V49.2798ZM33.9785 51.6393H33.3477V54.306H33.9785V51.6393ZM34.681 52.9727V49.2798H32.0143V52.9727H34.681ZM33.3477 50.6131H33.9785V47.9465H33.3477V50.6131ZM32.6452 49.2798V52.9727H35.3118V49.2798H32.6452Z" fill="#FCF5DB" mask="url(#path-3-inside-2_119_250)"/>
<mask id="path-5-inside-3_119_250" fill="white">
<path d="M41.0374 49.2798V51.4396C41.0374 51.9217 40.8934 52.3032 40.6054 52.5843C40.3208 52.8619 39.9282 52.9999 39.4259 52.9999C38.9219 52.9999 38.5242 52.8619 38.2328 52.5843C37.9448 52.3032 37.8008 51.9217 37.8008 51.4396V49.2798H38.4316V51.4396C38.4316 51.7496 38.5208 51.9949 38.6991 52.1755C38.8774 52.3526 39.1208 52.4412 39.4328 52.4412C39.7345 52.4412 39.9711 52.3526 40.1459 52.1755C40.3242 51.9983 40.4134 51.7531 40.4134 51.4396V49.2798H41.0374Z"/>
</mask>
<path d="M41.0374 49.2798V51.4396C41.0374 51.9217 40.8934 52.3032 40.6054 52.5843C40.3208 52.8619 39.9282 52.9999 39.4259 52.9999C38.9219 52.9999 38.5242 52.8619 38.2328 52.5843C37.9448 52.3032 37.8008 51.9217 37.8008 51.4396V49.2798H38.4316V51.4396C38.4316 51.7496 38.5208 51.9949 38.6991 52.1755C38.8774 52.3526 39.1208 52.4412 39.4328 52.4412C39.7345 52.4412 39.9711 52.3526 40.1459 52.1755C40.3242 51.9983 40.4134 51.7531 40.4134 51.4396V49.2798H41.0374Z" fill="#FCF5DB"/>
<path d="M41.0374 49.2798H42.3707V47.9465H41.0374V49.2798ZM40.6054 52.5843L41.5365 53.5386L41.5366 53.5385L40.6054 52.5843ZM38.2328 52.5843L37.3016 53.5385L37.3073 53.5441L37.3131 53.5497L38.2328 52.5843ZM37.8008 49.2798V47.9465H36.4674V49.2798H37.8008ZM38.4316 49.2798H39.765V47.9465H38.4316V49.2798ZM38.6991 52.1755L37.7503 53.1124L37.7593 53.1213L38.6991 52.1755ZM40.1459 52.1755L39.2061 51.2296L39.197 51.2388L40.1459 52.1755ZM40.4134 49.2798V47.9465H39.08V49.2798H40.4134ZM39.704 49.2798V51.4396H42.3707V49.2798H39.704ZM39.704 51.4396C39.704 51.5485 39.6878 51.6009 39.6819 51.6165C39.6778 51.6275 39.6767 51.6275 39.6741 51.63L41.5366 53.5385C42.1317 52.9578 42.3707 52.2045 42.3707 51.4396H39.704ZM39.6742 51.6299C39.6739 51.6302 39.6744 51.6299 39.6741 51.6301C39.6736 51.6304 39.668 51.6338 39.6544 51.6386C39.6263 51.6485 39.5567 51.6666 39.4259 51.6666V54.3332C40.1787 54.3332 40.9409 54.1197 41.5365 53.5386L39.6742 51.6299ZM39.4259 51.6666C39.2941 51.6666 39.2208 51.6484 39.1878 51.637C39.1597 51.6272 39.1538 51.6202 39.1525 51.6189L37.3131 53.5497C37.9122 54.1204 38.672 54.3332 39.4259 54.3332V51.6666ZM39.164 51.63C39.1614 51.6275 39.1604 51.6275 39.1562 51.6165C39.1503 51.6009 39.1341 51.5485 39.1341 51.4396H36.4674C36.4674 52.2045 36.7064 52.9578 37.3016 53.5385L39.164 51.63ZM39.1341 51.4396V49.2798H36.4674V51.4396H39.1341ZM37.8008 50.6131H38.4316V47.9465H37.8008V50.6131ZM37.0983 49.2798V51.4396H39.765V49.2798H37.0983ZM37.0983 51.4396C37.0983 52.0178 37.2731 52.629 37.7503 53.1123L39.6478 51.2387C39.6975 51.289 39.7325 51.3481 39.7516 51.4007C39.769 51.4486 39.765 51.4678 39.765 51.4396H37.0983ZM37.7593 53.1213C38.2433 53.6022 38.8562 53.7745 39.4328 53.7745V51.1079C39.4018 51.1079 39.421 51.1034 39.4703 51.1213C39.5248 51.1411 39.5864 51.1775 39.6389 51.2297L37.7593 53.1213ZM39.4328 53.7745C40.0127 53.7745 40.6193 53.5939 41.0949 53.1121L39.197 51.2388C39.2478 51.1874 39.3104 51.1481 39.3709 51.1255C39.4265 51.1048 39.4539 51.1079 39.4328 51.1079V53.7745ZM41.0857 53.1213C41.5749 52.6353 41.7467 52.0153 41.7467 51.4396H39.08C39.08 51.4714 39.0754 51.4526 39.0934 51.4032C39.1132 51.3486 39.1506 51.2848 39.2061 51.2297L41.0857 53.1213ZM41.7467 51.4396V49.2798H39.08V51.4396H41.7467ZM40.4134 50.6131H41.0374V47.9465H40.4134V50.6131Z" fill="#FCF5DB" mask="url(#path-5-inside-3_119_250)"/>
<mask id="path-7-inside-4_119_250" fill="white">
<path d="M47.2173 52.9727L46.5384 51.8553C46.5007 51.8553 46.4441 51.8553 46.367 51.8553H45.4893V52.9727H44.8584V49.2798H46.367C46.8418 49.2798 47.2104 49.3888 47.471 49.6068C47.735 49.8249 47.8687 50.1366 47.8687 50.5403C47.8687 50.8367 47.8018 51.0853 47.6698 51.2897C47.5361 51.4941 47.3475 51.644 47.1007 51.7394L47.9304 52.9727H47.2173ZM45.4893 51.2966H46.367C46.9704 51.2966 47.2721 51.0496 47.2721 50.5539C47.2721 50.077 46.9704 49.8385 46.367 49.8385H45.4893V51.2966Z"/>
</mask>
<path d="M47.2173 52.9727L46.5384 51.8553C46.5007 51.8553 46.4441 51.8553 46.367 51.8553H45.4893V52.9727H44.8584V49.2798H46.367C46.8418 49.2798 47.2104 49.3888 47.471 49.6068C47.735 49.8249 47.8687 50.1366 47.8687 50.5403C47.8687 50.8367 47.8018 51.0853 47.6698 51.2897C47.5361 51.4941 47.3475 51.644 47.1007 51.7394L47.9304 52.9727H47.2173ZM45.4893 51.2966H46.367C46.9704 51.2966 47.2721 51.0496 47.2721 50.5539C47.2721 50.077 46.9704 49.8385 46.367 49.8385H45.4893V51.2966Z" fill="#FCF5DB"/>
<path d="M47.2173 52.9727L46.0777 53.665L46.4672 54.306H47.2173V52.9727ZM46.5384 51.8553L47.6779 51.163L47.2885 50.5219H46.5384V51.8553ZM45.4893 51.8553V50.5219H44.1559V51.8553H45.4893ZM45.4893 52.9727V54.306H46.8226V52.9727H45.4893ZM44.8584 52.9727H43.5251V54.306H44.8584V52.9727ZM44.8584 49.2798V47.9465H43.5251V49.2798H44.8584ZM47.471 49.6068L46.6153 50.6294L46.6219 50.6349L47.471 49.6068ZM47.6698 51.2897L48.7856 52.0197L48.7899 52.0131L47.6698 51.2897ZM47.1007 51.7394L46.6201 50.4957L45.062 51.0978L45.9944 52.4837L47.1007 51.7394ZM47.9304 52.9727V54.306H50.4345L49.0367 52.2284L47.9304 52.9727ZM45.4893 51.2966H44.1559V52.6299H45.4893V51.2966ZM45.4893 49.8385V48.5052H44.1559V49.8385H45.4893ZM48.3568 52.2804L47.6779 51.163L45.3989 52.5476L46.0777 53.665L48.3568 52.2804ZM46.5384 50.5219C46.5383 50.5219 46.5383 50.5219 46.5382 50.5219C46.5381 50.5219 46.538 50.5219 46.538 50.5219C46.5379 50.5219 46.5378 50.5219 46.5377 50.5219C46.5377 50.5219 46.5376 50.5219 46.5375 50.5219C46.5374 50.5219 46.5374 50.5219 46.5373 50.5219C46.5372 50.5219 46.5371 50.5219 46.5371 50.5219C46.537 50.5219 46.5369 50.5219 46.5368 50.5219C46.5368 50.5219 46.5367 50.5219 46.5366 50.5219C46.5365 50.5219 46.5365 50.5219 46.5364 50.5219C46.5363 50.5219 46.5362 50.5219 46.5362 50.5219C46.5361 50.5219 46.536 50.5219 46.5359 50.5219C46.5359 50.5219 46.5358 50.5219 46.5357 50.5219C46.5356 50.5219 46.5356 50.5219 46.5355 50.5219C46.5354 50.5219 46.5353 50.5219 46.5353 50.5219C46.5352 50.5219 46.5351 50.5219 46.535 50.5219C46.535 50.5219 46.5349 50.5219 46.5348 50.5219C46.5347 50.5219 46.5347 50.5219 46.5346 50.5219C46.5345 50.5219 46.5344 50.5219 46.5344 50.5219C46.5343 50.5219 46.5342 50.5219 46.5341 50.5219C46.534 50.5219 46.534 50.5219 46.5339 50.5219C46.5338 50.5219 46.5337 50.5219 46.5337 50.5219C46.5336 50.5219 46.5335 50.5219 46.5334 50.5219C46.5334 50.5219 46.5333 50.5219 46.5332 50.5219C46.5331 50.5219 46.533 50.5219 46.533 50.5219C46.5329 50.5219 46.5328 50.5219 46.5327 50.5219C46.5327 50.5219 46.5326 50.5219 46.5325 50.5219C46.5324 50.5219 46.5324 50.5219 46.5323 50.5219C46.5322 50.5219 46.5321 50.5219 46.532 50.5219C46.532 50.5219 46.5319 50.5219 46.5318 50.5219C46.5317 50.5219 46.5317 50.5219 46.5316 50.5219C46.5315 50.5219 46.5314 50.5219 46.5313 50.5219C46.5313 50.5219 46.5312 50.5219 46.5311 50.5219C46.531 50.5219 46.5309 50.5219 46.5309 50.5219C46.5308 50.5219 46.5307 50.5219 46.5306 50.5219C46.5306 50.5219 46.5305 50.5219 46.5304 50.5219C46.5303 50.5219 46.5302 50.5219 46.5302 50.5219C46.5301 50.5219 46.53 50.5219 46.5299 50.5219C46.5298 50.5219 46.5298 50.5219 46.5297 50.5219C46.5296 50.5219 46.5295 50.5219 46.5295 50.5219C46.5294 50.5219 46.5293 50.5219 46.5292 50.5219C46.5291 50.5219 46.5291 50.5219 46.529 50.5219C46.5289 50.5219 46.5288 50.5219 46.5287 50.5219C46.5287 50.5219 46.5286 50.5219 46.5285 50.5219C46.5284 50.5219 46.5283 50.5219 46.5283 50.5219C46.5282 50.5219 46.5281 50.5219 46.528 50.5219C46.5279 50.5219 46.5279 50.5219 46.5278 50.5219C46.5277 50.5219 46.5276 50.5219 46.5275 50.5219C46.5275 50.5219 46.5274 50.5219 46.5273 50.5219C46.5272 50.5219 46.5271 50.5219 46.5271 50.5219C46.527 50.5219 46.5269 50.5219 46.5268 50.5219C46.5267 50.5219 46.5266 50.5219 46.5266 50.5219C46.5265 50.5219 46.5264 50.5219 46.5263 50.5219C46.5262 50.5219 46.5262 50.5219 46.5261 50.5219C46.526 50.5219 46.5259 50.5219 46.5258 50.5219C46.5258 50.5219 46.5257 50.5219 46.5256 50.5219C46.5255 50.5219 46.5254 50.5219 46.5253 50.5219C46.5253 50.5219 46.5252 50.5219 46.5251 50.5219C46.525 50.5219 46.5249 50.5219 46.5249 50.5219C46.5248 50.5219 46.5247 50.5219 46.5246 50.5219C46.5245 50.5219 46.5244 50.5219 46.5244 50.5219C46.5243 50.5219 46.5242 50.5219 46.5241 50.5219C46.524 50.5219 46.5239 50.5219 46.5239 50.5219C46.5238 50.5219 46.5237 50.5219 46.5236 50.5219C46.5235 50.5219 46.5235 50.5219 46.5234 50.5219C46.5233 50.5219 46.5232 50.5219 46.5231 50.5219C46.523 50.5219 46.523 50.5219 46.5229 50.5219C46.5228 50.5219 46.5227 50.5219 46.5226 50.5219C46.5225 50.5219 46.5225 50.5219 46.5224 50.5219C46.5223 50.5219 46.5222 50.5219 46.5221 50.5219C46.522 50.5219 46.522 50.5219 46.5219 50.5219C46.5218 50.5219 46.5217 50.5219 46.5216 50.5219C46.5215 50.5219 46.5214 50.5219 46.5214 50.5219C46.5213 50.5219 46.5212 50.5219 46.5211 50.5219C46.521 50.5219 46.5209 50.5219 46.5209 50.5219C46.5208 50.5219 46.5207 50.5219 46.5206 50.5219C46.5205 50.5219 46.5204 50.5219 46.5204 50.5219C46.5203 50.5219 46.5202 50.5219 46.5201 50.5219C46.52 50.5219 46.5199 50.5219 46.5198 50.5219C46.5198 50.5219 46.5197 50.5219 46.5196 50.5219C46.5195 50.5219 46.5194 50.5219 46.5193 50.5219C46.5192 50.5219 46.5192 50.5219 46.5191 50.5219C46.519 50.5219 46.5189 50.5219 46.5188 50.5219C46.5187 50.5219 46.5186 50.5219 46.5186 50.5219C46.5185 50.5219 46.5184 50.5219 46.5183 50.5219C46.5182 50.5219 46.5181 50.5219 46.518 50.5219C46.518 50.5219 46.5179 50.5219 46.5178 50.5219C46.5177 50.5219 46.5176 50.5219 46.5175 50.5219C46.5174 50.5219 46.5174 50.5219 46.5173 50.5219C46.5172 50.5219 46.5171 50.5219 46.517 50.5219C46.5169 50.5219 46.5168 50.5219 46.5168 50.5219C46.5167 50.5219 46.5166 50.5219 46.5165 50.5219C46.5164 50.5219 46.5163 50.5219 46.5162 50.5219C46.5161 50.5219 46.5161 50.5219 46.516 50.5219C46.5159 50.5219 46.5158 50.5219 46.5157 50.5219C46.5156 50.5219 46.5155 50.5219 46.5154 50.5219C46.5154 50.5219 46.5153 50.5219 46.5152 50.5219C46.5151 50.5219 46.515 50.5219 46.5149 50.5219C46.5148 50.5219 46.5147 50.5219 46.5147 50.5219C46.5146 50.5219 46.5145 50.5219 46.5144 50.5219C46.5143 50.5219 46.5142 50.5219 46.5141 50.5219C46.514 50.5219 46.514 50.5219 46.5139 50.5219C46.5138 50.5219 46.5137 50.5219 46.5136 50.5219C46.5135 50.5219 46.5134 50.5219 46.5133 50.5219C46.5132 50.5219 46.5132 50.5219 46.5131 50.5219C46.513 50.5219 46.5129 50.5219 46.5128 50.5219C46.5127 50.5219 46.5126 50.5219 46.5125 50.5219C46.5124 50.5219 46.5124 50.5219 46.5123 50.5219C46.5122 50.5219 46.5121 50.5219 46.512 50.5219C46.5119 50.5219 46.5118 50.5219 46.5117 50.5219C46.5116 50.5219 46.5116 50.5219 46.5115 50.5219C46.5114 50.5219 46.5113 50.5219 46.5112 50.5219C46.5111 50.5219 46.511 50.5219 46.5109 50.5219C46.5108 50.5219 46.5107 50.5219 46.5107 50.5219C46.5106 50.5219 46.5105 50.5219 46.5104 50.5219C46.5103 50.5219 46.5102 50.5219 46.5101 50.5219C46.51 50.5219 46.5099 50.5219 46.5098 50.5219C46.5098 50.5219 46.5097 50.5219 46.5096 50.5219C46.5095 50.5219 46.5094 50.5219 46.5093 50.5219C46.5092 50.5219 46.5091 50.5219 46.509 50.5219C46.5089 50.5219 46.5088 50.5219 46.5088 50.5219C46.5087 50.5219 46.5086 50.5219 46.5085 50.5219C46.5084 50.5219 46.5083 50.5219 46.5082 50.5219C46.5081 50.5219 46.508 50.5219 46.5079 50.5219C46.5078 50.5219 46.5077 50.5219 46.5077 50.5219C46.5076 50.5219 46.5075 50.5219 46.5074 50.5219C46.5073 50.5219 46.5072 50.5219 46.5071 50.5219C46.507 50.5219 46.5069 50.5219 46.5068 50.5219C46.5067 50.5219 46.5066 50.5219 46.5066 50.5219C46.5065 50.5219 46.5064 50.5219 46.5063 50.5219C46.5062 50.5219 46.5061 50.5219 46.506 50.5219C46.5059 50.5219 46.5058 50.5219 46.5057 50.5219C46.5056 50.5219 46.5055 50.5219 46.5054 50.5219C46.5053 50.5219 46.5053 50.5219 46.5052 50.5219C46.5051 50.5219 46.505 50.5219 46.5049 50.5219C46.5048 50.5219 46.5047 50.5219 46.5046 50.5219C46.5045 50.5219 46.5044 50.5219 46.5043 50.5219C46.5042 50.5219 46.5041 50.5219 46.504 50.5219C46.5039 50.5219 46.5039 50.5219 46.5038 50.5219C46.5037 50.5219 46.5036 50.5219 46.5035 50.5219C46.5034 50.5219 46.5033 50.5219 46.5032 50.5219C46.5031 50.5219 46.503 50.5219 46.5029 50.5219C46.5028 50.5219 46.5027 50.5219 46.5026 50.5219C46.5025 50.5219 46.5024 50.5219 46.5023 50.5219C46.5023 50.5219 46.5022 50.5219 46.5021 50.5219C46.502 50.5219 46.5019 50.5219 46.5018 50.5219C46.5017 50.5219 46.5016 50.5219 46.5015 50.5219C46.5014 50.5219 46.5013 50.5219 46.5012 50.5219C46.5011 50.5219 46.501 50.5219 46.5009 50.5219C46.5008 50.5219 46.5007 50.5219 46.5006 50.5219C46.5005 50.5219 46.5004 50.5219 46.5004 50.5219C46.5003 50.5219 46.5002 50.5219 46.5001 50.5219C46.5 50.5219 46.4999 50.5219 46.4998 50.5219C46.4997 50.5219 46.4996 50.5219 46.4995 50.5219C46.4994 50.5219 46.4993 50.5219 46.4992 50.5219C46.4991 50.5219 46.499 50.5219 46.4989 50.5219C46.4988 50.5219 46.4987 50.5219 46.4986 50.5219C46.4985 50.5219 46.4984 50.5219 46.4983 50.5219C46.4982 50.5219 46.4981 50.5219 46.498 50.5219C46.4979 50.5219 46.4979 50.5219 46.4978 50.5219C46.4977 50.5219 46.4976 50.5219 46.4975 50.5219C46.4974 50.5219 46.4973 50.5219 46.4972 50.5219C46.4971 50.5219 46.497 50.5219 46.4969 50.5219C46.4968 50.5219 46.4967 50.5219 46.4966 50.5219C46.4965 50.5219 46.4964 50.5219 46.4963 50.5219C46.4962 50.5219 46.4961 50.5219 46.496 50.5219C46.4959 50.5219 46.4958 50.5219 46.4957 50.5219C46.4956 50.5219 46.4955 50.5219 46.4954 50.5219C46.4953 50.5219 46.4952 50.5219 46.4951 50.5219C46.495 50.5219 46.4949 50.5219 46.4948 50.5219C46.4947 50.5219 46.4946 50.5219 46.4945 50.5219C46.4944 50.5219 46.4943 50.5219 46.4942 50.5219C46.4941 50.5219 46.494 50.5219 46.4939 50.5219C46.4938 50.5219 46.4937 50.5219 46.4936 50.5219C46.4935 50.5219 46.4934 50.5219 46.4933 50.5219C46.4932 50.5219 46.4931 50.5219 46.493 50.5219C46.4929 50.5219 46.4929 50.5219 46.4928 50.5219C46.4927 50.5219 46.4926 50.5219 46.4925 50.5219C46.4924 50.5219 46.4923 50.5219 46.4922 50.5219C46.4921 50.5219 46.492 50.5219 46.4919 50.5219C46.4918 50.5219 46.4917 50.5219 46.4916 50.5219C46.4915 50.5219 46.4914 50.5219 46.4913 50.5219C46.4912 50.5219 46.4911 50.5219 46.491 50.5219C46.4909 50.5219 46.4908 50.5219 46.4907 50.5219C46.4906 50.5219 46.4905 50.5219 46.4904 50.5219C46.4903 50.5219 46.4902 50.5219 46.49 50.5219C46.4899 50.5219 46.4898 50.5219 46.4897 50.5219C46.4896 50.5219 46.4895 50.5219 46.4894 50.5219C46.4893 50.5219 46.4892 50.5219 46.4891 50.5219C46.489 50.5219 46.4889 50.5219 46.4888 50.5219C46.4887 50.5219 46.4886 50.5219 46.4885 50.5219C46.4884 50.5219 46.4883 50.5219 46.4882 50.5219C46.4881 50.5219 46.488 50.5219 46.4879 50.5219C46.4878 50.5219 46.4877 50.5219 46.4876 50.5219C46.4875 50.5219 46.4874 50.5219 46.4873 50.5219C46.4872 50.5219 46.4871 50.5219 46.487 50.5219C46.4869 50.5219 46.4868 50.5219 46.4867 50.5219C46.4866 50.5219 46.4865 50.5219 46.4864 50.5219C46.4863 50.5219 46.4862 50.5219 46.4861 50.5219C46.486 50.5219 46.4859 50.5219 46.4858 50.5219C46.4857 50.5219 46.4856 50.5219 46.4855 50.5219C46.4854 50.5219 46.4853 50.5219 46.4852 50.5219C46.4851 50.5219 46.485 50.5219 46.4848 50.5219C46.4847 50.5219 46.4846 50.5219 46.4845 50.5219C46.4844 50.5219 46.4843 50.5219 46.4842 50.5219C46.4841 50.5219 46.484 50.5219 46.4839 50.5219C46.4838 50.5219 46.4837 50.5219 46.4836 50.5219C46.4835 50.5219 46.4834 50.5219 46.4833 50.5219C46.4832 50.5219 46.4831 50.5219 46.483 50.5219C46.4829 50.5219 46.4828 50.5219 46.4827 50.5219C46.4826 50.5219 46.4825 50.5219 46.4824 50.5219C46.4823 50.5219 46.4821 50.5219 46.482 50.5219C46.4819 50.5219 46.4818 50.5219 46.4817 50.5219C46.4816 50.5219 46.4815 50.5219 46.4814 50.5219C46.4813 50.5219 46.4812 50.5219 46.4811 50.5219C46.481 50.5219 46.4809 50.5219 46.4808 50.5219C46.4807 50.5219 46.4806 50.5219 46.4805 50.5219C46.4804 50.5219 46.4803 50.5219 46.4802 50.5219C46.48 50.5219 46.4799 50.5219 46.4798 50.5219C46.4797 50.5219 46.4796 50.5219 46.4795 50.5219C46.4794 50.5219 46.4793 50.5219 46.4792 50.5219C46.4791 50.5219 46.479 50.5219 46.4789 50.5219C46.4788 50.5219 46.4787 50.5219 46.4786 50.5219C46.4785 50.5219 46.4784 50.5219 46.4782 50.5219C46.4781 50.5219 46.478 50.5219 46.4779 50.5219C46.4778 50.5219 46.4777 50.5219 46.4776 50.5219C46.4775 50.5219 46.4774 50.5219 46.4773 50.5219C46.4772 50.5219 46.4771 50.5219 46.477 50.5219C46.4769 50.5219 46.4768 50.5219 46.4766 50.5219C46.4765 50.5219 46.4764 50.5219 46.4763 50.5219C46.4762 50.5219 46.4761 50.5219 46.476 50.5219C46.4759 50.5219 46.4758 50.5219 46.4757 50.5219C46.4756 50.5219 46.4755 50.5219 46.4754 50.5219C46.4752 50.5219 46.4751 50.5219 46.475 50.5219C46.4749 50.5219 46.4748 50.5219 46.4747 50.5219C46.4746 50.5219 46.4745 50.5219 46.4744 50.5219C46.4743 50.5219 46.4742 50.5219 46.4741 50.5219C46.474 50.5219 46.4738 50.5219 46.4737 50.5219C46.4736 50.5219 46.4735 50.5219 46.4734 50.5219C46.4733 50.5219 46.4732 50.5219 46.4731 50.5219C46.473 50.5219 46.4729 50.5219 46.4728 50.5219C46.4726 50.5219 46.4725 50.5219 46.4724 50.5219C46.4723 50.5219 46.4722 50.5219 46.4721 50.5219C46.472 50.5219 46.4719 50.5219 46.4718 50.5219C46.4717 50.5219 46.4716 50.5219 46.4714 50.5219C46.4713 50.5219 46.4712 50.5219 46.4711 50.5219C46.471 50.5219 46.4709 50.5219 46.4708 50.5219C46.4707 50.5219 46.4706 50.5219 46.4705 50.5219C46.4703 50.5219 46.4702 50.5219 46.4701 50.5219C46.47 50.5219 46.4699 50.5219 46.4698 50.5219C46.4697 50.5219 46.4696 50.5219 46.4695 50.5219C46.4694 50.5219 46.4692 50.5219 46.4691 50.5219C46.469 50.5219 46.4689 50.5219 46.4688 50.5219C46.4687 50.5219 46.4686 50.5219 46.4685 50.5219C46.4684 50.5219 46.4682 50.5219 46.4681 50.5219C46.468 50.5219 46.4679 50.5219 46.4678 50.5219C46.4677 50.5219 46.4676 50.5219 46.4675 50.5219C46.4674 50.5219 46.4672 50.5219 46.4671 50.5219C46.467 50.5219 46.4669 50.5219 46.4668 50.5219C46.4667 50.5219 46.4666 50.5219 46.4665 50.5219C46.4664 50.5219 46.4662 50.5219 46.4661 50.5219C46.466 50.5219 46.4659 50.5219 46.4658 50.5219C46.4657 50.5219 46.4656 50.5219 46.4655 50.5219C46.4653 50.5219 46.4652 50.5219 46.4651 50.5219C46.465 50.5219 46.4649 50.5219 46.4648 50.5219C46.4647 50.5219 46.4646 50.5219 46.4644 50.5219C46.4643 50.5219 46.4642 50.5219 46.4641 50.5219C46.464 50.5219 46.4639 50.5219 46.4638 50.5219C46.4637 50.5219 46.4635 50.5219 46.4634 50.5219C46.4633 50.5219 46.4632 50.5219 46.4631 50.5219C46.463 50.5219 46.4629 50.5219 46.4627 50.5219C46.4626 50.5219 46.4625 50.5219 46.4624 50.5219C46.4623 50.5219 46.4622 50.5219 46.4621 50.5219C46.462 50.5219 46.4618 50.5219 46.4617 50.5219C46.4616 50.5219 46.4615 50.5219 46.4614 50.5219C46.4613 50.5219 46.4612 50.5219 46.461 50.5219C46.4609 50.5219 46.4608 50.5219 46.4607 50.5219C46.4606 50.5219 46.4605 50.5219 46.4604 50.5219C46.4602 50.5219 46.4601 50.5219 46.46 50.5219C46.4599 50.5219 46.4598 50.5219 46.4597 50.5219C46.4596 50.5219 46.4594 50.5219 46.4593 50.5219C46.4592 50.5219 46.4591 50.5219 46.459 50.5219C46.4589 50.5219 46.4587 50.5219 46.4586 50.5219C46.4585 50.5219 46.4584 50.5219 46.4583 50.5219C46.4582 50.5219 46.4581 50.5219 46.4579 50.5219C46.4578 50.5219 46.4577 50.5219 46.4576 50.5219C46.4575 50.5219 46.4574 50.5219 46.4572 50.5219C46.4571 50.5219 46.457 50.5219 46.4569 50.5219C46.4568 50.5219 46.4567 50.5219 46.4566 50.5219C46.4564 50.5219 46.4563 50.5219 46.4562 50.5219C46.4561 50.5219 46.456 50.5219 46.4559 50.5219C46.4557 50.5219 46.4556 50.5219 46.4555 50.5219C46.4554 50.5219 46.4553 50.5219 46.4552 50.5219C46.455 50.5219 46.4549 50.5219 46.4548 50.5219C46.4547 50.5219 46.4546 50.5219 46.4545 50.5219C46.4543 50.5219 46.4542 50.5219 46.4541 50.5219C46.454 50.5219 46.4539 50.5219 46.4537 50.5219C46.4536 50.5219 46.4535 50.5219 46.4534 50.5219C46.4533 50.5219 46.4532 50.5219 46.453 50.5219C46.4529 50.5219 46.4528 50.5219 46.4527 50.5219C46.4526 50.5219 46.4525 50.5219 46.4523 50.5219C46.4522 50.5219 46.4521 50.5219 46.452 50.5219C46.4519 50.5219 46.4517 50.5219 46.4516 50.5219C46.4515 50.5219 46.4514 50.5219 46.4513 50.5219C46.4512 50.5219 46.451 50.5219 46.4509 50.5219C46.4508 50.5219 46.4507 50.5219 46.4506 50.5219C46.4504 50.5219 46.4503 50.5219 46.4502 50.5219C46.4501 50.5219 46.45 50.5219 46.4498 50.5219C46.4497 50.5219 46.4496 50.5219 46.4495 50.5219C46.4494 50.5219 46.4493 50.5219 46.4491 50.5219C46.449 50.5219 46.4489 50.5219 46.4488 50.5219C46.4487 50.5219 46.4485 50.5219 46.4484 50.5219C46.4483 50.5219 46.4482 50.5219 46.4481 50.5219C46.4479 50.5219 46.4478 50.5219 46.4477 50.5219C46.4476 50.5219 46.4475 50.5219 46.4473 50.5219C46.4472 50.5219 46.4471 50.5219 46.447 50.5219C46.4469 50.5219 46.4467 50.5219 46.4466 50.5219C46.4465 50.5219 46.4464 50.5219 46.4463 50.5219C46.4461 50.5219 46.446 50.5219 46.4459 50.5219C46.4458 50.5219 46.4457 50.5219 46.4455 50.5219C46.4454 50.5219 46.4453 50.5219 46.4452 50.5219C46.445 50.5219 46.4449 50.5219 46.4448 50.5219C46.4447 50.5219 46.4446 50.5219 46.4444 50.5219C46.4443 50.5219 46.4442 50.5219 46.4441 50.5219C46.444 50.5219 46.4438 50.5219 46.4437 50.5219C46.4436 50.5219 46.4435 50.5219 46.4433 50.5219C46.4432 50.5219 46.4431 50.5219 46.443 50.5219C46.4429 50.5219 46.4427 50.5219 46.4426 50.5219C46.4425 50.5219 46.4424 50.5219 46.4422 50.5219C46.4421 50.5219 46.442 50.5219 46.4419 50.5219C46.4418 50.5219 46.4416 50.5219 46.4415 50.5219C46.4414 50.5219 46.4413 50.5219 46.4411 50.5219C46.441 50.5219 46.4409 50.5219 46.4408 50.5219C46.4407 50.5219 46.4405 50.5219 46.4404 50.5219C46.4403 50.5219 46.4402 50.5219 46.44 50.5219C46.4399 50.5219 46.4398 50.5219 46.4397 50.5219C46.4395 50.5219 46.4394 50.5219 46.4393 50.5219C46.4392 50.5219 46.4391 50.5219 46.4389 50.5219C46.4388 50.5219 46.4387 50.5219 46.4386 50.5219C46.4384 50.5219 46.4383 50.5219 46.4382 50.5219C46.4381 50.5219 46.4379 50.5219 46.4378 50.5219C46.4377 50.5219 46.4376 50.5219 46.4374 50.5219C46.4373 50.5219 46.4372 50.5219 46.4371 50.5219C46.4369 50.5219 46.4368 50.5219 46.4367 50.5219C46.4366 50.5219 46.4364 50.5219 46.4363 50.5219C46.4362 50.5219 46.4361 50.5219 46.4359 50.5219C46.4358 50.5219 46.4357 50.5219 46.4356 50.5219C46.4354 50.5219 46.4353 50.5219 46.4352 50.5219C46.4351 50.5219 46.4349 50.5219 46.4348 50.5219C46.4347 50.5219 46.4346 50.5219 46.4344 50.5219C46.4343 50.5219 46.4342 50.5219 46.4341 50.5219C46.4339 50.5219 46.4338 50.5219 46.4337 50.5219C46.4336 50.5219 46.4334 50.5219 46.4333 50.5219C46.4332 50.5219 46.4331 50.5219 46.4329 50.5219C46.4328 50.5219 46.4327 50.5219 46.4326 50.5219C46.4324 50.5219 46.4323 50.5219 46.4322 50.5219C46.4321 50.5219 46.4319 50.5219 46.4318 50.5219C46.4317 50.5219 46.4315 50.5219 46.4314 50.5219C46.4313 50.5219 46.4312 50.5219 46.431 50.5219C46.4309 50.5219 46.4308 50.5219 46.4307 50.5219C46.4305 50.5219 46.4304 50.5219 46.4303 50.5219C46.4302 50.5219 46.43 50.5219 46.4299 50.5219C46.4298 50.5219 46.4296 50.5219 46.4295 50.5219C46.4294 50.5219 46.4293 50.5219 46.4291 50.5219C46.429 50.5219 46.4289 50.5219 46.4288 50.5219C46.4286 50.5219 46.4285 50.5219 46.4284 50.5219C46.4282 50.5219 46.4281 50.5219 46.428 50.5219C46.4279 50.5219 46.4277 50.5219 46.4276 50.5219C46.4275 50.5219 46.4273 50.5219 46.4272 50.5219C46.4271 50.5219 46.427 50.5219 46.4268 50.5219C46.4267 50.5219 46.4266 50.5219 46.4264 50.5219C46.4263 50.5219 46.4262 50.5219 46.4261 50.5219C46.4259 50.5219 46.4258 50.5219 46.4257 50.5219C46.4255 50.5219 46.4254 50.5219 46.4253 50.5219C46.4252 50.5219 46.425 50.5219 46.4249 50.5219C46.4248 50.5219 46.4246 50.5219 46.4245 50.5219C46.4244 50.5219 46.4243 50.5219 46.4241 50.5219C46.424 50.5219 46.4239 50.5219 46.4237 50.5219C46.4236 50.5219 46.4235 50.5219 46.4233 50.5219C46.4232 50.5219 46.4231 50.5219 46.423 50.5219C46.4228 50.5219 46.4227 50.5219 46.4226 50.5219C46.4224 50.5219 46.4223 50.5219 46.4222 50.5219C46.422 50.5219 46.4219 50.5219 46.4218 50.5219C46.4217 50.5219 46.4215 50.5219 46.4214 50.5219C46.4213 50.5219 46.4211 50.5219 46.421 50.5219C46.4209 50.5219 46.4207 50.5219 46.4206 50.5219C46.4205 50.5219 46.4203 50.5219 46.4202 50.5219C46.4201 50.5219 46.4199 50.5219 46.4198 50.5219C46.4197 50.5219 46.4196 50.5219 46.4194 50.5219C46.4193 50.5219 46.4192 50.5219 46.419 50.5219C46.4189 50.5219 46.4188 50.5219 46.4186 50.5219C46.4185 50.5219 46.4184 50.5219 46.4182 50.5219C46.4181 50.5219 46.418 50.5219 46.4178 50.5219C46.4177 50.5219 46.4176 50.5219 46.4174 50.5219C46.4173 50.5219 46.4172 50.5219 46.417 50.5219C46.4169 50.5219 46.4168 50.5219 46.4167 50.5219C46.4165 50.5219 46.4164 50.5219 46.4163 50.5219C46.4161 50.5219 46.416 50.5219 46.4159 50.5219C46.4157 50.5219 46.4156 50.5219 46.4155 50.5219C46.4153 50.5219 46.4152 50.5219 46.4151 50.5219C46.4149 50.5219 46.4148 50.5219 46.4147 50.5219C46.4145 50.5219 46.4144 50.5219 46.4143 50.5219C46.4141 50.5219 46.414 50.5219 46.4139 50.5219C46.4137 50.5219 46.4136 50.5219 46.4135 50.5219C46.4133 50.5219 46.4132 50.5219 46.4131 50.5219C46.4129 50.5219 46.4128 50.5219 46.4127 50.5219C46.4125 50.5219 46.4124 50.5219 46.4123 50.5219C46.4121 50.5219 46.412 50.5219 46.4119 50.5219C46.4117 50.5219 46.4116 50.5219 46.4114 50.5219C46.4113 50.5219 46.4112 50.5219 46.411 50.5219C46.4109 50.5219 46.4108 50.5219 46.4106 50.5219C46.4105 50.5219 46.4104 50.5219 46.4102 50.5219C46.4101 50.5219 46.41 50.5219 46.4098 50.5219C46.4097 50.5219 46.4096 50.5219 46.4094 50.5219C46.4093 50.5219 46.4092 50.5219 46.409 50.5219C46.4089 50.5219 46.4087 50.5219 46.4086 50.5219C46.4085 50.5219 46.4083 50.5219 46.4082 50.5219C46.4081 50.5219 46.4079 50.5219 46.4078 50.5219C46.4077 50.5219 46.4075 50.5219 46.4074 50.5219C46.4073 50.5219 46.4071 50.5219 46.407 50.5219C46.4068 50.5219 46.4067 50.5219 46.4066 50.5219C46.4064 50.5219 46.4063 50.5219 46.4062 50.5219C46.406 50.5219 46.4059 50.5219 46.4058 50.5219C46.4056 50.5219 46.4055 50.5219 46.4053 50.5219C46.4052 50.5219 46.4051 50.5219 46.4049 50.5219C46.4048 50.5219 46.4047 50.5219 46.4045 50.5219C46.4044 50.5219 46.4042 50.5219 46.4041 50.5219C46.404 50.5219 46.4038 50.5219 46.4037 50.5219C46.4036 50.5219 46.4034 50.5219 46.4033 50.5219C46.4031 50.5219 46.403 50.5219 46.4029 50.5219C46.4027 50.5219 46.4026 50.5219 46.4025 50.5219C46.4023 50.5219 46.4022 50.5219 46.402 50.5219C46.4019 50.5219 46.4018 50.5219 46.4016 50.5219C46.4015 50.5219 46.4014 50.5219 46.4012 50.5219C46.4011 50.5219 46.4009 50.5219 46.4008 50.5219C46.4007 50.5219 46.4005 50.5219 46.4004 50.5219C46.4002 50.5219 46.4001 50.5219 46.4 50.5219C46.3998 50.5219 46.3997 50.5219 46.3996 50.5219C46.3994 50.5219 46.3993 50.5219 46.3991 50.5219C46.399 50.5219 46.3989 50.5219 46.3987 50.5219C46.3986 50.5219 46.3984 50.5219 46.3983 50.5219C46.3982 50.5219 46.398 50.5219 46.3979 50.5219C46.3977 50.5219 46.3976 50.5219 46.3975 50.5219C46.3973 50.5219 46.3972 50.5219 46.397 50.5219C46.3969 50.5219 46.3968 50.5219 46.3966 50.5219C46.3965 50.5219 46.3963 50.5219 46.3962 50.5219C46.3961 50.5219 46.3959 50.5219 46.3958 50.5219C46.3956 50.5219 46.3955 50.5219 46.3954 50.5219C46.3952 50.5219 46.3951 50.5219 46.3949 50.5219C46.3948 50.5219 46.3947 50.5219 46.3945 50.5219C46.3944 50.5219 46.3942 50.5219 46.3941 50.5219C46.394 50.5219 46.3938 50.5219 46.3937 50.5219C46.3935 50.5219 46.3934 50.5219 46.3932 50.5219C46.3931 50.5219 46.393 50.5219 46.3928 50.5219C46.3927 50.5219 46.3925 50.5219 46.3924 50.5219C46.3923 50.5219 46.3921 50.5219 46.392 50.5219C46.3918 50.5219 46.3917 50.5219 46.3915 50.5219C46.3914 50.5219 46.3913 50.5219 46.3911 50.5219C46.391 50.5219 46.3908 50.5219 46.3907 50.5219C46.3906 50.5219 46.3904 50.5219 46.3903 50.5219C46.3901 50.5219 46.39 50.5219 46.3898 50.5219C46.3897 50.5219 46.3896 50.5219 46.3894 50.5219C46.3893 50.5219 46.3891 50.5219 46.389 50.5219C46.3888 50.5219 46.3887 50.5219 46.3886 50.5219C46.3884 50.5219 46.3883 50.5219 46.3881 50.5219C46.388 50.5219 46.3878 50.5219 46.3877 50.5219C46.3876 50.5219 46.3874 50.5219 46.3873 50.5219C46.3871 50.5219 46.387 50.5219 46.3868 50.5219C46.3867 50.5219 46.3865 50.5219 46.3864 50.5219C46.3863 50.5219 46.3861 50.5219 46.386 50.5219C46.3858 50.5219 46.3857 50.5219 46.3855 50.5219C46.3854 50.5219 46.3853 50.5219 46.3851 50.5219C46.385 50.5219 46.3848 50.5219 46.3847 50.5219C46.3845 50.5219 46.3844 50.5219 46.3842 50.5219C46.3841 50.5219 46.384 50.5219 46.3838 50.5219C46.3837 50.5219 46.3835 50.5219 46.3834 50.5219C46.3832 50.5219 46.3831 50.5219 46.3829 50.5219C46.3828 50.5219 46.3826 50.5219 46.3825 50.5219C46.3824 50.5219 46.3822 50.5219 46.3821 50.5219C46.3819 50.5219 46.3818 50.5219 46.3816 50.5219C46.3815 50.5219 46.3813 50.5219 46.3812 50.5219C46.381 50.5219 46.3809 50.5219 46.3808 50.5219C46.3806 50.5219 46.3805 50.5219 46.3803 50.5219C46.3802 50.5219 46.38 50.5219 46.3799 50.5219C46.3797 50.5219 46.3796 50.5219 46.3794 50.5219C46.3793 50.5219 46.3791 50.5219 46.379 50.5219C46.3789 50.5219 46.3787 50.5219 46.3786 50.5219C46.3784 50.5219 46.3783 50.5219 46.3781 50.5219C46.378 50.5219 46.3778 50.5219 46.3777 50.5219C46.3775 50.5219 46.3774 50.5219 46.3772 50.5219C46.3771 50.5219 46.3769 50.5219 46.3768 50.5219C46.3767 50.5219 46.3765 50.5219 46.3764 50.5219C46.3762 50.5219 46.3761 50.5219 46.3759 50.5219C46.3758 50.5219 46.3756 50.5219 46.3755 50.5219C46.3753 50.5219 46.3752 50.5219 46.375 50.5219C46.3749 50.5219 46.3747 50.5219 46.3746 50.5219C46.3744 50.5219 46.3743 50.5219 46.3741 50.5219C46.374 50.5219 46.3738 50.5219 46.3737 50.5219C46.3735 50.5219 46.3734 50.5219 46.3733 50.5219C46.3731 50.5219 46.373 50.5219 46.3728 50.5219C46.3727 50.5219 46.3725 50.5219 46.3724 50.5219C46.3722 50.5219 46.3721 50.5219 46.3719 50.5219C46.3718 50.5219 46.3716 50.5219 46.3715 50.5219C46.3713 50.5219 46.3712 50.5219 46.371 50.5219C46.3709 50.5219 46.3707 50.5219 46.3706 50.5219C46.3704 50.5219 46.3703 50.5219 46.3701 50.5219C46.37 50.5219 46.3698 50.5219 46.3697 50.5219C46.3695 50.5219 46.3694 50.5219 46.3692 50.5219C46.3691 50.5219 46.3689 50.5219 46.3688 50.5219C46.3686 50.5219 46.3685 50.5219 46.3683 50.5219C46.3682 50.5219 46.368 50.5219 46.3679 50.5219C46.3677 50.5219 46.3676 50.5219 46.3674 50.5219C46.3673 50.5219 46.3671 50.5219 46.367 50.5219V53.1886C46.3671 53.1886 46.3673 53.1886 46.3674 53.1886C46.3676 53.1886 46.3677 53.1886 46.3679 53.1886C46.368 53.1886 46.3682 53.1886 46.3683 53.1886C46.3685 53.1886 46.3686 53.1886 46.3688 53.1886C46.3689 53.1886 46.3691 53.1886 46.3692 53.1886C46.3694 53.1886 46.3695 53.1886 46.3697 53.1886C46.3698 53.1886 46.37 53.1886 46.3701 53.1886C46.3703 53.1886 46.3704 53.1886 46.3706 53.1886C46.3707 53.1886 46.3709 53.1886 46.371 53.1886C46.3712 53.1886 46.3713 53.1886 46.3715 53.1886C46.3716 53.1886 46.3718 53.1886 46.3719 53.1886C46.3721 53.1886 46.3722 53.1886 46.3724 53.1886C46.3725 53.1886 46.3727 53.1886 46.3728 53.1886C46.373 53.1886 46.3731 53.1886 46.3733 53.1886C46.3734 53.1886 46.3735 53.1886 46.3737 53.1886C46.3738 53.1886 46.374 53.1886 46.3741 53.1886C46.3743 53.1886 46.3744 53.1886 46.3746 53.1886C46.3747 53.1886 46.3749 53.1886 46.375 53.1886C46.3752 53.1886 46.3753 53.1886 46.3755 53.1886C46.3756 53.1886 46.3758 53.1886 46.3759 53.1886C46.3761 53.1886 46.3762 53.1886 46.3764 53.1886C46.3765 53.1886 46.3767 53.1886 46.3768 53.1886C46.3769 53.1886 46.3771 53.1886 46.3772 53.1886C46.3774 53.1886 46.3775 53.1886 46.3777 53.1886C46.3778 53.1886 46.378 53.1886 46.3781 53.1886C46.3783 53.1886 46.3784 53.1886 46.3786 53.1886C46.3787 53.1886 46.3789 53.1886 46.379 53.1886C46.3791 53.1886 46.3793 53.1886 46.3794 53.1886C46.3796 53.1886 46.3797 53.1886 46.3799 53.1886C46.38 53.1886 46.3802 53.1886 46.3803 53.1886C46.3805 53.1886 46.3806 53.1886 46.3808 53.1886C46.3809 53.1886 46.381 53.1886 46.3812 53.1886C46.3813 53.1886 46.3815 53.1886 46.3816 53.1886C46.3818 53.1886 46.3819 53.1886 46.3821 53.1886C46.3822 53.1886 46.3824 53.1886 46.3825 53.1886C46.3826 53.1886 46.3828 53.1886 46.3829 53.1886C46.3831 53.1886 46.3832 53.1886 46.3834 53.1886C46.3835 53.1886 46.3837 53.1886 46.3838 53.1886C46.384 53.1886 46.3841 53.1886 46.3842 53.1886C46.3844 53.1886 46.3845 53.1886 46.3847 53.1886C46.3848 53.1886 46.385 53.1886 46.3851 53.1886C46.3853 53.1886 46.3854 53.1886 46.3855 53.1886C46.3857 53.1886 46.3858 53.1886 46.386 53.1886C46.3861 53.1886 46.3863 53.1886 46.3864 53.1886C46.3865 53.1886 46.3867 53.1886 46.3868 53.1886C46.387 53.1886 46.3871 53.1886 46.3873 53.1886C46.3874 53.1886 46.3876 53.1886 46.3877 53.1886C46.3878 53.1886 46.388 53.1886 46.3881 53.1886C46.3883 53.1886 46.3884 53.1886 46.3886 53.1886C46.3887 53.1886 46.3888 53.1886 46.389 53.1886C46.3891 53.1886 46.3893 53.1886 46.3894 53.1886C46.3896 53.1886 46.3897 53.1886 46.3898 53.1886C46.39 53.1886 46.3901 53.1886 46.3903 53.1886C46.3904 53.1886 46.3906 53.1886 46.3907 53.1886C46.3908 53.1886 46.391 53.1886 46.3911 53.1886C46.3913 53.1886 46.3914 53.1886 46.3915 53.1886C46.3917 53.1886 46.3918 53.1886 46.392 53.1886C46.3921 53.1886 46.3923 53.1886 46.3924 53.1886C46.3925 53.1886 46.3927 53.1886 46.3928 53.1886C46.393 53.1886 46.3931 53.1886 46.3932 53.1886C46.3934 53.1886 46.3935 53.1886 46.3937 53.1886C46.3938 53.1886 46.394 53.1886 46.3941 53.1886C46.3942 53.1886 46.3944 53.1886 46.3945 53.1886C46.3947 53.1886 46.3948 53.1886 46.3949 53.1886C46.3951 53.1886 46.3952 53.1886 46.3954 53.1886C46.3955 53.1886 46.3956 53.1886 46.3958 53.1886C46.3959 53.1886 46.3961 53.1886 46.3962 53.1886C46.3963 53.1886 46.3965 53.1886 46.3966 53.1886C46.3968 53.1886 46.3969 53.1886 46.397 53.1886C46.3972 53.1886 46.3973 53.1886 46.3975 53.1886C46.3976 53.1886 46.3977 53.1886 46.3979 53.1886C46.398 53.1886 46.3982 53.1886 46.3983 53.1886C46.3984 53.1886 46.3986 53.1886 46.3987 53.1886C46.3989 53.1886 46.399 53.1886 46.3991 53.1886C46.3993 53.1886 46.3994 53.1886 46.3996 53.1886C46.3997 53.1886 46.3998 53.1886 46.4 53.1886C46.4001 53.1886 46.4002 53.1886 46.4004 53.1886C46.4005 53.1886 46.4007 53.1886 46.4008 53.1886C46.4009 53.1886 46.4011 53.1886 46.4012 53.1886C46.4014 53.1886 46.4015 53.1886 46.4016 53.1886C46.4018 53.1886 46.4019 53.1886 46.402 53.1886C46.4022 53.1886 46.4023 53.1886 46.4025 53.1886C46.4026 53.1886 46.4027 53.1886 46.4029 53.1886C46.403 53.1886 46.4031 53.1886 46.4033 53.1886C46.4034 53.1886 46.4036 53.1886 46.4037 53.1886C46.4038 53.1886 46.404 53.1886 46.4041 53.1886C46.4042 53.1886 46.4044 53.1886 46.4045 53.1886C46.4047 53.1886 46.4048 53.1886 46.4049 53.1886C46.4051 53.1886 46.4052 53.1886 46.4053 53.1886C46.4055 53.1886 46.4056 53.1886 46.4058 53.1886C46.4059 53.1886 46.406 53.1886 46.4062 53.1886C46.4063 53.1886 46.4064 53.1886 46.4066 53.1886C46.4067 53.1886 46.4068 53.1886 46.407 53.1886C46.4071 53.1886 46.4073 53.1886 46.4074 53.1886C46.4075 53.1886 46.4077 53.1886 46.4078 53.1886C46.4079 53.1886 46.4081 53.1886 46.4082 53.1886C46.4083 53.1886 46.4085 53.1886 46.4086 53.1886C46.4087 53.1886 46.4089 53.1886 46.409 53.1886C46.4092 53.1886 46.4093 53.1886 46.4094 53.1886C46.4096 53.1886 46.4097 53.1886 46.4098 53.1886C46.41 53.1886 46.4101 53.1886 46.4102 53.1886C46.4104 53.1886 46.4105 53.1886 46.4106 53.1886C46.4108 53.1886 46.4109 53.1886 46.411 53.1886C46.4112 53.1886 46.4113 53.1886 46.4114 53.1886C46.4116 53.1886 46.4117 53.1886 46.4119 53.1886C46.412 53.1886 46.4121 53.1886 46.4123 53.1886C46.4124 53.1886 46.4125 53.1886 46.4127 53.1886C46.4128 53.1886 46.4129 53.1886 46.4131 53.1886C46.4132 53.1886 46.4133 53.1886 46.4135 53.1886C46.4136 53.1886 46.4137 53.1886 46.4139 53.1886C46.414 53.1886 46.4141 53.1886 46.4143 53.1886C46.4144 53.1886 46.4145 53.1886 46.4147 53.1886C46.4148 53.1886 46.4149 53.1886 46.4151 53.1886C46.4152 53.1886 46.4153 53.1886 46.4155 53.1886C46.4156 53.1886 46.4157 53.1886 46.4159 53.1886C46.416 53.1886 46.4161 53.1886 46.4163 53.1886C46.4164 53.1886 46.4165 53.1886 46.4167 53.1886C46.4168 53.1886 46.4169 53.1886 46.417 53.1886C46.4172 53.1886 46.4173 53.1886 46.4174 53.1886C46.4176 53.1886 46.4177 53.1886 46.4178 53.1886C46.418 53.1886 46.4181 53.1886 46.4182 53.1886C46.4184 53.1886 46.4185 53.1886 46.4186 53.1886C46.4188 53.1886 46.4189 53.1886 46.419 53.1886C46.4192 53.1886 46.4193 53.1886 46.4194 53.1886C46.4196 53.1886 46.4197 53.1886 46.4198 53.1886C46.4199 53.1886 46.4201 53.1886 46.4202 53.1886C46.4203 53.1886 46.4205 53.1886 46.4206 53.1886C46.4207 53.1886 46.4209 53.1886 46.421 53.1886C46.4211 53.1886 46.4213 53.1886 46.4214 53.1886C46.4215 53.1886 46.4217 53.1886 46.4218 53.1886C46.4219 53.1886 46.422 53.1886 46.4222 53.1886C46.4223 53.1886 46.4224 53.1886 46.4226 53.1886C46.4227 53.1886 46.4228 53.1886 46.423 53.1886C46.4231 53.1886 46.4232 53.1886 46.4233 53.1886C46.4235 53.1886 46.4236 53.1886 46.4237 53.1886C46.4239 53.1886 46.424 53.1886 46.4241 53.1886C46.4243 53.1886 46.4244 53.1886 46.4245 53.1886C46.4246 53.1886 46.4248 53.1886 46.4249 53.1886C46.425 53.1886 46.4252 53.1886 46.4253 53.1886C46.4254 53.1886 46.4255 53.1886 46.4257 53.1886C46.4258 53.1886 46.4259 53.1886 46.4261 53.1886C46.4262 53.1886 46.4263 53.1886 46.4264 53.1886C46.4266 53.1886 46.4267 53.1886 46.4268 53.1886C46.427 53.1886 46.4271 53.1886 46.4272 53.1886C46.4273 53.1886 46.4275 53.1886 46.4276 53.1886C46.4277 53.1886 46.4279 53.1886 46.428 53.1886C46.4281 53.1886 46.4282 53.1886 46.4284 53.1886C46.4285 53.1886 46.4286 53.1886 46.4288 53.1886C46.4289 53.1886 46.429 53.1886 46.4291 53.1886C46.4293 53.1886 46.4294 53.1886 46.4295 53.1886C46.4296 53.1886 46.4298 53.1886 46.4299 53.1886C46.43 53.1886 46.4302 53.1886 46.4303 53.1886C46.4304 53.1886 46.4305 53.1886 46.4307 53.1886C46.4308 53.1886 46.4309 53.1886 46.431 53.1886C46.4312 53.1886 46.4313 53.1886 46.4314 53.1886C46.4315 53.1886 46.4317 53.1886 46.4318 53.1886C46.4319 53.1886 46.4321 53.1886 46.4322 53.1886C46.4323 53.1886 46.4324 53.1886 46.4326 53.1886C46.4327 53.1886 46.4328 53.1886 46.4329 53.1886C46.4331 53.1886 46.4332 53.1886 46.4333 53.1886C46.4334 53.1886 46.4336 53.1886 46.4337 53.1886C46.4338 53.1886 46.4339 53.1886 46.4341 53.1886C46.4342 53.1886 46.4343 53.1886 46.4344 53.1886C46.4346 53.1886 46.4347 53.1886 46.4348 53.1886C46.4349 53.1886 46.4351 53.1886 46.4352 53.1886C46.4353 53.1886 46.4354 53.1886 46.4356 53.1886C46.4357 53.1886 46.4358 53.1886 46.4359 53.1886C46.4361 53.1886 46.4362 53.1886 46.4363 53.1886C46.4364 53.1886 46.4366 53.1886 46.4367 53.1886C46.4368 53.1886 46.4369 53.1886 46.4371 53.1886C46.4372 53.1886 46.4373 53.1886 46.4374 53.1886C46.4376 53.1886 46.4377 53.1886 46.4378 53.1886C46.4379 53.1886 46.4381 53.1886 46.4382 53.1886C46.4383 53.1886 46.4384 53.1886 46.4386 53.1886C46.4387 53.1886 46.4388 53.1886 46.4389 53.1886C46.4391 53.1886 46.4392 53.1886 46.4393 53.1886C46.4394 53.1886 46.4395 53.1886 46.4397 53.1886C46.4398 53.1886 46.4399 53.1886 46.44 53.1886C46.4402 53.1886 46.4403 53.1886 46.4404 53.1886C46.4405 53.1886 46.4407 53.1886 46.4408 53.1886C46.4409 53.1886 46.441 53.1886 46.4411 53.1886C46.4413 53.1886 46.4414 53.1886 46.4415 53.1886C46.4416 53.1886 46.4418 53.1886 46.4419 53.1886C46.442 53.1886 46.4421 53.1886 46.4422 53.1886C46.4424 53.1886 46.4425 53.1886 46.4426 53.1886C46.4427 53.1886 46.4429 53.1886 46.443 53.1886C46.4431 53.1886 46.4432 53.1886 46.4433 53.1886C46.4435 53.1886 46.4436 53.1886 46.4437 53.1886C46.4438 53.1886 46.444 53.1886 46.4441 53.1886C46.4442 53.1886 46.4443 53.1886 46.4444 53.1886C46.4446 53.1886 46.4447 53.1886 46.4448 53.1886C46.4449 53.1886 46.445 53.1886 46.4452 53.1886C46.4453 53.1886 46.4454 53.1886 46.4455 53.1886C46.4457 53.1886 46.4458 53.1886 46.4459 53.1886C46.446 53.1886 46.4461 53.1886 46.4463 53.1886C46.4464 53.1886 46.4465 53.1886 46.4466 53.1886C46.4467 53.1886 46.4469 53.1886 46.447 53.1886C46.4471 53.1886 46.4472 53.1886 46.4473 53.1886C46.4475 53.1886 46.4476 53.1886 46.4477 53.1886C46.4478 53.1886 46.4479 53.1886 46.4481 53.1886C46.4482 53.1886 46.4483 53.1886 46.4484 53.1886C46.4485 53.1886 46.4487 53.1886 46.4488 53.1886C46.4489 53.1886 46.449 53.1886 46.4491 53.1886C46.4493 53.1886 46.4494 53.1886 46.4495 53.1886C46.4496 53.1886 46.4497 53.1886 46.4498 53.1886C46.45 53.1886 46.4501 53.1886 46.4502 53.1886C46.4503 53.1886 46.4504 53.1886 46.4506 53.1886C46.4507 53.1886 46.4508 53.1886 46.4509 53.1886C46.451 53.1886 46.4512 53.1886 46.4513 53.1886C46.4514 53.1886 46.4515 53.1886 46.4516 53.1886C46.4517 53.1886 46.4519 53.1886 46.452 53.1886C46.4521 53.1886 46.4522 53.1886 46.4523 53.1886C46.4525 53.1886 46.4526 53.1886 46.4527 53.1886C46.4528 53.1886 46.4529 53.1886 46.453 53.1886C46.4532 53.1886 46.4533 53.1886 46.4534 53.1886C46.4535 53.1886 46.4536 53.1886 46.4537 53.1886C46.4539 53.1886 46.454 53.1886 46.4541 53.1886C46.4542 53.1886 46.4543 53.1886 46.4545 53.1886C46.4546 53.1886 46.4547 53.1886 46.4548 53.1886C46.4549 53.1886 46.455 53.1886 46.4552 53.1886C46.4553 53.1886 46.4554 53.1886 46.4555 53.1886C46.4556 53.1886 46.4557 53.1886 46.4559 53.1886C46.456 53.1886 46.4561 53.1886 46.4562 53.1886C46.4563 53.1886 46.4564 53.1886 46.4566 53.1886C46.4567 53.1886 46.4568 53.1886 46.4569 53.1886C46.457 53.1886 46.4571 53.1886 46.4572 53.1886C46.4574 53.1886 46.4575 53.1886 46.4576 53.1886C46.4577 53.1886 46.4578 53.1886 46.4579 53.1886C46.4581 53.1886 46.4582 53.1886 46.4583 53.1886C46.4584 53.1886 46.4585 53.1886 46.4586 53.1886C46.4587 53.1886 46.4589 53.1886 46.459 53.1886C46.4591 53.1886 46.4592 53.1886 46.4593 53.1886C46.4594 53.1886 46.4596 53.1886 46.4597 53.1886C46.4598 53.1886 46.4599 53.1886 46.46 53.1886C46.4601 53.1886 46.4602 53.1886 46.4604 53.1886C46.4605 53.1886 46.4606 53.1886 46.4607 53.1886C46.4608 53.1886 46.4609 53.1886 46.461 53.1886C46.4612 53.1886 46.4613 53.1886 46.4614 53.1886C46.4615 53.1886 46.4616 53.1886 46.4617 53.1886C46.4618 53.1886 46.462 53.1886 46.4621 53.1886C46.4622 53.1886 46.4623 53.1886 46.4624 53.1886C46.4625 53.1886 46.4626 53.1886 46.4627 53.1886C46.4629 53.1886 46.463 53.1886 46.4631 53.1886C46.4632 53.1886 46.4633 53.1886 46.4634 53.1886C46.4635 53.1886 46.4637 53.1886 46.4638 53.1886C46.4639 53.1886 46.464 53.1886 46.4641 53.1886C46.4642 53.1886 46.4643 53.1886 46.4644 53.1886C46.4646 53.1886 46.4647 53.1886 46.4648 53.1886C46.4649 53.1886 46.465 53.1886 46.4651 53.1886C46.4652 53.1886 46.4653 53.1886 46.4655 53.1886C46.4656 53.1886 46.4657 53.1886 46.4658 53.1886C46.4659 53.1886 46.466 53.1886 46.4661 53.1886C46.4662 53.1886 46.4664 53.1886 46.4665 53.1886C46.4666 53.1886 46.4667 53.1886 46.4668 53.1886C46.4669 53.1886 46.467 53.1886 46.4671 53.1886C46.4672 53.1886 46.4674 53.1886 46.4675 53.1886C46.4676 53.1886 46.4677 53.1886 46.4678 53.1886C46.4679 53.1886 46.468 53.1886 46.4681 53.1886C46.4682 53.1886 46.4684 53.1886 46.4685 53.1886C46.4686 53.1886 46.4687 53.1886 46.4688 53.1886C46.4689 53.1886 46.469 53.1886 46.4691 53.1886C46.4692 53.1886 46.4694 53.1886 46.4695 53.1886C46.4696 53.1886 46.4697 53.1886 46.4698 53.1886C46.4699 53.1886 46.47 53.1886 46.4701 53.1886C46.4702 53.1886 46.4703 53.1886 46.4705 53.1886C46.4706 53.1886 46.4707 53.1886 46.4708 53.1886C46.4709 53.1886 46.471 53.1886 46.4711 53.1886C46.4712 53.1886 46.4713 53.1886 46.4714 53.1886C46.4716 53.1886 46.4717 53.1886 46.4718 53.1886C46.4719 53.1886 46.472 53.1886 46.4721 53.1886C46.4722 53.1886 46.4723 53.1886 46.4724 53.1886C46.4725 53.1886 46.4726 53.1886 46.4728 53.1886C46.4729 53.1886 46.473 53.1886 46.4731 53.1886C46.4732 53.1886 46.4733 53.1886 46.4734 53.1886C46.4735 53.1886 46.4736 53.1886 46.4737 53.1886C46.4738 53.1886 46.474 53.1886 46.4741 53.1886C46.4742 53.1886 46.4743 53.1886 46.4744 53.1886C46.4745 53.1886 46.4746 53.1886 46.4747 53.1886C46.4748 53.1886 46.4749 53.1886 46.475 53.1886C46.4751 53.1886 46.4752 53.1886 46.4754 53.1886C46.4755 53.1886 46.4756 53.1886 46.4757 53.1886C46.4758 53.1886 46.4759 53.1886 46.476 53.1886C46.4761 53.1886 46.4762 53.1886 46.4763 53.1886C46.4764 53.1886 46.4765 53.1886 46.4766 53.1886C46.4768 53.1886 46.4769 53.1886 46.477 53.1886C46.4771 53.1886 46.4772 53.1886 46.4773 53.1886C46.4774 53.1886 46.4775 53.1886 46.4776 53.1886C46.4777 53.1886 46.4778 53.1886 46.4779 53.1886C46.478 53.1886 46.4781 53.1886 46.4782 53.1886C46.4784 53.1886 46.4785 53.1886 46.4786 53.1886C46.4787 53.1886 46.4788 53.1886 46.4789 53.1886C46.479 53.1886 46.4791 53.1886 46.4792 53.1886C46.4793 53.1886 46.4794 53.1886 46.4795 53.1886C46.4796 53.1886 46.4797 53.1886 46.4798 53.1886C46.4799 53.1886 46.48 53.1886 46.4802 53.1886C46.4803 53.1886 46.4804 53.1886 46.4805 53.1886C46.4806 53.1886 46.4807 53.1886 46.4808 53.1886C46.4809 53.1886 46.481 53.1886 46.4811 53.1886C46.4812 53.1886 46.4813 53.1886 46.4814 53.1886C46.4815 53.1886 46.4816 53.1886 46.4817 53.1886C46.4818 53.1886 46.4819 53.1886 46.482 53.1886C46.4821 53.1886 46.4823 53.1886 46.4824 53.1886C46.4825 53.1886 46.4826 53.1886 46.4827 53.1886C46.4828 53.1886 46.4829 53.1886 46.483 53.1886C46.4831 53.1886 46.4832 53.1886 46.4833 53.1886C46.4834 53.1886 46.4835 53.1886 46.4836 53.1886C46.4837 53.1886 46.4838 53.1886 46.4839 53.1886C46.484 53.1886 46.4841 53.1886 46.4842 53.1886C46.4843 53.1886 46.4844 53.1886 46.4845 53.1886C46.4846 53.1886 46.4847 53.1886 46.4848 53.1886C46.485 53.1886 46.4851 53.1886 46.4852 53.1886C46.4853 53.1886 46.4854 53.1886 46.4855 53.1886C46.4856 53.1886 46.4857 53.1886 46.4858 53.1886C46.4859 53.1886 46.486 53.1886 46.4861 53.1886C46.4862 53.1886 46.4863 53.1886 46.4864 53.1886C46.4865 53.1886 46.4866 53.1886 46.4867 53.1886C46.4868 53.1886 46.4869 53.1886 46.487 53.1886C46.4871 53.1886 46.4872 53.1886 46.4873 53.1886C46.4874 53.1886 46.4875 53.1886 46.4876 53.1886C46.4877 53.1886 46.4878 53.1886 46.4879 53.1886C46.488 53.1886 46.4881 53.1886 46.4882 53.1886C46.4883 53.1886 46.4884 53.1886 46.4885 53.1886C46.4886 53.1886 46.4887 53.1886 46.4888 53.1886C46.4889 53.1886 46.489 53.1886 46.4891 53.1886C46.4892 53.1886 46.4893 53.1886 46.4894 53.1886C46.4895 53.1886 46.4896 53.1886 46.4897 53.1886C46.4898 53.1886 46.4899 53.1886 46.49 53.1886C46.4902 53.1886 46.4903 53.1886 46.4904 53.1886C46.4905 53.1886 46.4906 53.1886 46.4907 53.1886C46.4908 53.1886 46.4909 53.1886 46.491 53.1886C46.4911 53.1886 46.4912 53.1886 46.4913 53.1886C46.4914 53.1886 46.4915 53.1886 46.4916 53.1886C46.4917 53.1886 46.4918 53.1886 46.4919 53.1886C46.492 53.1886 46.4921 53.1886 46.4922 53.1886C46.4923 53.1886 46.4924 53.1886 46.4925 53.1886C46.4926 53.1886 46.4927 53.1886 46.4928 53.1886C46.4929 53.1886 46.4929 53.1886 46.493 53.1886C46.4931 53.1886 46.4932 53.1886 46.4933 53.1886C46.4934 53.1886 46.4935 53.1886 46.4936 53.1886C46.4937 53.1886 46.4938 53.1886 46.4939 53.1886C46.494 53.1886 46.4941 53.1886 46.4942 53.1886C46.4943 53.1886 46.4944 53.1886 46.4945 53.1886C46.4946 53.1886 46.4947 53.1886 46.4948 53.1886C46.4949 53.1886 46.495 53.1886 46.4951 53.1886C46.4952 53.1886 46.4953 53.1886 46.4954 53.1886C46.4955 53.1886 46.4956 53.1886 46.4957 53.1886C46.4958 53.1886 46.4959 53.1886 46.496 53.1886C46.4961 53.1886 46.4962 53.1886 46.4963 53.1886C46.4964 53.1886 46.4965 53.1886 46.4966 53.1886C46.4967 53.1886 46.4968 53.1886 46.4969 53.1886C46.497 53.1886 46.4971 53.1886 46.4972 53.1886C46.4973 53.1886 46.4974 53.1886 46.4975 53.1886C46.4976 53.1886 46.4977 53.1886 46.4978 53.1886C46.4979 53.1886 46.4979 53.1886 46.498 53.1886C46.4981 53.1886 46.4982 53.1886 46.4983 53.1886C46.4984 53.1886 46.4985 53.1886 46.4986 53.1886C46.4987 53.1886 46.4988 53.1886 46.4989 53.1886C46.499 53.1886 46.4991 53.1886 46.4992 53.1886C46.4993 53.1886 46.4994 53.1886 46.4995 53.1886C46.4996 53.1886 46.4997 53.1886 46.4998 53.1886C46.4999 53.1886 46.5 53.1886 46.5001 53.1886C46.5002 53.1886 46.5003 53.1886 46.5004 53.1886C46.5004 53.1886 46.5005 53.1886 46.5006 53.1886C46.5007 53.1886 46.5008 53.1886 46.5009 53.1886C46.501 53.1886 46.5011 53.1886 46.5012 53.1886C46.5013 53.1886 46.5014 53.1886 46.5015 53.1886C46.5016 53.1886 46.5017 53.1886 46.5018 53.1886C46.5019 53.1886 46.502 53.1886 46.5021 53.1886C46.5022 53.1886 46.5023 53.1886 46.5023 53.1886C46.5024 53.1886 46.5025 53.1886 46.5026 53.1886C46.5027 53.1886 46.5028 53.1886 46.5029 53.1886C46.503 53.1886 46.5031 53.1886 46.5032 53.1886C46.5033 53.1886 46.5034 53.1886 46.5035 53.1886C46.5036 53.1886 46.5037 53.1886 46.5038 53.1886C46.5039 53.1886 46.5039 53.1886 46.504 53.1886C46.5041 53.1886 46.5042 53.1886 46.5043 53.1886C46.5044 53.1886 46.5045 53.1886 46.5046 53.1886C46.5047 53.1886 46.5048 53.1886 46.5049 53.1886C46.505 53.1886 46.5051 53.1886 46.5052 53.1886C46.5053 53.1886 46.5053 53.1886 46.5054 53.1886C46.5055 53.1886 46.5056 53.1886 46.5057 53.1886C46.5058 53.1886 46.5059 53.1886 46.506 53.1886C46.5061 53.1886 46.5062 53.1886 46.5063 53.1886C46.5064 53.1886 46.5065 53.1886 46.5066 53.1886C46.5066 53.1886 46.5067 53.1886 46.5068 53.1886C46.5069 53.1886 46.507 53.1886 46.5071 53.1886C46.5072 53.1886 46.5073 53.1886 46.5074 53.1886C46.5075 53.1886 46.5076 53.1886 46.5077 53.1886C46.5077 53.1886 46.5078 53.1886 46.5079 53.1886C46.508 53.1886 46.5081 53.1886 46.5082 53.1886C46.5083 53.1886 46.5084 53.1886 46.5085 53.1886C46.5086 53.1886 46.5087 53.1886 46.5088 53.1886C46.5088 53.1886 46.5089 53.1886 46.509 53.1886C46.5091 53.1886 46.5092 53.1886 46.5093 53.1886C46.5094 53.1886 46.5095 53.1886 46.5096 53.1886C46.5097 53.1886 46.5098 53.1886 46.5098 53.1886C46.5099 53.1886 46.51 53.1886 46.5101 53.1886C46.5102 53.1886 46.5103 53.1886 46.5104 53.1886C46.5105 53.1886 46.5106 53.1886 46.5107 53.1886C46.5107 53.1886 46.5108 53.1886 46.5109 53.1886C46.511 53.1886 46.5111 53.1886 46.5112 53.1886C46.5113 53.1886 46.5114 53.1886 46.5115 53.1886C46.5116 53.1886 46.5116 53.1886 46.5117 53.1886C46.5118 53.1886 46.5119 53.1886 46.512 53.1886C46.5121 53.1886 46.5122 53.1886 46.5123 53.1886C46.5124 53.1886 46.5124 53.1886 46.5125 53.1886C46.5126 53.1886 46.5127 53.1886 46.5128 53.1886C46.5129 53.1886 46.513 53.1886 46.5131 53.1886C46.5132 53.1886 46.5132 53.1886 46.5133 53.1886C46.5134 53.1886 46.5135 53.1886 46.5136 53.1886C46.5137 53.1886 46.5138 53.1886 46.5139 53.1886C46.514 53.1886 46.514 53.1886 46.5141 53.1886C46.5142 53.1886 46.5143 53.1886 46.5144 53.1886C46.5145 53.1886 46.5146 53.1886 46.5147 53.1886C46.5147 53.1886 46.5148 53.1886 46.5149 53.1886C46.515 53.1886 46.5151 53.1886 46.5152 53.1886C46.5153 53.1886 46.5154 53.1886 46.5154 53.1886C46.5155 53.1886 46.5156 53.1886 46.5157 53.1886C46.5158 53.1886 46.5159 53.1886 46.516 53.1886C46.5161 53.1886 46.5161 53.1886 46.5162 53.1886C46.5163 53.1886 46.5164 53.1886 46.5165 53.1886C46.5166 53.1886 46.5167 53.1886 46.5168 53.1886C46.5168 53.1886 46.5169 53.1886 46.517 53.1886C46.5171 53.1886 46.5172 53.1886 46.5173 53.1886C46.5174 53.1886 46.5174 53.1886 46.5175 53.1886C46.5176 53.1886 46.5177 53.1886 46.5178 53.1886C46.5179 53.1886 46.518 53.1886 46.518 53.1886C46.5181 53.1886 46.5182 53.1886 46.5183 53.1886C46.5184 53.1886 46.5185 53.1886 46.5186 53.1886C46.5186 53.1886 46.5187 53.1886 46.5188 53.1886C46.5189 53.1886 46.519 53.1886 46.5191 53.1886C46.5192 53.1886 46.5192 53.1886 46.5193 53.1886C46.5194 53.1886 46.5195 53.1886 46.5196 53.1886C46.5197 53.1886 46.5198 53.1886 46.5198 53.1886C46.5199 53.1886 46.52 53.1886 46.5201 53.1886C46.5202 53.1886 46.5203 53.1886 46.5204 53.1886C46.5204 53.1886 46.5205 53.1886 46.5206 53.1886C46.5207 53.1886 46.5208 53.1886 46.5209 53.1886C46.5209 53.1886 46.521 53.1886 46.5211 53.1886C46.5212 53.1886 46.5213 53.1886 46.5214 53.1886C46.5214 53.1886 46.5215 53.1886 46.5216 53.1886C46.5217 53.1886 46.5218 53.1886 46.5219 53.1886C46.522 53.1886 46.522 53.1886 46.5221 53.1886C46.5222 53.1886 46.5223 53.1886 46.5224 53.1886C46.5225 53.1886 46.5225 53.1886 46.5226 53.1886C46.5227 53.1886 46.5228 53.1886 46.5229 53.1886C46.523 53.1886 46.523 53.1886 46.5231 53.1886C46.5232 53.1886 46.5233 53.1886 46.5234 53.1886C46.5235 53.1886 46.5235 53.1886 46.5236 53.1886C46.5237 53.1886 46.5238 53.1886 46.5239 53.1886C46.5239 53.1886 46.524 53.1886 46.5241 53.1886C46.5242 53.1886 46.5243 53.1886 46.5244 53.1886C46.5244 53.1886 46.5245 53.1886 46.5246 53.1886C46.5247 53.1886 46.5248 53.1886 46.5249 53.1886C46.5249 53.1886 46.525 53.1886 46.5251 53.1886C46.5252 53.1886 46.5253 53.1886 46.5253 53.1886C46.5254 53.1886 46.5255 53.1886 46.5256 53.1886C46.5257 53.1886 46.5258 53.1886 46.5258 53.1886C46.5259 53.1886 46.526 53.1886 46.5261 53.1886C46.5262 53.1886 46.5262 53.1886 46.5263 53.1886C46.5264 53.1886 46.5265 53.1886 46.5266 53.1886C46.5266 53.1886 46.5267 53.1886 46.5268 53.1886C46.5269 53.1886 46.527 53.1886 46.5271 53.1886C46.5271 53.1886 46.5272 53.1886 46.5273 53.1886C46.5274 53.1886 46.5275 53.1886 46.5275 53.1886C46.5276 53.1886 46.5277 53.1886 46.5278 53.1886C46.5279 53.1886 46.5279 53.1886 46.528 53.1886C46.5281 53.1886 46.5282 53.1886 46.5283 53.1886C46.5283 53.1886 46.5284 53.1886 46.5285 53.1886C46.5286 53.1886 46.5287 53.1886 46.5287 53.1886C46.5288 53.1886 46.5289 53.1886 46.529 53.1886C46.5291 53.1886 46.5291 53.1886 46.5292 53.1886C46.5293 53.1886 46.5294 53.1886 46.5295 53.1886C46.5295 53.1886 46.5296 53.1886 46.5297 53.1886C46.5298 53.1886 46.5298 53.1886 46.5299 53.1886C46.53 53.1886 46.5301 53.1886 46.5302 53.1886C46.5302 53.1886 46.5303 53.1886 46.5304 53.1886C46.5305 53.1886 46.5306 53.1886 46.5306 53.1886C46.5307 53.1886 46.5308 53.1886 46.5309 53.1886C46.5309 53.1886 46.531 53.1886 46.5311 53.1886C46.5312 53.1886 46.5313 53.1886 46.5313 53.1886C46.5314 53.1886 46.5315 53.1886 46.5316 53.1886C46.5317 53.1886 46.5317 53.1886 46.5318 53.1886C46.5319 53.1886 46.532 53.1886 46.532 53.1886C46.5321 53.1886 46.5322 53.1886 46.5323 53.1886C46.5324 53.1886 46.5324 53.1886 46.5325 53.1886C46.5326 53.1886 46.5327 53.1886 46.5327 53.1886C46.5328 53.1886 46.5329 53.1886 46.533 53.1886C46.533 53.1886 46.5331 53.1886 46.5332 53.1886C46.5333 53.1886 46.5334 53.1886 46.5334 53.1886C46.5335 53.1886 46.5336 53.1886 46.5337 53.1886C46.5337 53.1886 46.5338 53.1886 46.5339 53.1886C46.534 53.1886 46.534 53.1886 46.5341 53.1886C46.5342 53.1886 46.5343 53.1886 46.5344 53.1886C46.5344 53.1886 46.5345 53.1886 46.5346 53.1886C46.5347 53.1886 46.5347 53.1886 46.5348 53.1886C46.5349 53.1886 46.535 53.1886 46.535 53.1886C46.5351 53.1886 46.5352 53.1886 46.5353 53.1886C46.5353 53.1886 46.5354 53.1886 46.5355 53.1886C46.5356 53.1886 46.5356 53.1886 46.5357 53.1886C46.5358 53.1886 46.5359 53.1886 46.5359 53.1886C46.536 53.1886 46.5361 53.1886 46.5362 53.1886C46.5362 53.1886 46.5363 53.1886 46.5364 53.1886C46.5365 53.1886 46.5365 53.1886 46.5366 53.1886C46.5367 53.1886 46.5368 53.1886 46.5368 53.1886C46.5369 53.1886 46.537 53.1886 46.5371 53.1886C46.5371 53.1886 46.5372 53.1886 46.5373 53.1886C46.5374 53.1886 46.5374 53.1886 46.5375 53.1886C46.5376 53.1886 46.5377 53.1886 46.5377 53.1886C46.5378 53.1886 46.5379 53.1886 46.538 53.1886C46.538 53.1886 46.5381 53.1886 46.5382 53.1886C46.5383 53.1886 46.5383 53.1886 46.5384 53.1886V50.5219ZM46.367 50.5219H45.4893V53.1886H46.367V50.5219ZM44.1559 51.8553V52.9727H46.8226V51.8553H44.1559ZM45.4893 51.6393H44.8584V54.306H45.4893V51.6393ZM46.1917 52.9727V49.2798H43.5251V52.9727H46.1917ZM44.8584 50.6131H46.367V47.9465H44.8584V50.6131ZM46.367 50.6131C46.6528 50.6131 46.6751 50.6794 46.6153 50.6294L48.3266 48.5842C47.7457 48.0982 47.0308 47.9465 46.367 47.9465V50.6131ZM46.6219 50.6349C46.6096 50.6247 46.5937 50.6091 46.578 50.5881C46.5621 50.567 46.5504 50.5458 46.5425 50.5273C46.5264 50.4896 46.5354 50.4853 46.5354 50.5403H49.202C49.202 49.814 48.9443 49.0944 48.32 48.5788L46.6219 50.6349ZM46.5354 50.5403C46.5354 50.5884 46.5299 50.6079 46.5303 50.6065C46.5305 50.6058 46.5318 50.601 46.5353 50.5931C46.5387 50.5852 46.5435 50.576 46.5497 50.5664L48.7899 52.0131C49.0866 51.5537 49.202 51.0419 49.202 50.5403H46.5354ZM46.554 50.5598C46.5642 50.5443 46.5803 50.5257 46.6003 50.5099C46.6195 50.4947 46.6298 50.492 46.6201 50.4957L47.5813 52.9831C48.0695 52.7945 48.4884 52.474 48.7856 52.0197L46.554 50.5598ZM45.9944 52.4837L46.8241 53.7169L49.0367 52.2284L48.2069 50.9951L45.9944 52.4837ZM47.9304 51.6393H47.2173V54.306H47.9304V51.6393ZM45.4893 52.6299H46.367V49.9632H45.4893V52.6299ZM46.367 52.6299C46.8165 52.6299 47.402 52.5433 47.8913 52.1421C48.4313 51.6993 48.6054 51.0841 48.6054 50.5539H45.9388C45.9388 50.5452 45.9399 50.4766 45.9802 50.3773C46.0239 50.2698 46.0989 50.1633 46.2004 50.0801C46.3879 49.9263 46.5208 49.9632 46.367 49.9632V52.6299ZM48.6054 50.5539C48.6054 50.0155 48.4194 49.4035 47.8726 48.9713C47.3856 48.5863 46.8083 48.5052 46.367 48.5052V51.1718C46.529 51.1718 46.4044 51.2099 46.219 51.0634C46.1165 50.9823 46.0357 50.8746 45.987 50.759C45.9417 50.6516 45.9388 50.5731 45.9388 50.5539H48.6054ZM46.367 48.5052H45.4893V51.1718H46.367V48.5052ZM44.1559 49.8385V51.2966H46.8226V49.8385H44.1559Z" fill="#FCF5DB" mask="url(#path-7-inside-4_119_250)"/>
<mask id="path-9-inside-5_119_250" fill="white">
<path d="M51.8836 49.7975C52.2625 49.4398 52.7305 49.2593 53.2893 49.2593C53.8465 49.2593 54.3127 49.4398 54.6882 49.7975C55.067 50.1569 55.2573 50.5998 55.2573 51.1262C55.2573 51.6542 55.067 52.0988 54.6882 52.4616C54.3127 52.821 53.8465 52.9998 53.2893 52.9998C52.7305 52.9998 52.2625 52.821 51.8836 52.4616C51.503 52.0988 51.3145 51.6542 51.3145 51.1262C51.3145 50.5998 51.503 50.1569 51.8836 49.7975ZM53.2962 49.818C52.9259 49.818 52.607 49.9457 52.343 50.1995C52.0825 50.4499 51.9522 50.7582 51.9522 51.1262C51.9522 51.4907 52.0842 51.8007 52.3499 52.0596C52.6139 52.3151 52.9276 52.4411 53.2893 52.4411C53.6545 52.4411 53.9682 52.3151 54.2287 52.0596C54.4893 51.8007 54.6196 51.4907 54.6196 51.1262C54.6196 50.7582 54.4893 50.4499 54.2287 50.1995C53.9682 49.9457 53.6562 49.818 53.2962 49.818Z"/>
</mask>
<path d="M51.8836 49.7975C52.2625 49.4398 52.7305 49.2593 53.2893 49.2593C53.8465 49.2593 54.3127 49.4398 54.6882 49.7975C55.067 50.1569 55.2573 50.5998 55.2573 51.1262C55.2573 51.6542 55.067 52.0988 54.6882 52.4616C54.3127 52.821 53.8465 52.9998 53.2893 52.9998C52.7305 52.9998 52.2625 52.821 51.8836 52.4616C51.503 52.0988 51.3145 51.6542 51.3145 51.1262C51.3145 50.5998 51.503 50.1569 51.8836 49.7975ZM53.2962 49.818C52.9259 49.818 52.607 49.9457 52.343 50.1995C52.0825 50.4499 51.9522 50.7582 51.9522 51.1262C51.9522 51.4907 52.0842 51.8007 52.3499 52.0596C52.6139 52.3151 52.9276 52.4411 53.2893 52.4411C53.6545 52.4411 53.9682 52.3151 54.2287 52.0596C54.4893 51.8007 54.6196 51.4907 54.6196 51.1262C54.6196 50.7582 54.4893 50.4499 54.2287 50.1995C53.9682 49.9457 53.6562 49.818 53.2962 49.818Z" fill="#FCF5DB"/>
<path d="M51.8836 49.7975L50.9682 48.8281L50.9681 48.8282L51.8836 49.7975ZM54.6882 49.7975L53.7684 50.7629L53.7705 50.7648L54.6882 49.7975ZM54.6882 52.4616L55.6102 53.4247L55.6104 53.4246L54.6882 52.4616ZM51.8836 52.4616L50.9636 53.4266L50.9659 53.4289L51.8836 52.4616ZM52.343 50.1995L53.2669 51.1609L53.2671 51.1607L52.343 50.1995ZM52.3499 52.0596L51.4194 53.0146L51.4226 53.0177L52.3499 52.0596ZM54.2287 52.0596L55.1623 53.0116L55.1685 53.0054L54.2287 52.0596ZM54.2287 50.1995L53.2984 51.1547L53.3049 51.1609L54.2287 50.1995ZM52.799 50.767C52.9138 50.6585 53.0475 50.5926 53.2893 50.5926V47.9259C52.4134 47.9259 51.6111 48.2211 50.9682 48.8281L52.799 50.767ZM53.2893 50.5926C53.5288 50.5926 53.6583 50.658 53.7684 50.7629L55.6079 48.8322C54.9671 48.2217 54.1641 47.9259 53.2893 47.9259V50.5926ZM53.7705 50.7648C53.8828 50.8713 53.924 50.9639 53.924 51.1262H56.5906C56.5906 50.2357 56.2513 49.4426 55.6058 48.8302L53.7705 50.7648ZM53.924 51.1262C53.924 51.2911 53.8819 51.3876 53.766 51.4986L55.6104 53.4246C56.2522 52.8099 56.5906 52.0173 56.5906 51.1262H53.924ZM53.7661 51.4984C53.6589 51.6011 53.5317 51.6665 53.2893 51.6665V54.3332C54.1613 54.3332 54.9666 54.0409 55.6102 53.4247L53.7661 51.4984ZM53.2893 51.6665C53.0446 51.6665 52.9133 51.6005 52.8012 51.4943L50.9659 53.4289C51.6116 54.0414 52.4163 54.3332 53.2893 54.3332V51.6665ZM52.8036 51.4965C52.6901 51.3883 52.6478 51.2938 52.6478 51.1262H49.9811C49.9811 52.0146 50.316 52.8093 50.9636 53.4266L52.8036 51.4965ZM52.6478 51.1262C52.6478 50.9612 52.6892 50.8707 52.7991 50.7669L50.9681 48.8282C50.3169 49.4432 49.9811 50.2384 49.9811 51.1262H52.6478ZM53.2962 48.4846C52.5852 48.4846 51.9341 48.7431 51.419 49.2383L53.2671 51.1607C53.2765 51.1517 53.2815 51.1484 53.2816 51.1483C53.2818 51.1482 53.2812 51.1486 53.28 51.1493C53.2787 51.1499 53.2771 51.1507 53.2753 51.1514C53.2714 51.1529 53.2694 51.1532 53.2709 51.1529C53.2726 51.1526 53.2805 51.1513 53.2962 51.1513V48.4846ZM51.4192 49.2381C50.8924 49.7444 50.6188 50.4019 50.6188 51.1262H53.2855C53.2855 51.1131 53.2866 51.1096 53.2859 51.1135C53.285 51.1178 53.2829 51.1263 53.2783 51.1372C53.2737 51.148 53.2686 51.1567 53.2647 51.1623C53.2609 51.1677 53.2605 51.167 53.2669 51.1609L51.4192 49.2381ZM50.6188 51.1262C50.6188 51.8571 50.901 52.5095 51.4194 53.0145L53.2804 51.1046C53.2699 51.0944 53.2671 51.0899 53.2685 51.0919C53.2701 51.0942 53.274 51.1005 53.278 51.1099C53.2821 51.1194 53.2844 51.1278 53.2854 51.1331C53.2864 51.1381 53.2855 51.1365 53.2855 51.1262H50.6188ZM51.4226 53.0177C51.9348 53.5134 52.5809 53.7745 53.2893 53.7745V51.1078C53.2766 51.1078 53.2716 51.1067 53.2725 51.1069C53.2737 51.1071 53.2779 51.1081 53.2835 51.1104C53.2861 51.1114 53.2884 51.1125 53.2901 51.1134C53.2919 51.1144 53.2928 51.1149 53.2927 51.1149C53.2927 51.1149 53.2914 51.114 53.2889 51.112C53.2863 51.1099 53.2824 51.1066 53.2771 51.1015L51.4226 53.0177ZM53.2893 53.7745C53.9979 53.7745 54.6484 53.5154 55.1622 53.0116L53.2952 51.1076C53.2867 51.116 53.283 51.1181 53.2848 51.1169C53.2867 51.1157 53.2912 51.113 53.2977 51.1104C53.3041 51.1078 53.3085 51.1068 53.3092 51.1067C53.3097 51.1066 53.3036 51.1078 53.2893 51.1078V53.7745ZM55.1685 53.0054C55.6775 52.4997 55.9529 51.8507 55.9529 51.1262H53.2863C53.2863 51.1375 53.2853 51.1404 53.286 51.1367C53.2868 51.1327 53.2886 51.1256 53.2922 51.1171C53.2957 51.1087 53.2992 51.1031 53.3005 51.1011C53.3017 51.0994 53.299 51.1038 53.289 51.1138L55.1685 53.0054ZM55.9529 51.1262C55.9529 50.4019 55.6794 49.7444 55.1526 49.2381L53.3049 51.1609C53.3113 51.167 53.3109 51.1677 53.3071 51.1623C53.3032 51.1567 53.298 51.148 53.2935 51.1372C53.2889 51.1263 53.2867 51.1178 53.2859 51.1135C53.2851 51.1096 53.2863 51.1131 53.2863 51.1262H55.9529ZM55.1591 49.2444C54.6527 48.7512 54.0081 48.4846 53.2962 48.4846V51.1513C53.307 51.1513 53.3105 51.1522 53.3083 51.1518C53.306 51.1514 53.3009 51.1501 53.2948 51.1476C53.2886 51.1451 53.2849 51.1428 53.2842 51.1423C53.2838 51.142 53.2887 51.1452 53.2984 51.1547L55.1591 49.2444Z" fill="#FCF5DB" mask="url(#path-9-inside-5_119_250)"/>
<mask id="path-11-inside-6_119_250" fill="white">
<path d="M65.6889 49.8385H64.5095V52.9727H63.8786V49.8385H62.7061V49.2798H65.6889V49.8385Z"/>
</mask>
<path d="M65.6889 49.8385H64.5095V52.9727H63.8786V49.8385H62.7061V49.2798H65.6889V49.8385Z" fill="#FCF5DB"/>
<path d="M65.6889 49.8385V51.1718H67.0222V49.8385H65.6889ZM64.5095 49.8385V48.5052H63.1761V49.8385H64.5095ZM64.5095 52.9727V54.306H65.8428V52.9727H64.5095ZM63.8786 52.9727H62.5453V54.306H63.8786V52.9727ZM63.8786 49.8385H65.212V48.5052H63.8786V49.8385ZM62.7061 49.8385H61.3727V51.1718H62.7061V49.8385ZM62.7061 49.2798V47.9465H61.3727V49.2798H62.7061ZM65.6889 49.2798H67.0222V47.9465H65.6889V49.2798ZM65.6889 48.5052H64.5095V51.1718H65.6889V48.5052ZM63.1761 49.8385V52.9727H65.8428V49.8385H63.1761ZM64.5095 51.6393H63.8786V54.306H64.5095V51.6393ZM65.212 52.9727V49.8385H62.5453V52.9727H65.212ZM63.8786 48.5052H62.7061V51.1718H63.8786V48.5052ZM64.0394 49.8385V49.2798H61.3727V49.8385H64.0394ZM62.7061 50.6131H65.6889V47.9465H62.7061V50.6131ZM64.3556 49.2798V49.8385H67.0222V49.2798H64.3556Z" fill="#FCF5DB" mask="url(#path-11-inside-6_119_250)"/>
<mask id="path-13-inside-7_119_250" fill="white">
<path d="M71.4764 52.4071V52.9727H69.2341V51.0308L68.7952 51.1535L68.6924 50.7583L69.2341 50.5948V49.2798H69.8581V50.4108L70.7084 50.1655L70.8181 50.5675L69.8581 50.8469V52.4071H71.4764Z"/>
</mask>
<path d="M71.4764 52.4071V52.9727H69.2341V51.0308L68.7952 51.1535L68.6924 50.7583L69.2341 50.5948V49.2798H69.8581V50.4108L70.7084 50.1655L70.8181 50.5675L69.8581 50.8469V52.4071H71.4764Z" fill="#FCF5DB"/>
<path d="M71.4764 52.4071H72.8097V51.0738H71.4764V52.4071ZM71.4764 52.9727V54.306H72.8097V52.9727H71.4764ZM69.2341 52.9727H67.9008V54.306H69.2341V52.9727ZM69.2341 51.0308H70.5674V49.2738L68.8752 49.7467L69.2341 51.0308ZM68.7952 51.1535L67.5049 51.4893L67.8468 52.8029L69.1541 52.4376L68.7952 51.1535ZM68.6924 50.7583L68.3071 49.4819L67.0789 49.8526L67.402 51.0941L68.6924 50.7583ZM69.2341 50.5948L69.6194 51.8712L70.5674 51.5851V50.5948H69.2341ZM69.2341 49.2798V47.9465H67.9008V49.2798H69.2341ZM69.8581 49.2798H71.1914V47.9465H69.8581V49.2798ZM69.8581 50.4108H68.5248V52.1831L70.2277 51.6919L69.8581 50.4108ZM70.7084 50.1655L71.9947 49.8145L71.6385 48.5095L70.3388 48.8844L70.7084 50.1655ZM70.8181 50.5675L71.1906 51.8478L72.4496 51.4814L72.1044 50.2165L70.8181 50.5675ZM69.8581 50.8469L69.4856 49.5666L68.5248 49.8462V50.8469H69.8581ZM69.8581 52.4071H68.5248V53.7405H69.8581V52.4071ZM70.143 52.4071V52.9727H72.8097V52.4071H70.143ZM71.4764 51.6393H69.2341V54.306H71.4764V51.6393ZM70.5674 52.9727V51.0308H67.9008V52.9727H70.5674ZM68.8752 49.7467L68.4364 49.8693L69.1541 52.4376L69.593 52.315L68.8752 49.7467ZM70.0856 50.8176L69.9827 50.4224L67.402 51.0941L67.5049 51.4893L70.0856 50.8176ZM69.0777 52.0347L69.6194 51.8712L68.8488 49.3183L68.3071 49.4819L69.0777 52.0347ZM70.5674 50.5948V49.2798H67.9008V50.5948H70.5674ZM69.2341 50.6131H69.8581V47.9465H69.2341V50.6131ZM68.5248 49.2798V50.4108H71.1914V49.2798H68.5248ZM70.2277 51.6919L71.0779 51.4466L70.3388 48.8844L69.4885 49.1297L70.2277 51.6919ZM69.4221 50.5166L69.5318 50.9186L72.1044 50.2165L71.9947 49.8145L69.4221 50.5166ZM70.4456 49.2873L69.4856 49.5666L70.2306 52.1271L71.1906 51.8478L70.4456 49.2873ZM68.5248 50.8469V52.4071H71.1914V50.8469H68.5248ZM69.8581 53.7405H71.4764V51.0738H69.8581V53.7405Z" fill="#FCF5DB" mask="url(#path-13-inside-7_119_250)"/>
<mask id="path-15-inside-8_119_250" fill="white">
<path d="M78.1565 49.2798V51.4396C78.1565 51.9217 78.0125 52.3032 77.7245 52.5843C77.4399 52.8619 77.0474 52.9999 76.5451 52.9999C76.0411 52.9999 75.6434 52.8619 75.3519 52.5843C75.0639 52.3032 74.9199 51.9217 74.9199 51.4396V49.2798H75.5508V51.4396C75.5508 51.7496 75.6399 51.9949 75.8182 52.1755C75.9965 52.3526 76.2399 52.4412 76.5519 52.4412C76.8536 52.4412 77.0902 52.3526 77.2651 52.1755C77.4434 51.9983 77.5325 51.7531 77.5325 51.4396V49.2798H78.1565Z"/>
</mask>
<path d="M78.1565 49.2798V51.4396C78.1565 51.9217 78.0125 52.3032 77.7245 52.5843C77.4399 52.8619 77.0474 52.9999 76.5451 52.9999C76.0411 52.9999 75.6434 52.8619 75.3519 52.5843C75.0639 52.3032 74.9199 51.9217 74.9199 51.4396V49.2798H75.5508V51.4396C75.5508 51.7496 75.6399 51.9949 75.8182 52.1755C75.9965 52.3526 76.2399 52.4412 76.5519 52.4412C76.8536 52.4412 77.0902 52.3526 77.2651 52.1755C77.4434 51.9983 77.5325 51.7531 77.5325 51.4396V49.2798H78.1565Z" fill="#FCF5DB"/>
<path d="M78.1565 49.2798H79.4898V47.9465H78.1565V49.2798ZM77.7245 52.5843L78.6556 53.5386L78.6557 53.5385L77.7245 52.5843ZM75.3519 52.5843L74.4207 53.5385L74.4264 53.5441L74.4322 53.5497L75.3519 52.5843ZM74.9199 49.2798V47.9465H73.5866V49.2798H74.9199ZM75.5508 49.2798H76.8841V47.9465H75.5508V49.2798ZM75.8182 52.1755L74.8694 53.1124L74.8784 53.1213L75.8182 52.1755ZM77.2651 52.1755L76.3252 51.2296L76.3161 51.2388L77.2651 52.1755ZM77.5325 49.2798V47.9465H76.1992V49.2798H77.5325ZM76.8232 49.2798V51.4396H79.4898V49.2798H76.8232ZM76.8232 51.4396C76.8232 51.5485 76.807 51.6009 76.801 51.6165C76.7969 51.6275 76.7959 51.6275 76.7933 51.63L78.6557 53.5385C79.2508 52.9578 79.4898 52.2045 79.4898 51.4396H76.8232ZM76.7934 51.6299C76.7931 51.6302 76.7935 51.6299 76.7932 51.6301C76.7927 51.6304 76.7872 51.6338 76.7735 51.6386C76.7455 51.6485 76.6758 51.6666 76.5451 51.6666V54.3332C77.2979 54.3332 78.06 54.1197 78.6556 53.5386L76.7934 51.6299ZM76.5451 51.6666C76.4133 51.6666 76.34 51.6484 76.307 51.637C76.2789 51.6272 76.273 51.6202 76.2716 51.6189L74.4322 53.5497C75.0313 54.1204 75.7911 54.3332 76.5451 54.3332V51.6666ZM76.2832 51.63C76.2805 51.6275 76.2795 51.6275 76.2754 51.6165C76.2695 51.6009 76.2533 51.5485 76.2533 51.4396H73.5866C73.5866 52.2045 73.8256 52.9578 74.4207 53.5385L76.2832 51.63ZM76.2533 51.4396V49.2798H73.5866V51.4396H76.2533ZM74.9199 50.6131H75.5508V47.9465H74.9199V50.6131ZM74.2174 49.2798V51.4396H76.8841V49.2798H74.2174ZM74.2174 51.4396C74.2174 52.0178 74.3922 52.629 74.8695 53.1123L76.767 51.2387C76.8167 51.289 76.8517 51.3481 76.8708 51.4007C76.8882 51.4486 76.8841 51.4678 76.8841 51.4396H74.2174ZM74.8784 53.1213C75.3624 53.6022 75.9753 53.7745 76.5519 53.7745V51.1079C76.5209 51.1079 76.5401 51.1034 76.5894 51.1213C76.6439 51.1411 76.7055 51.1775 76.758 51.2297L74.8784 53.1213ZM76.5519 53.7745C77.1319 53.7745 77.7384 53.5939 78.214 53.1121L76.3161 51.2388C76.3669 51.1874 76.4295 51.1481 76.49 51.1255C76.5456 51.1048 76.573 51.1079 76.5519 51.1079V53.7745ZM78.2049 53.1213C78.694 52.6353 78.8658 52.0153 78.8658 51.4396H76.1992C76.1992 51.4714 76.1946 51.4526 76.2125 51.4032C76.2323 51.3486 76.2697 51.2848 76.3253 51.2297L78.2049 53.1213ZM78.8658 51.4396V49.2798H76.1992V51.4396H78.8658ZM77.5325 50.6131H78.1565V47.9465H77.5325V50.6131Z" fill="#FCF5DB" mask="url(#path-15-inside-8_119_250)"/>
<mask id="path-17-inside-9_119_250" fill="white">
<path d="M85.9145 52.9727H85.3317V50.2132L84.1522 52.5843H83.7477L82.5682 50.2132V52.9727H81.9785V49.2798H82.7259L83.9534 51.7326L85.1739 49.2798H85.9145V52.9727Z"/>
</mask>
<path d="M85.9145 52.9727H85.3317V50.2132L84.1522 52.5843H83.7477L82.5682 50.2132V52.9727H81.9785V49.2798H82.7259L83.9534 51.7326L85.1739 49.2798H85.9145V52.9727Z" fill="#FCF5DB"/>
<path d="M85.9145 52.9727V54.306H87.2478V52.9727H85.9145ZM85.3317 52.9727H83.9983V54.306H85.3317V52.9727ZM85.3317 50.2132H86.665L84.1379 49.6194L85.3317 50.2132ZM84.1522 52.5843V53.9176H84.9782L85.346 53.1781L84.1522 52.5843ZM83.7477 52.5843L82.5539 53.1781L82.9217 53.9176H83.7477V52.5843ZM82.5682 50.2132L83.762 49.6194L81.2349 50.2132H82.5682ZM82.5682 52.9727V54.306H83.9016V52.9727H82.5682ZM81.9785 52.9727H80.6452V54.306H81.9785V52.9727ZM81.9785 49.2798V47.9465H80.6452V49.2798H81.9785ZM82.7259 49.2798L83.9183 48.6831L83.5497 47.9465H82.7259V49.2798ZM83.9534 51.7326L82.761 52.3293L83.9567 54.7187L85.1471 52.3266L83.9534 51.7326ZM85.1739 49.2798V47.9465H84.3481L83.9802 48.6858L85.1739 49.2798ZM85.9145 49.2798H87.2478V47.9465H85.9145V49.2798ZM85.9145 51.6393H85.3317V54.306H85.9145V51.6393ZM86.665 52.9727V50.2132H83.9983V52.9727H86.665ZM84.1379 49.6194L82.9584 51.9905L85.346 53.1781L86.5255 50.807L84.1379 49.6194ZM84.1522 51.251H83.7477V53.9176H84.1522V51.251ZM84.9415 51.9905L83.762 49.6194L81.3744 50.807L82.5539 53.1781L84.9415 51.9905ZM81.2349 50.2132V52.9727H83.9016V50.2132H81.2349ZM82.5682 51.6393H81.9785V54.306H82.5682V51.6393ZM83.3118 52.9727V49.2798H80.6452V52.9727H83.3118ZM81.9785 50.6131H82.7259V47.9465H81.9785V50.6131ZM81.5336 49.8765L82.761 52.3293L85.1457 51.1359L83.9183 48.6831L81.5336 49.8765ZM85.1471 52.3266L86.3676 49.8738L83.9802 48.6858L82.7597 51.1386L85.1471 52.3266ZM85.1739 50.6131H85.9145V47.9465H85.1739V50.6131ZM84.5812 49.2798V52.9727H87.2478V49.2798H84.5812Z" fill="#FCF5DB" mask="url(#path-17-inside-9_119_250)"/>
<mask id="path-19-inside-10_119_250" fill="white">
<path d="M92.2228 52.1414H90.3439L89.9874 52.9727H89.3359L90.9748 49.2798H91.6194L93.2445 52.9727H92.5794L92.2228 52.1414ZM91.9828 51.5827L91.2765 49.9407L90.5771 51.5827H91.9828Z"/>
</mask>
<path d="M92.2228 52.1414H90.3439L89.9874 52.9727H89.3359L90.9748 49.2798H91.6194L93.2445 52.9727H92.5794L92.2228 52.1414ZM91.9828 51.5827L91.2765 49.9407L90.5771 51.5827H91.9828Z" fill="#FCF5DB"/>
<path d="M92.2228 52.1414L93.4481 51.6158L93.1017 50.8081H92.2228V52.1414ZM90.3439 52.1414V50.8081H89.4651L89.1186 51.6158L90.3439 52.1414ZM89.9874 52.9727V54.306H90.8662L91.2127 53.4983L89.9874 52.9727ZM89.3359 52.9727L88.1172 52.4318L87.2855 54.306H89.3359V52.9727ZM90.9748 49.2798V47.9465H90.1078L89.7561 48.7389L90.9748 49.2798ZM91.6194 49.2798L92.8398 48.7427L92.4893 47.9465H91.6194V49.2798ZM93.2445 52.9727V54.306H95.288L94.4649 52.4356L93.2445 52.9727ZM92.5794 52.9727L91.354 53.4983L91.7005 54.306H92.5794V52.9727ZM91.9828 51.5827V52.9161H94.0077L93.2076 51.0559L91.9828 51.5827ZM91.2765 49.9407L92.5013 49.4139L91.2705 46.5523L90.0498 49.4182L91.2765 49.9407ZM90.5771 51.5827L89.3504 51.0602L88.5599 52.9161H90.5771V51.5827ZM92.2228 50.8081H90.3439V53.4748H92.2228V50.8081ZM89.1186 51.6158L88.762 52.447L91.2127 53.4983L91.5693 52.6671L89.1186 51.6158ZM89.9874 51.6393H89.3359V54.306H89.9874V51.6393ZM90.5546 53.5135L92.1935 49.8206L89.7561 48.7389L88.1172 52.4318L90.5546 53.5135ZM90.9748 50.6131H91.6194V47.9465H90.9748V50.6131ZM90.399 49.8168L92.0241 53.5097L94.4649 52.4356L92.8398 48.7427L90.399 49.8168ZM93.2445 51.6393H92.5794V54.306H93.2445V51.6393ZM93.8047 52.447L93.4481 51.6158L90.9974 52.6671L91.354 53.4983L93.8047 52.447ZM93.2076 51.0559L92.5013 49.4139L90.0517 50.4675L90.758 52.1096L93.2076 51.0559ZM90.0498 49.4182L89.3504 51.0602L91.8038 52.1052L92.5032 50.4632L90.0498 49.4182ZM90.5771 52.9161H91.9828V50.2494H90.5771V52.9161Z" fill="#FCF5DB" mask="url(#path-19-inside-10_119_250)"/>
<mask id="path-21-inside-11_119_250" fill="white">
<path d="M98.3132 49.2593C98.5738 49.2593 98.8275 49.3104 99.0743 49.4092C99.3246 49.5097 99.5423 49.651 99.7258 49.8316L99.3555 50.2881C99.2218 50.1433 99.0623 50.0292 98.8755 49.9474C98.6921 49.8623 98.5069 49.818 98.3201 49.818C97.9498 49.818 97.6343 49.944 97.3738 50.1927C97.1166 50.4431 96.9898 50.7497 96.9898 51.1125C96.9898 51.4805 97.1166 51.7922 97.3738 52.046C97.6343 52.2964 97.9498 52.4207 98.3201 52.4207C98.7075 52.4207 99.0538 52.2742 99.3555 51.9778L99.7258 52.3934C99.5372 52.5808 99.3161 52.7273 99.0606 52.8363C98.8035 52.9453 98.5463 52.9998 98.2858 52.9998C97.7406 52.9998 97.2812 52.821 96.9075 52.4616C96.5372 52.0988 96.3521 51.6508 96.3521 51.1193C96.3521 50.5981 96.5389 50.1569 96.9143 49.7975C97.2932 49.4398 97.7595 49.2593 98.3132 49.2593Z"/>
</mask>
<path d="M98.3132 49.2593C98.5738 49.2593 98.8275 49.3104 99.0743 49.4092C99.3246 49.5097 99.5423 49.651 99.7258 49.8316L99.3555 50.2881C99.2218 50.1433 99.0623 50.0292 98.8755 49.9474C98.6921 49.8623 98.5069 49.818 98.3201 49.818C97.9498 49.818 97.6343 49.944 97.3738 50.1927C97.1166 50.4431 96.9898 50.7497 96.9898 51.1125C96.9898 51.4805 97.1166 51.7922 97.3738 52.046C97.6343 52.2964 97.9498 52.4207 98.3201 52.4207C98.7075 52.4207 99.0538 52.2742 99.3555 51.9778L99.7258 52.3934C99.5372 52.5808 99.3161 52.7273 99.0606 52.8363C98.8035 52.9453 98.5463 52.9998 98.2858 52.9998C97.7406 52.9998 97.2812 52.821 96.9075 52.4616C96.5372 52.0988 96.3521 51.6508 96.3521 51.1193C96.3521 50.5981 96.5389 50.1569 96.9143 49.7975C97.2932 49.4398 97.7595 49.2593 98.3132 49.2593Z" fill="#FCF5DB"/>
<path d="M99.0743 49.4092L99.5712 48.1719L99.5697 48.1713L99.0743 49.4092ZM99.7258 49.8316L100.761 50.6715L101.524 49.731L100.661 48.8814L99.7258 49.8316ZM99.3555 50.2881L98.376 51.1927L99.4208 52.3241L100.391 51.128L99.3555 50.2881ZM98.8755 49.9474L98.314 51.1568L98.3274 51.163L98.341 51.1689L98.8755 49.9474ZM97.3738 50.1927L96.4532 49.2281L96.4436 49.2375L97.3738 50.1927ZM97.3738 52.046L96.4371 52.9949L96.4435 53.0012L96.4499 53.0074L97.3738 52.046ZM99.3555 51.9778L100.351 51.0909L99.4198 50.0456L98.4211 51.0267L99.3555 51.9778ZM99.7258 52.3934L100.666 53.3393L101.561 52.4493L100.721 51.5065L99.7258 52.3934ZM99.0606 52.8363L99.581 54.0639L99.584 54.0626L99.0606 52.8363ZM96.9075 52.4616L95.9743 53.414L95.9832 53.4226L96.9075 52.4616ZM96.9143 49.7975L95.999 48.828L95.9923 48.8344L96.9143 49.7975ZM98.3132 50.5926C98.3948 50.5926 98.4808 50.6078 98.5789 50.6471L99.5697 48.1713C99.1742 48.013 98.7527 47.9259 98.3132 47.9259V50.5926ZM98.5775 50.6465C98.6712 50.6841 98.7381 50.7303 98.7904 50.7818L100.661 48.8814C100.347 48.5718 99.978 48.3352 99.5712 48.1719L98.5775 50.6465ZM98.6903 48.9917L98.32 49.4482L100.391 51.128L100.761 50.6715L98.6903 48.9917ZM100.335 49.3835C100.076 49.1027 99.7645 48.8811 99.41 48.7259L98.341 51.1689C98.3527 51.1741 98.3591 51.1782 98.3626 51.1807C98.3661 51.1831 98.3703 51.1866 98.376 51.1927L100.335 49.3835ZM99.437 48.7381C99.0999 48.5816 98.724 48.4846 98.3201 48.4846V51.1513C98.314 51.1513 98.3084 51.1509 98.3037 51.1504C98.2991 51.1498 98.2959 51.1492 98.2945 51.1489C98.2915 51.1481 98.2978 51.1492 98.314 51.1568L99.437 48.7381ZM98.3201 48.4846C97.6131 48.4846 96.9662 48.7386 96.4532 49.2282L98.2943 51.1573C98.3027 51.1492 98.3068 51.1468 98.306 51.1472C98.3051 51.1478 98.302 51.1496 98.2976 51.1514C98.2933 51.1531 98.2911 51.1534 98.2929 51.1531C98.2948 51.1527 98.3034 51.1513 98.3201 51.1513V48.4846ZM96.4436 49.2375C95.9223 49.7451 95.6564 50.399 95.6564 51.1125H98.3231C98.3231 51.0997 98.3242 51.0962 98.3235 51.1C98.3227 51.1041 98.3206 51.1125 98.3162 51.1232C98.3117 51.1339 98.3066 51.1426 98.3026 51.1484C98.2988 51.154 98.2981 51.1537 98.304 51.148L96.4436 49.2375ZM95.6564 51.1125C95.6564 51.8242 95.9171 52.4817 96.4371 52.9949L98.3104 51.097C98.3045 51.0912 98.3047 51.0903 98.3078 51.095C98.3111 51.0999 98.3153 51.1072 98.3189 51.1159C98.3225 51.1247 98.3238 51.1308 98.3241 51.1324C98.3244 51.1337 98.3231 51.1277 98.3231 51.1125H95.6564ZM96.4499 53.0074C96.9672 53.5044 97.6171 53.754 98.3201 53.754V51.0874C98.3023 51.0874 98.2931 51.0859 98.2909 51.0855C98.2889 51.0851 98.2913 51.0854 98.2962 51.0874C98.3012 51.0893 98.3051 51.0915 98.3069 51.0927C98.3085 51.0938 98.3053 51.092 98.2976 51.0846L96.4499 53.0074ZM98.3201 53.754C99.0851 53.754 99.7596 53.4498 100.29 52.929L98.4211 51.0267C98.3751 51.0719 98.3495 51.0828 98.3468 51.084C98.3444 51.085 98.3429 51.0854 98.3409 51.0858C98.3388 51.0863 98.3324 51.0874 98.3201 51.0874V53.754ZM98.3599 52.8648L98.7302 53.2804L100.721 51.5065L100.351 51.0909L98.3599 52.8648ZM98.786 51.4476C98.7247 51.5085 98.6474 51.563 98.5372 51.61L99.584 54.0626C99.9847 53.8916 100.35 53.6531 100.666 53.3393L98.786 51.4476ZM98.5402 51.6087C98.4345 51.6535 98.3538 51.6665 98.2858 51.6665V54.3332C98.7389 54.3332 99.1724 54.2371 99.581 54.0639L98.5402 51.6087ZM98.2858 51.6665C98.0641 51.6665 97.9422 51.6068 97.8317 51.5006L95.9832 53.4226C96.6202 54.0352 97.4172 54.3332 98.2858 54.3332V51.6665ZM97.8406 51.5092C97.7339 51.4046 97.6854 51.3032 97.6854 51.1193H95.0187C95.0187 51.9983 95.3405 52.7929 95.9743 53.414L97.8406 51.5092ZM97.6854 51.1193C97.6854 50.9584 97.7262 50.8662 97.8364 50.7607L95.9923 48.8344C95.3517 49.4477 95.0187 50.2379 95.0187 51.1193H97.6854ZM97.8297 50.767C97.9467 50.6566 98.0795 50.5926 98.3132 50.5926V47.9259C97.4394 47.9259 96.6397 48.2231 95.999 48.8281L97.8297 50.767Z" fill="#FCF5DB" mask="url(#path-21-inside-11_119_250)"/>
<mask id="path-23-inside-12_119_250" fill="white">
<path d="M106.112 49.7227L103.849 52.414H106.14V52.9727H102.999V52.523L105.269 49.8385H103.068V49.2798H106.112V49.7227Z"/>
</mask>
<path d="M106.112 49.7227L103.849 52.414H106.14V52.9727H102.999V52.523L105.269 49.8385H103.068V49.2798H106.112V49.7227Z" fill="#FCF5DB"/>
<path d="M106.112 49.7227L107.133 50.5807L107.445 50.2087V49.7227H106.112ZM103.849 52.414L102.829 51.5559L100.986 53.7473H103.849V52.414ZM106.14 52.414H107.473V51.0806H106.14V52.414ZM106.14 52.9727V54.306H107.473V52.9727H106.14ZM102.999 52.9727H101.666V54.306H102.999V52.9727ZM102.999 52.523L101.981 51.6621L101.666 52.0349V52.523H102.999ZM105.269 49.8385L106.287 50.6993L108.142 48.5052H105.269V49.8385ZM103.068 49.8385H101.734V51.1718H103.068V49.8385ZM103.068 49.2798V47.9465H101.734V49.2798H103.068ZM106.112 49.2798H107.445V47.9465H106.112V49.2798ZM105.092 48.8646L102.829 51.5559L104.87 53.272L107.133 50.5807L105.092 48.8646ZM103.849 53.7473H106.14V51.0806H103.849V53.7473ZM104.806 52.414V52.9727H107.473V52.414H104.806ZM106.14 51.6393H102.999V54.306H106.14V51.6393ZM104.332 52.9727V52.523H101.666V52.9727H104.332ZM104.017 53.3838L106.287 50.6993L104.251 48.9776L101.981 51.6621L104.017 53.3838ZM105.269 48.5052H103.068V51.1718H105.269V48.5052ZM104.401 49.8385V49.2798H101.734V49.8385H104.401ZM103.068 50.6131H106.112V47.9465H103.068V50.6131ZM104.779 49.2798V49.7227H107.445V49.2798H104.779Z" fill="#FCF5DB" mask="url(#path-23-inside-12_119_250)"/>
<mask id="path-25-inside-13_119_250" fill="white">
<path d="M112.41 49.8385H110.38V50.8332H112.197V51.3919H110.38V52.414H112.471V52.9727H109.749V49.2798H112.41V49.8385Z"/>
</mask>
<path d="M112.41 49.8385H110.38V50.8332H112.197V51.3919H110.38V52.414H112.471V52.9727H109.749V49.2798H112.41V49.8385Z" fill="#FCF5DB"/>
<path d="M112.41 49.8385V51.1718H113.743V49.8385H112.41ZM110.38 49.8385V48.5052H109.047V49.8385H110.38ZM110.38 50.8332H109.047V52.1666H110.38V50.8332ZM112.197 50.8332H113.53V49.4999H112.197V50.8332ZM112.197 51.3919V52.7253H113.53V51.3919H112.197ZM110.38 51.3919V50.0586H109.047V51.3919H110.38ZM110.38 52.414H109.047V53.7473H110.38V52.414ZM112.471 52.414H113.805V51.0806H112.471V52.414ZM112.471 52.9727V54.306H113.805V52.9727H112.471ZM109.749 52.9727H108.416V54.306H109.749V52.9727ZM109.749 49.2798V47.9465H108.416V49.2798H109.749ZM112.41 49.2798H113.743V47.9465H112.41V49.2798ZM112.41 48.5052H110.38V51.1718H112.41V48.5052ZM109.047 49.8385V50.8332H111.713V49.8385H109.047ZM110.38 52.1666H112.197V49.4999H110.38V52.1666ZM110.864 50.8332V51.3919H113.53V50.8332H110.864ZM112.197 50.0586H110.38V52.7253H112.197V50.0586ZM109.047 51.3919V52.414H111.713V51.3919H109.047ZM110.38 53.7473H112.471V51.0806H110.38V53.7473ZM111.138 52.414V52.9727H113.805V52.414H111.138ZM112.471 51.6393H109.749V54.306H112.471V51.6393ZM111.082 52.9727V49.2798H108.416V52.9727H111.082ZM109.749 50.6131H112.41V47.9465H109.749V50.6131ZM111.076 49.2798V49.8385H113.743V49.2798H111.076Z" fill="#FCF5DB" mask="url(#path-25-inside-13_119_250)"/>
<mask id="path-27-inside-14_119_250" fill="white">
<path d="M118.613 48.36L117.962 48.8778H117.42L117.982 48.0942L118.613 48.36ZM119.388 52.9726H118.771L116.789 50.3222V52.9726H116.158V49.2798H116.775L118.771 51.9302V49.2798H119.388V52.9726Z"/>
</mask>
<path d="M118.613 48.36L117.962 48.8778H117.42L117.982 48.0942L118.613 48.36ZM119.388 52.9726H118.771L116.789 50.3222V52.9726H116.158V49.2798H116.775L118.771 51.9302V49.2798H119.388V52.9726Z" fill="#FCF5DB"/>
<path d="M118.613 48.36L119.443 49.4037L121.203 48.0042L119.131 47.1312L118.613 48.36ZM117.962 48.8778V50.2111H118.427L118.791 49.9215L117.962 48.8778ZM117.42 48.8778L116.337 48.1004L114.822 50.2111H117.42V48.8778ZM117.982 48.0942L118.5 46.8655L117.519 46.4525L116.899 47.3169L117.982 48.0942ZM119.388 52.9726V54.306H120.721V52.9726H119.388ZM118.771 52.9726L117.703 53.7711L118.103 54.306H118.771V52.9726ZM116.789 50.3222L117.857 49.5238L115.456 46.3124V50.3222H116.789ZM116.789 52.9726V54.306H118.122V52.9726H116.789ZM116.158 52.9726H114.825V54.306H116.158V52.9726ZM116.158 49.2798V47.9464H114.825V49.2798H116.158ZM116.775 49.2798L117.841 48.4778L117.44 47.9464H116.775V49.2798ZM118.771 51.9302L117.706 52.7321L120.104 55.918V51.9302H118.771ZM118.771 49.2798V47.9464H117.437V49.2798H118.771ZM119.388 49.2798H120.721V47.9464H119.388V49.2798ZM117.783 47.3162L117.132 47.834L118.791 49.9215L119.443 49.4037L117.783 47.3162ZM117.962 47.5444H117.42V50.2111H117.962V47.5444ZM118.503 49.6552L119.065 48.8716L116.899 47.3169L116.337 48.1004L118.503 49.6552ZM117.465 49.323L118.095 49.5887L119.131 47.1312L118.5 46.8655L117.465 49.323ZM119.388 51.6393H118.771V54.306H119.388V51.6393ZM119.839 52.1742L117.857 49.5238L115.721 51.1207L117.703 53.7711L119.839 52.1742ZM115.456 50.3222V52.9726H118.122V50.3222H115.456ZM116.789 51.6393H116.158V54.306H116.789V51.6393ZM117.492 52.9726V49.2798H114.825V52.9726H117.492ZM116.158 50.6131H116.775V47.9464H116.158V50.6131ZM115.71 50.0817L117.706 52.7321L119.836 51.1282L117.841 48.4778L115.71 50.0817ZM120.104 51.9302V49.2798H117.437V51.9302H120.104ZM118.771 50.6131H119.388V47.9464H118.771V50.6131ZM118.055 49.2798V52.9726H120.721V49.2798H118.055Z" fill="#FCF5DB" mask="url(#path-27-inside-14_119_250)"/>
<path d="M64.5185 6.05152C64.5131 6.04191 64.5076 6.03232 64.5021 6.02274C64.5079 6.0214 64.5137 6.02001 64.5194 6.01857C64.5191 6.02952 64.5188 6.0405 64.5185 6.05152ZM57.5358 18.4731C57.4694 18.4776 57.4068 18.4885 57.348 18.5047C57.3502 18.3873 57.3523 18.2652 57.3542 18.1384C57.4116 18.2526 57.4722 18.3642 57.5358 18.4731ZM65.3458 16.1054C65.3458 17.1756 65.0254 17.9553 64.4266 18.5206C64.6304 18.0431 64.7248 17.4998 64.7248 16.9094C64.7248 15.9299 64.3874 15.0734 63.7138 14.3807C63.1058 13.7523 62.1812 13.077 60.9808 12.3527L60.9808 12.3527C60.1291 11.8389 59.4519 11.3895 58.9428 11.0038C58.4801 10.6475 58.1044 10.2223 57.8107 9.72518C57.5454 9.26737 57.4014 8.71291 57.4014 8.03833C57.4014 7.34817 57.5429 6.8004 57.8076 6.36593C57.7403 6.63448 57.7069 6.91781 57.7069 7.2139C57.7069 7.87034 57.8596 8.4761 58.1933 9.00649L58.1935 9.00692C58.4942 9.48405 58.876 9.89296 59.3367 10.2313L59.3374 10.2318C59.7552 10.5378 60.3357 10.9212 61.0741 11.3782L61.0741 11.3783L61.0782 11.3808L61.7138 11.7678C62.6203 12.3292 63.3207 12.8115 63.825 13.2178L63.827 13.2194C64.3014 13.5987 64.6722 14.0271 64.9487 14.5045L64.9486 14.5045L64.9511 14.5087C65.206 14.9415 65.3458 15.4666 65.3458 16.1054Z" fill="#FCF5DB" stroke="#FCF5DB" stroke-width="1.33333"/>
<path d="M77.5514 19.2379C77.7066 19.0943 77.8445 18.9333 77.9651 18.7561C77.9756 18.9176 77.9876 19.0818 78.0011 19.2487C77.8591 19.2448 77.7092 19.2412 77.5514 19.2379ZM70.6653 19.0511C70.6854 19.1085 70.7083 19.1639 70.734 19.2171C70.3143 19.2204 69.9178 19.2245 69.5444 19.2293C69.5721 19.1733 69.5968 19.115 69.6184 19.0544L69.6184 19.0544L69.6207 19.0478C69.7444 18.6889 69.7874 18.1954 69.7874 17.6314V6.81854C69.7874 6.25712 69.7446 5.76349 69.6198 5.40626L69.6194 5.40508C69.597 5.34139 69.5712 5.28007 69.542 5.22131C69.9169 5.22613 70.315 5.23016 70.7365 5.23341C70.7097 5.28855 70.686 5.346 70.6653 5.40562C70.5376 5.76612 70.4975 6.26236 70.4975 6.81854V11.7321V11.9627V12.3987V12.6293V17.6314C70.4975 18.1916 70.538 18.6887 70.6653 19.0511ZM74.2334 12.1126C74.3015 12.0537 74.366 11.9922 74.4266 11.9282V12.1807C74.4266 12.2405 74.4269 12.3021 74.4274 12.3655C74.3465 12.2907 74.2613 12.2231 74.1724 12.1626C74.1912 12.1478 74.2099 12.1326 74.2283 12.117L74.2283 12.117L74.2334 12.1126ZM77.544 5.36781C77.5016 5.31254 77.457 5.25927 77.4101 5.20809C77.4601 5.20678 77.5092 5.20543 77.5574 5.20405C77.5527 5.25897 77.5483 5.31356 77.544 5.36781Z" fill="#FCF5DB" stroke="#FCF5DB" stroke-width="1.33333"/>
<path d="M91.373 6.90864L91.3733 6.90896C92.4982 8.03117 93.1112 9.70843 93.1112 12.0512C93.1112 13.5476 92.814 14.8249 92.2426 15.9018L92.2418 15.9034C92.0136 16.3365 91.745 16.729 91.4349 17.0818C91.5243 16.8869 91.6041 16.6839 91.6743 16.4728C92.0648 15.3046 92.2502 13.8541 92.2502 12.1398C92.2502 10.424 92.0471 8.97384 91.6111 7.81737C91.4326 7.34094 91.2068 6.90767 90.9332 6.52035C91.0893 6.64213 91.2358 6.77164 91.373 6.90864ZM83.3594 19.0594C83.3769 19.1131 83.3967 19.1655 83.4188 19.2164C83.1584 19.2099 82.9403 19.2064 82.7653 19.2064C82.5885 19.2064 82.4178 19.2069 82.2531 19.2079C82.2766 19.1585 82.2978 19.1073 82.3167 19.0544L82.3167 19.0544L82.319 19.0478C82.4427 18.6889 82.4856 18.1954 82.4856 17.6314V6.81854C82.4856 6.25712 82.4429 5.76349 82.318 5.40626L82.3176 5.40508C82.2979 5.34912 82.2756 5.29498 82.2507 5.24281L83.4206 5.22999C83.3978 5.28206 83.3774 5.33566 83.3594 5.39062C83.2379 5.75829 83.1957 6.23805 83.1957 6.77766V17.6723C83.1957 18.2124 83.2377 18.6926 83.3594 19.0594Z" fill="#FCF5DB" stroke="#FCF5DB" stroke-width="1.33333"/>
<path d="M42.1367 25.054C42.1312 25.0444 42.1258 25.0348 42.1203 25.0252C42.1261 25.0238 42.1318 25.0224 42.1376 25.021C42.1373 25.032 42.137 25.0429 42.1367 25.054ZM35.154 37.4755C35.0876 37.48 35.025 37.4909 34.9661 37.5072C34.9683 37.3898 34.9704 37.2677 34.9724 37.1408C35.0298 37.255 35.0903 37.3666 35.154 37.4755ZM42.9639 35.1079C42.9639 36.178 42.6435 36.9578 42.0448 37.5231C42.2485 37.0456 42.343 36.5022 42.343 35.9118C42.343 34.9324 42.0055 34.0758 41.332 33.3832C40.7239 32.7547 39.7993 32.0794 38.599 31.3552L38.599 31.3552C37.7472 30.8413 37.0701 30.392 36.561 30.0062C36.0982 29.6499 35.7225 29.2248 35.4288 28.7276C35.1635 28.2698 35.0195 27.7153 35.0195 27.0408C35.0195 26.3506 35.1611 25.8028 35.4258 25.3684C35.3584 25.6369 35.3251 25.9202 35.3251 26.2163C35.3251 26.8728 35.4778 27.4785 35.8114 28.0089L35.8117 28.0094C36.1123 28.4865 36.4941 28.8954 36.9548 29.2338L36.9555 29.2343C37.3733 29.5402 37.9538 29.9236 38.6923 30.3807L38.6923 30.3807L38.6964 30.3832L39.332 30.7703C40.2384 31.3316 40.9389 31.8139 41.4432 32.2203L41.4452 32.2219C41.9196 32.6011 42.2904 33.0295 42.5668 33.5069L42.5668 33.5069L42.5693 33.5111C42.8241 33.9439 42.9639 34.469 42.9639 35.1079Z" fill="#FCF5DB" stroke="#FCF5DB" stroke-width="1.33333"/>
<path d="M55.1691 38.2403C55.3243 38.0968 55.4622 37.9357 55.5828 37.7585C55.5932 37.92 55.6052 38.0842 55.6187 38.2511C55.4768 38.2473 55.3269 38.2437 55.1691 38.2403ZM48.283 38.0535C48.3031 38.111 48.326 38.1663 48.3517 38.2195C47.932 38.2228 47.5355 38.2269 47.1621 38.2318C47.1898 38.1758 47.2145 38.1174 47.2361 38.0569L47.2361 38.0569L47.2384 38.0503C47.3621 37.6914 47.4051 37.1978 47.4051 36.6339V25.821C47.4051 25.2596 47.3623 24.7659 47.2375 24.4087L47.237 24.4075C47.2147 24.3438 47.1888 24.2825 47.1597 24.2237C47.5345 24.2286 47.9327 24.2326 48.3541 24.2358C48.3274 24.291 48.3037 24.3484 48.283 24.4081C48.1553 24.7686 48.1152 25.2648 48.1152 25.821V30.7345V30.9651V31.4012V31.6318V36.6339C48.1152 37.194 48.1557 37.6912 48.283 38.0535ZM51.8511 31.1151C51.9192 31.0562 51.9836 30.9947 52.0443 30.9307V31.1831C52.0443 31.243 52.0446 31.3046 52.0451 31.3679C51.9642 31.2931 51.879 31.2256 51.79 31.165C51.8089 31.1502 51.8275 31.135 51.8459 31.1194L51.846 31.1195L51.8511 31.1151ZM55.1616 24.3703C55.1193 24.315 55.0747 24.2617 55.0277 24.2105C55.0778 24.2092 55.1269 24.2079 55.1751 24.2065C55.1704 24.2614 55.1659 24.316 55.1616 24.3703Z" fill="#FCF5DB" stroke="#FCF5DB" stroke-width="1.33333"/>
<path d="M68.6025 35.7313L68.9945 36.331V37.5765L60.5031 24.544L60.3047 24.2395C60.5754 24.2332 60.8307 24.2225 61.0704 24.2071L68.6025 35.7313Z" fill="#FCF5DB" stroke="#FCF5DB" stroke-width="1.33333"/>
<path d="M80.8476 25.054C80.8422 25.0444 80.8367 25.0348 80.8312 25.0252C80.837 25.0238 80.8428 25.0224 80.8485 25.021C80.8482 25.032 80.8479 25.0429 80.8476 25.054ZM73.8649 37.4755C73.7985 37.48 73.7359 37.4909 73.6771 37.5072C73.6793 37.3898 73.6814 37.2677 73.6833 37.1408C73.7407 37.255 73.8013 37.3666 73.8649 37.4755ZM81.6749 35.1079C81.6749 36.178 81.3545 36.9578 80.7557 37.5231C80.9595 37.0456 81.0539 36.5022 81.0539 35.9118C81.0539 34.9324 80.7165 34.0758 80.0429 33.3832C79.4349 32.7547 78.5103 32.0794 77.3099 31.3552L77.3099 31.3552C76.4582 30.8413 75.781 30.392 75.2719 30.0062C74.8092 29.6499 74.4335 29.2248 74.1398 28.7276C73.8745 28.2698 73.7305 27.7153 73.7305 27.0408C73.7305 26.3506 73.872 25.8028 74.1367 25.3684C74.0694 25.6369 74.036 25.9202 74.036 26.2163C74.036 26.8728 74.1887 27.4785 74.5224 28.0089L74.5226 28.0094C74.8233 28.4865 75.2051 28.8954 75.6658 29.2338L75.6665 29.2343C76.0843 29.5402 76.6648 29.9236 77.4032 30.3807L77.4032 30.3807L77.4073 30.3832L78.0429 30.7703C78.9494 31.3316 79.6498 31.8139 80.1541 32.2203L80.1561 32.2219C80.6305 32.6011 81.0013 33.0295 81.2778 33.5069L81.2777 33.5069L81.2802 33.5111C81.5351 33.9439 81.6749 34.469 81.6749 35.1079Z" fill="#FCF5DB" stroke="#FCF5DB" stroke-width="1.33333"/>
<path d="M86.751 36.0749C86.8936 36.7614 87.1613 37.367 87.5649 37.8724C87.4327 37.7832 87.3107 37.6863 87.1982 37.5822L87.1974 37.5814C86.6315 37.0596 86.2714 36.4869 86.0896 35.8622C85.897 35.1963 85.7869 34.1464 85.7869 32.6685V25.821C85.7869 25.2596 85.7441 24.7659 85.6193 24.4087L85.6189 24.4075C85.5991 24.3512 85.5766 24.2967 85.5515 24.2442C85.7444 24.2454 85.9458 24.246 86.1557 24.246C86.3545 24.246 86.5466 24.2454 86.7318 24.2442C86.7068 24.2968 86.6845 24.3515 86.6648 24.4081C86.5372 24.7686 86.497 25.2648 86.497 25.821V33.0364C86.497 34.2251 86.5772 35.2422 86.751 36.0749Z" fill="#FCF5DB" stroke="#FCF5DB" stroke-width="1.33333"/>
<path d="M112.965 38.0536C112.984 38.1078 113.005 38.1602 113.029 38.2108C112.845 38.2095 112.653 38.2088 112.455 38.2088C112.246 38.2088 112.046 38.2095 111.854 38.2108C111.877 38.1612 111.899 38.1099 111.918 38.0569L111.918 38.0569L111.92 38.0503C112.044 37.6914 112.087 37.1978 112.087 36.6339V24.9489L111.648 24.8693L111.882 24.246H112.455C112.654 24.246 112.846 24.2454 113.032 24.2442C113.007 24.2968 112.984 24.3515 112.965 24.4081C112.837 24.7686 112.797 25.2648 112.797 25.821V36.6339C112.797 37.194 112.837 37.6912 112.965 38.0536ZM106.086 36.3679L106.259 36.8182L105.949 37.6446L100.878 24.6654L100.34 24.7667C100.316 24.6362 100.286 24.5163 100.248 24.4087L100.248 24.4075C100.228 24.3517 100.206 24.2977 100.181 24.2457C100.648 24.2437 101.067 24.2329 101.436 24.2124L106.086 36.3679Z" fill="#FCF5DB" stroke="#FCF5DB" stroke-width="1.33333"/>
<path d="M21.5714 51.5283H1V1H145V51.5283H125.581" stroke="#FCF5DB"/>
</svg>
