<svg width="45" height="42" viewBox="0 0 45 42" fill="none" xmlns="http://www.w3.org/2000/svg">
<mask id="mask0_112_208" style="mask-type:luminance" maskUnits="userSpaceOnUse" x="0" y="0" width="42" height="42">
<path d="M0 0H41.247V41.247H0V0Z" fill="white"/>
</mask>
<g mask="url(#mask0_112_208)">
<path d="M38.1781 18.0963C38.2961 18.9238 38.361 19.7689 38.361 20.6294C38.361 30.4383 30.3923 38.4188 20.5964 38.4188C10.8004 38.4188 2.83054 30.4383 2.83054 20.6294C2.83054 10.8193 10.8004 2.83878 20.5964 2.83878C25.6968 2.83878 30.2979 5.00595 33.5404 8.46445L35.5423 6.46135C31.7851 2.48939 26.477 0.00469971 20.5964 0.00469971C9.23998 0.00469971 0 9.25766 0 20.6294C0 32.0011 9.23998 41.2529 20.5964 41.2529C31.9528 41.2529 41.1916 32.0011 41.1916 20.6294C41.1916 18.9238 40.9803 17.2689 40.5884 15.6824L38.1781 18.0963Z" fill="#168D71"/>
</g>
<path d="M44.0207 5.10751C42.7164 3.80083 40.6 3.80083 39.2945 5.10751L20.7272 23.7008L13.907 16.8723C12.6015 15.5645 10.4851 15.5645 9.18078 16.8723C7.87529 18.179 7.87529 20.2978 9.18078 21.6044L18.3641 30.8007C19.0168 31.4535 19.8714 31.7804 20.7272 31.7804C21.5818 31.7804 22.4376 31.4535 23.0903 30.8007L44.0207 9.84081C45.3262 8.53296 45.3262 6.41536 44.0207 5.10751Z" fill="#168D71"/>
</svg>
