<svg width="40" height="40" viewBox="0 0 40 40" fill="none" xmlns="http://www.w3.org/2000/svg">
<path d="M20.0003 4.1665C15.8011 4.1665 11.7738 5.83465 8.80447 8.80398C5.83514 11.7733 4.16699 15.8006 4.16699 19.9998C4.16699 24.1991 5.83514 28.2264 8.80447 31.1957C11.7738 34.165 15.8011 35.8332 20.0003 35.8332C24.1996 35.8332 28.2269 34.165 31.1962 31.1957C34.1655 28.2264 35.8337 24.1991 35.8337 19.9998C35.8337 15.8006 34.1655 11.7733 31.1962 8.80398C28.2269 5.83465 24.1996 4.1665 20.0003 4.1665Z" fill="#039BE5"/>
<path d="M22.143 24.1966H26.2405L26.8839 20.0341H22.1422V17.7591C22.1422 16.03 22.7072 14.4966 24.3247 14.4966H26.9239V10.8641C26.4672 10.8025 25.5014 10.6675 23.6764 10.6675C19.8655 10.6675 17.6314 12.68 17.6314 17.265V20.0341H13.7139V24.1966H17.6314V35.6375C18.4072 35.7541 19.193 35.8333 19.9997 35.8333C20.7289 35.8333 21.4405 35.7666 22.143 35.6716V24.1966Z" fill="white"/>
</svg>
