<svg width="54" height="54" viewBox="0 0 54 54" fill="none" xmlns="http://www.w3.org/2000/svg">
<circle cx="27" cy="27" r="26.25" fill="#168D71"/>
<mask id="mask0_409_238" style="mask-type:luminance" maskUnits="userSpaceOnUse" x="6" y="6" width="42" height="42">
<path d="M6 6H48V48H6V6Z" fill="white"/>
</mask>
<g mask="url(#mask0_409_238)">
<path d="M27 6C26.5045 6 26.0091 6.0175 25.5147 6.0525C24.8158 6.10172 24.1202 6.18594 23.43 6.30516C22.7409 6.42438 22.0573 6.5775 21.3825 6.76563C20.7077 6.95266 20.0427 7.17359 19.3908 7.42625C18.7378 7.68 18.098 7.96656 17.4745 8.28484C16.85 8.60203 16.243 8.95094 15.6534 9.32938C15.0639 9.70672 14.4941 10.1147 13.9461 10.55C13.3981 10.9853 12.8709 11.448 12.3689 11.9358C11.8669 12.4236 11.3889 12.9355 10.9383 13.4714C10.4877 14.0063 10.0633 14.5641 9.66844 15.1427C9.2725 15.7202 8.90609 16.3173 8.57031 16.932C8.23453 17.5456 7.93047 18.1767 7.65813 18.822C7.38469 19.4663 7.14516 20.1247 6.93844 20.7941C6.73063 21.4624 6.55781 22.1416 6.41891 22.8274C6.28 23.5142 6.175 24.2066 6.105 24.9033C6.035 25.6 6 26.3 6 27C6 27.4955 6.0175 27.9909 6.0525 28.4853C6.10172 29.1831 6.18594 29.8788 6.30516 30.5689C6.42437 31.2591 6.5775 31.9427 6.76562 32.6175C6.95266 33.2924 7.17359 33.9563 7.42734 34.6092C7.68109 35.2622 7.96656 35.9009 8.28484 36.5255C8.60203 37.1489 8.95094 37.757 9.32938 38.3455C9.70781 38.935 10.1147 39.5049 10.55 40.0539C10.9853 40.6019 11.448 41.128 11.9358 41.63C12.4236 42.1331 12.9355 42.61 13.4714 43.0617C14.0073 43.5124 14.5641 43.9367 15.1427 44.3316C15.7202 44.7275 16.3173 45.0928 16.932 45.4286C17.5467 45.7644 18.1767 46.0695 18.822 46.3419C19.4673 46.6142 20.1247 46.8549 20.7941 47.0616C21.4634 47.2683 22.1416 47.4422 22.8284 47.5811C23.5142 47.72 24.2066 47.825 24.9033 47.895C25.6 47.965 26.3 48 27 48C27.4955 48 27.9909 47.9825 28.4853 47.9475C29.1842 47.8972 29.8787 47.813 30.5689 47.6938C31.2591 47.5756 31.9427 47.4214 32.6175 47.2344C33.2923 47.0474 33.9573 46.8264 34.6092 46.5727C35.2622 46.3189 35.9009 46.0324 36.5255 45.7152C37.1489 45.398 37.757 45.0491 38.3466 44.6706C38.935 44.2922 39.5048 43.8842 40.0539 43.4489C40.6019 43.0147 41.128 42.552 41.6311 42.0642C42.1331 41.5764 42.61 41.0635 43.0617 40.5286C43.5123 39.9927 43.9367 39.4349 44.3316 38.8574C44.7275 38.2788 45.0939 37.6816 45.4297 37.068C45.7644 36.4533 46.0695 35.8222 46.3419 35.1769C46.6153 34.5327 46.8548 33.8742 47.0616 33.2059C47.2683 32.5366 47.4422 31.8584 47.5811 31.1716C47.72 30.4858 47.825 29.7924 47.895 29.0956C47.965 28.3989 48 27.7 48 27C48 26.5045 47.9825 26.0091 47.9475 25.5136C47.8983 24.8158 47.813 24.1202 47.6948 23.43C47.5756 22.7409 47.4214 22.0574 47.2344 21.3825C47.0473 20.7077 46.8264 20.0427 46.5727 19.3897C46.3189 18.7378 46.0334 18.098 45.7152 17.4745C45.398 16.85 45.0491 16.243 44.6706 15.6534C44.2922 15.0639 43.8853 14.4941 43.45 13.9461C43.0147 13.397 42.552 12.8709 42.0642 12.3689C41.5764 11.8669 41.0634 11.3889 40.5286 10.9383C39.9927 10.4866 39.4348 10.0633 38.8573 9.66735C38.2798 9.2725 37.6827 8.9061 37.068 8.57031C36.4533 8.23453 35.8222 7.93047 35.178 7.65703C34.5327 7.38469 33.8742 7.14406 33.2059 6.93734C32.5366 6.73063 31.8584 6.55781 31.1716 6.41781C30.4858 6.27891 29.7934 6.175 29.0967 6.105C28.4 6.035 27.7 6 27 6Z" fill="white"/>
<path d="M27 6C26.5045 6 26.0091 6.0175 25.5147 6.0525C25.0936 6.09078 24.6736 6.14109 24.2558 6.20453V22.8175H6.42109C6.42 22.8208 6.42 22.8241 6.41891 22.8274C6.28 23.5142 6.175 24.2066 6.105 24.9033C6.035 25.6 6 26.3 6 27C6 27.4955 6.0175 27.9909 6.0525 28.4853C6.10172 29.1831 6.18594 29.8788 6.30516 30.5689C6.36422 30.8588 6.42875 31.1475 6.49984 31.4341H24.2558V47.7966C24.4713 47.8327 24.6867 47.8655 24.9033 47.895C25.6 47.965 26.3 48 27 48C27.4955 48 27.9909 47.9825 28.4853 47.9475C28.8922 47.9092 29.2991 47.86 29.7027 47.7988V31.4341H47.5144C47.5373 31.3466 47.5592 31.2591 47.5811 31.1716C47.72 30.4858 47.825 29.7924 47.895 29.0967C47.965 28.4 48 27.7 48 27C48 26.5045 47.9825 26.0091 47.9475 25.5136C47.8983 24.8158 47.813 24.1202 47.6948 23.43C47.6511 23.2255 47.6063 23.0209 47.557 22.8175H29.7027V6.19688C29.5014 6.16297 29.2991 6.13234 29.0967 6.105C28.4 6.035 27.7 6 27 6ZM40.5975 11.0028L31.5795 19.848H34.7634L42.3037 12.6413C42.225 12.5494 42.1452 12.4586 42.0642 12.3689C41.5972 11.8909 41.1083 11.4348 40.5975 11.0028ZM11.7706 12.5778C11.4841 12.8677 11.2073 13.1652 10.9383 13.4714C10.6769 13.7941 10.4253 14.1255 10.1836 14.4634L15.8175 19.848H19.3766L11.7706 12.5778ZM22.3789 34.4025H19.0561L11.7345 41.4014C11.8012 41.478 11.868 41.5545 11.9358 41.63C12.4225 42.132 12.9333 42.6078 13.4681 43.0585L22.3789 34.4025ZM34.6059 34.4025L42.097 41.5633C42.4306 41.2286 42.7522 40.8841 43.0617 40.5286C43.2805 40.2552 43.4927 39.9752 43.6972 39.6919L38.1639 34.4025H34.6059Z" fill="#FF0000"/>
</g>
<path fill-rule="evenodd" clip-rule="evenodd" d="M31.5454 6.63V18.1089L39.6566 10.4056C39.3865 10.1891 39.112 9.98016 38.832 9.77782C38.2545 9.38297 37.6573 9.01657 37.0426 8.68079C36.4279 8.34501 35.7968 8.04094 35.1526 7.76751C34.5073 7.49516 33.8488 7.25454 33.1805 7.04782C32.6413 6.88704 32.0955 6.74704 31.5454 6.63ZM22.3415 6.65516C22.0112 6.72079 21.683 6.79407 21.3571 6.8761C20.6823 7.06313 20.0173 7.28407 19.3654 7.53672C18.7124 7.79047 18.0726 8.07704 17.4491 8.39532C16.8246 8.71251 16.2176 9.06141 15.628 9.43985C15.1555 9.74938 14.6962 10.0775 14.2499 10.4242L22.3415 18.1089V6.65516ZM44.3204 15.3089L39.4532 19.9519H46.6971C46.649 19.8009 46.5987 19.6511 46.5473 19.5002C46.2935 18.8483 46.0081 18.2084 45.6898 17.585C45.3726 16.9605 45.0237 16.3534 44.6452 15.7639C44.5391 15.6108 44.4309 15.4588 44.3204 15.3089ZM9.57742 15.3581C9.20773 15.9028 8.8632 16.465 8.54492 17.0425C8.20914 17.6561 7.90508 18.2872 7.63273 18.9325C7.4993 19.2694 7.3757 19.6095 7.25977 19.9519H14.3921L9.57742 15.3581ZM7.31883 34.4714C7.34617 34.5545 7.37352 34.6377 7.40195 34.7197C7.6557 35.3727 7.94117 36.0114 8.25945 36.636C8.57664 37.2594 8.92555 37.8675 9.30398 38.456C9.4243 38.631 9.54789 38.8027 9.67367 38.9733L14.3921 34.4714H7.31883ZM39.4532 34.4714L44.2471 39.0455C44.2668 39.0192 44.2865 38.9941 44.3062 38.9678C44.7021 38.3892 45.0685 37.792 45.4043 37.1785C45.739 36.5638 46.0441 35.9327 46.3165 35.2874C46.4215 35.0183 46.521 34.746 46.6151 34.4714H39.4532ZM22.3415 36.2028L14.3112 43.8296C14.5748 44.0396 14.8438 44.2441 15.1173 44.4421C15.6948 44.838 16.292 45.2033 16.9066 45.5391C17.5213 45.8749 18.1513 46.18 18.7966 46.4524C19.442 46.7247 20.0993 46.9653 20.7687 47.1721C21.2871 47.3263 21.8121 47.4597 22.3415 47.5735V36.2028ZM31.5454 36.2028V47.58C31.8954 47.51 32.2454 47.4324 32.5921 47.3449C33.267 47.1578 33.932 46.9369 34.5838 46.6831C35.2368 46.4294 35.8755 46.1428 36.5001 45.8256C37.1235 45.5085 37.7316 45.1596 38.3212 44.7811C38.762 44.4902 39.1907 44.1839 39.6085 43.8602L31.5454 36.2028Z" fill="#000080"/>
</svg>
