<svg width="56" height="56" viewBox="0 0 56 56" fill="none" xmlns="http://www.w3.org/2000/svg">
<mask id="mask0_405_369" style="mask-type:luminance" maskUnits="userSpaceOnUse" x="8" y="8" width="40" height="40">
<path d="M8 8H48V48H8V8Z" fill="white"/>
</mask>
<g mask="url(#mask0_405_369)">
<path d="M28 8C27.5281 8 27.0563 8.01667 26.5854 8.05C25.9198 8.09687 25.2573 8.17708 24.6 8.29063C23.9438 8.40417 23.2927 8.55 22.65 8.72917C22.0073 8.90729 21.374 9.11771 20.7531 9.35833C20.1313 9.6 19.5219 9.87292 18.9281 10.176C18.3333 10.4781 17.7552 10.8104 17.1938 11.1708C16.6323 11.5302 16.0896 11.9188 15.5677 12.3333C15.0458 12.7479 14.5438 13.1885 14.0656 13.6531C13.5875 14.1177 13.1323 14.6052 12.7031 15.1156C12.274 15.625 11.8698 16.1563 11.4938 16.7073C11.1167 17.2573 10.7677 17.826 10.4479 18.4115C10.1281 18.9958 9.83854 19.5969 9.57917 20.2115C9.31875 20.825 9.09063 21.4521 8.89375 22.0896C8.69583 22.726 8.53125 23.3729 8.39896 24.026C8.26667 24.6802 8.16667 25.3396 8.1 26.0031C8.03333 26.6667 8 27.3333 8 28C8 28.4719 8.01667 28.9438 8.05 29.4146C8.09687 30.0792 8.17708 30.7417 8.29063 31.399C8.40417 32.0563 8.55 32.7073 8.72917 33.35C8.90729 33.9927 9.11771 34.625 9.35938 35.2469C9.60104 35.8688 9.87292 36.4771 10.176 37.0719C10.4781 37.6656 10.8104 38.2448 11.1708 38.8052C11.5313 39.3667 11.9188 39.9094 12.3333 40.4323C12.7479 40.9542 13.1885 41.4552 13.6531 41.9333C14.1177 42.4125 14.6052 42.8667 15.1156 43.2969C15.626 43.726 16.1563 44.1302 16.7073 44.5063C17.2573 44.8833 17.826 45.2313 18.4115 45.551C18.9969 45.8708 19.5969 46.1615 20.2115 46.4208C20.826 46.6802 21.4521 46.9094 22.0896 47.1063C22.7271 47.3031 23.3729 47.4688 24.0271 47.601C24.6802 47.7333 25.3396 47.8333 26.0031 47.9C26.6667 47.9667 27.3333 48 28 48C28.4719 48 28.9438 47.9833 29.4146 47.95C30.0802 47.9021 30.7417 47.8219 31.399 47.7083C32.0563 47.5958 32.7073 47.449 33.35 47.2708C33.9927 47.0927 34.626 46.8823 35.2469 46.6406C35.8688 46.399 36.4771 46.126 37.0719 45.824C37.6656 45.5219 38.2448 45.1896 38.8063 44.8292C39.3667 44.4688 39.9094 44.0802 40.4323 43.6656C40.9542 43.2521 41.4552 42.8115 41.9344 42.3469C42.4125 41.8823 42.8667 41.3938 43.2969 40.8844C43.726 40.374 44.1302 39.8427 44.5063 39.2927C44.8833 38.7417 45.2323 38.1729 45.5521 37.5885C45.8708 37.0031 46.1615 36.4021 46.4208 35.7875C46.6813 35.174 46.9094 34.5469 47.1063 33.9104C47.3031 33.2729 47.4688 32.6271 47.601 31.9729C47.7333 31.3198 47.8333 30.6594 47.9 29.9958C47.9667 29.3323 48 28.6667 48 28C48 27.5281 47.9833 27.0563 47.95 26.5844C47.9031 25.9198 47.8219 25.2573 47.7094 24.6C47.5958 23.9438 47.449 23.2927 47.2708 22.65C47.0927 22.0073 46.8823 21.374 46.6406 20.7521C46.399 20.1313 46.1271 19.5219 45.824 18.9281C45.5219 18.3333 45.1896 17.7552 44.8292 17.1938C44.4688 16.6323 44.0813 16.0896 43.6667 15.5677C43.2521 15.0448 42.8115 14.5438 42.3469 14.0656C41.8823 13.5875 41.3938 13.1323 40.8844 12.7031C40.374 12.2729 39.8427 11.8698 39.2927 11.4927C38.7427 11.1167 38.174 10.7677 37.5885 10.4479C37.0031 10.1281 36.4021 9.83854 35.7885 9.57813C35.174 9.31875 34.5469 9.08958 33.9104 8.89271C33.2729 8.69583 32.6271 8.53125 31.9729 8.39792C31.3198 8.26562 30.6604 8.16667 29.9969 8.1C29.3333 8.03333 28.6667 8 28 8Z" fill="white"/>
<path d="M28 8C27.5281 8 27.0563 8.01667 26.5854 8.05C26.1844 8.08646 25.7844 8.13437 25.3865 8.19479V24.0167H8.40104C8.4 24.0198 8.4 24.0229 8.39896 24.026C8.26667 24.6802 8.16667 25.3396 8.1 26.0031C8.03333 26.6667 8 27.3333 8 28C8 28.4719 8.01667 28.9438 8.05 29.4146C8.09687 30.0792 8.17708 30.7417 8.29063 31.399C8.34687 31.675 8.40833 31.95 8.47604 32.2229H25.3865V47.8063C25.5917 47.8406 25.7969 47.8719 26.0031 47.9C26.6667 47.9667 27.3333 48 28 48C28.4719 48 28.9438 47.9833 29.4146 47.95C29.8021 47.9135 30.1896 47.8667 30.574 47.8083V32.2229H47.5375C47.5594 32.1396 47.5802 32.0563 47.601 31.9729C47.7333 31.3198 47.8333 30.6594 47.9 29.9969C47.9667 29.3333 48 28.6667 48 28C48 27.5281 47.9833 27.0563 47.95 26.5844C47.9031 25.9198 47.8219 25.2573 47.7094 24.6C47.6677 24.4052 47.625 24.2104 47.5781 24.0167H30.574V8.1875C30.3823 8.15521 30.1896 8.12604 29.9969 8.1C29.3333 8.03333 28.6667 8 28 8ZM40.95 12.7646L32.3615 21.1885H35.3938L42.575 14.325C42.5 14.2375 42.424 14.151 42.3469 14.0656C41.9021 13.6104 41.4365 13.176 40.95 12.7646ZM13.4958 14.2646C13.2229 14.5406 12.9594 14.824 12.7031 15.1156C12.4542 15.4229 12.2146 15.7385 11.9844 16.0604L17.35 21.1885H20.7396L13.4958 14.2646ZM23.599 35.05H20.4344L13.4615 41.7156C13.525 41.7885 13.5885 41.8615 13.6531 41.9333C14.1167 42.4115 14.6031 42.8646 15.1125 43.2938L23.599 35.05ZM35.2438 35.05L42.3781 41.8698C42.6958 41.551 43.0021 41.2229 43.2969 40.8844C43.5052 40.624 43.7073 40.3573 43.9021 40.0875L38.6323 35.05H35.2438Z" fill="#FF0000"/>
</g>
<path fill-rule="evenodd" clip-rule="evenodd" d="M32.3294 8.59998V19.5323L40.0544 12.1958C39.7971 11.9896 39.5356 11.7906 39.2689 11.5979C38.7189 11.2219 38.1502 10.8729 37.5648 10.5531C36.9794 10.2333 36.3783 9.94373 35.7648 9.68331C35.1502 9.42393 34.5231 9.19477 33.8867 8.99789C33.3731 8.84477 32.8533 8.71143 32.3294 8.59998ZM23.5637 8.62393C23.2492 8.68643 22.9367 8.75623 22.6262 8.83435C21.9835 9.01248 21.3502 9.22289 20.7294 9.46352C20.1075 9.70518 19.4981 9.9781 18.9044 10.2812C18.3096 10.5833 17.7314 10.9156 17.17 11.276C16.72 11.5708 16.2825 11.8833 15.8575 12.2135L23.5637 19.5323V8.62393ZM44.496 16.8656L39.8606 21.2875H46.7596C46.7137 21.1437 46.6658 21.001 46.6169 20.8573C46.3752 20.2364 46.1033 19.6271 45.8002 19.0333C45.4981 18.4385 45.1658 17.8604 44.8054 17.2989C44.7044 17.1531 44.6012 17.0083 44.496 16.8656ZM11.4075 16.9125C11.0554 17.4312 10.7273 17.9666 10.4242 18.5166C10.1044 19.101 9.81478 19.7021 9.5554 20.3166C9.42832 20.6375 9.31061 20.9614 9.2002 21.2875H15.9929L11.4075 16.9125ZM9.25645 35.1156C9.28249 35.1948 9.30853 35.2739 9.33561 35.3521C9.57728 35.9739 9.84915 36.5823 10.1523 37.1771C10.4544 37.7708 10.7867 38.35 11.1471 38.9104C11.2617 39.0771 11.3794 39.2406 11.4992 39.4031L15.9929 35.1156H9.25645ZM39.8606 35.1156L44.4262 39.4719C44.445 39.4469 44.4637 39.4229 44.4825 39.3979C44.8596 38.8469 45.2085 38.2781 45.5283 37.6937C45.8471 37.1083 46.1377 36.5073 46.3971 35.8927C46.4971 35.6364 46.5919 35.3771 46.6814 35.1156H39.8606ZM23.5637 36.7646L15.9158 44.0281C16.1669 44.2281 16.4231 44.4229 16.6835 44.6114C17.2335 44.9885 17.8023 45.3364 18.3877 45.6562C18.9731 45.976 19.5731 46.2666 20.1877 46.526C20.8023 46.7854 21.4283 47.0146 22.0658 47.2114C22.5596 47.3583 23.0596 47.4854 23.5637 47.5937V36.7646ZM32.3294 36.7646V47.6C32.6627 47.5333 32.996 47.4594 33.3262 47.376C33.9689 47.1979 34.6023 46.9875 35.2231 46.7458C35.845 46.5041 36.4533 46.2312 37.0481 45.9291C37.6419 45.6271 38.221 45.2948 38.7825 44.9344C39.2023 44.6573 39.6106 44.3656 40.0085 44.0573L32.3294 36.7646Z" fill="#000080"/>
</svg>
