<svg width="106" height="8" viewBox="0 0 106 8" fill="none" xmlns="http://www.w3.org/2000/svg">
<path d="M9.65126 1.1402C9.74974 1.1402 9.82726 1.15113 9.88384 1.17247C9.94093 1.19329 9.9996 1.22347 10.0598 1.26303C10.1093 1.29426 10.1473 1.30987 10.174 1.30987C10.1942 1.30987 10.2099 1.29842 10.2212 1.27552C10.2322 1.2521 10.2411 1.21462 10.2474 1.1631H10.3249C10.3136 1.29217 10.3081 1.51884 10.3081 1.84283H10.2306C10.2172 1.66327 10.1651 1.51181 10.0745 1.38898C9.98441 1.26563 9.85345 1.2037 9.68164 1.2037C9.56064 1.2037 9.46217 1.23987 9.38622 1.31195C9.31 1.3843 9.27203 1.47694 9.27203 1.58988C9.27203 1.67394 9.29141 1.74707 9.33069 1.80952C9.36972 1.87146 9.41922 1.92455 9.47945 1.96879C9.54022 2.01329 9.62638 2.07028 9.73822 2.1395L9.83564 2.19883C9.97603 2.28575 10.0871 2.362 10.1688 2.42784C10.2505 2.49316 10.3157 2.56811 10.3647 2.65268C10.4142 2.73674 10.4391 2.83537 10.4391 2.94831C10.4391 3.15025 10.372 3.30639 10.2379 3.41673C10.1038 3.52655 9.93412 3.5812 9.72879 3.5812C9.62114 3.5812 9.53314 3.57001 9.46479 3.54789C9.39695 3.52577 9.33174 3.49558 9.26888 3.45733C9.21991 3.42688 9.18193 3.41153 9.15469 3.41153C9.13505 3.41153 9.1196 3.4235 9.1086 3.44692C9.09734 3.46982 9.08817 3.50677 9.08136 3.55726H9.00488C9.01326 3.43521 9.01745 3.16899 9.01745 2.75886H9.09498C9.11017 2.98318 9.16569 3.16534 9.26155 3.30535C9.35793 3.44484 9.50564 3.51458 9.70469 3.51458C9.82543 3.51458 9.9281 3.47763 10.0127 3.4032C10.0978 3.32825 10.1405 3.21765 10.1405 3.07114C10.1405 2.94701 10.0986 2.84187 10.0148 2.75573C9.93098 2.66908 9.79845 2.57123 9.61774 2.46219C9.48574 2.38256 9.37888 2.31177 9.29717 2.24984C9.21598 2.18738 9.14972 2.11243 9.09812 2.025C9.04705 1.93704 9.02164 1.83398 9.02164 1.71584C9.02164 1.53003 9.08162 1.38768 9.20184 1.28905C9.32257 1.1899 9.47238 1.1402 9.65126 1.1402Z" fill="#062B22"/>
<path d="M12.3586 3.10862C12.3586 3.23509 12.3664 3.37692 12.3827 3.53436C12.2302 3.5276 11.9744 3.52395 11.6148 3.52395C11.1858 3.52395 10.8618 3.5276 10.6426 3.53436V3.46774C10.7235 3.46358 10.7822 3.45499 10.8186 3.44172C10.8555 3.42793 10.8806 3.40216 10.894 3.36469C10.9071 3.32669 10.9139 3.26554 10.9139 3.18148V1.52951C10.9139 1.44572 10.9071 1.38482 10.894 1.34735C10.8806 1.30936 10.8555 1.28359 10.8186 1.27032C10.7822 1.25653 10.7235 1.24742 10.6426 1.24326V1.17664C10.8618 1.18366 11.1858 1.18705 11.6148 1.18705C11.9429 1.18705 12.1766 1.18366 12.3156 1.17664C12.2994 1.32315 12.2915 1.45431 12.2915 1.57011C12.2915 1.65625 12.2949 1.72495 12.302 1.77622H12.2245C12.209 1.63205 12.1891 1.52483 12.1648 1.45457C12.1401 1.38456 12.0988 1.33356 12.0401 1.30155C11.982 1.2698 11.894 1.25367 11.7761 1.25367H11.4974C11.417 1.25367 11.3584 1.25991 11.3214 1.2724C11.2842 1.28437 11.2591 1.30936 11.246 1.34735C11.2326 1.38482 11.2261 1.44572 11.2261 1.52951V2.31542H11.4471C11.5252 2.31542 11.5857 2.29747 11.6284 2.26129C11.6708 2.2246 11.6991 2.18114 11.7132 2.13118C11.7279 2.08121 11.7397 2.01849 11.7489 1.94277L11.7593 1.87615H11.8358C11.8295 1.96931 11.8264 2.07366 11.8264 2.18947V2.34873C11.8264 2.46193 11.8329 2.61938 11.8463 2.82132H11.7688C11.7667 2.80623 11.7599 2.75262 11.7489 2.66101C11.7376 2.56889 11.707 2.49941 11.6567 2.45283C11.6064 2.40572 11.5365 2.38204 11.4471 2.38204H11.2261V3.18148C11.2261 3.26554 11.2326 3.32669 11.246 3.36469C11.2591 3.40216 11.2842 3.42715 11.3214 3.43964C11.3584 3.45161 11.417 3.45733 11.4974 3.45733H11.7426C11.8809 3.45733 11.9861 3.43938 12.059 3.4032C12.1315 3.36651 12.1847 3.30744 12.2182 3.22624C12.2517 3.14505 12.2761 3.02586 12.2915 2.86816H12.3691C12.362 2.92854 12.3586 3.00869 12.3586 3.10862Z" fill="#062B22"/>
<path d="M13.4996 1.17651C13.8948 1.17651 14.1905 1.27488 14.3869 1.4711C14.5839 1.66758 14.6824 1.95357 14.6824 2.32883C14.6824 2.57111 14.6342 2.7832 14.5378 2.96485C14.4419 3.14675 14.3031 3.28728 14.1208 3.38643C13.9386 3.48506 13.7212 3.53424 13.4692 3.53424L13.2744 3.53112C13.1492 3.52643 13.0578 3.52383 12.9999 3.52383C12.8168 3.52383 12.6783 3.52747 12.584 3.53424V3.46762C12.6649 3.46346 12.7236 3.45487 12.76 3.4416C12.7969 3.4278 12.8221 3.40204 12.8354 3.36457C12.8485 3.32657 12.8553 3.26542 12.8553 3.18136V1.52939C12.8553 1.4456 12.8485 1.3847 12.8354 1.34723C12.8221 1.30923 12.7969 1.28347 12.76 1.2702C12.7236 1.25641 12.6649 1.2473 12.584 1.24313V1.17651C12.662 1.18354 12.7707 1.18692 12.9098 1.18692L13.1947 1.1838C13.3461 1.17912 13.4477 1.17651 13.4996 1.17651ZM13.4158 1.23689C13.3467 1.23689 13.2945 1.2447 13.2597 1.25979C13.2246 1.27514 13.2005 1.30299 13.1874 1.34306C13.1741 1.3834 13.1675 1.44351 13.1675 1.52315V3.18761C13.1675 3.2675 13.1741 3.32761 13.1874 3.36769C13.2005 3.40803 13.2246 3.43587 13.2597 3.45096C13.2945 3.46632 13.3477 3.47387 13.4189 3.47387C13.6557 3.47387 13.8422 3.43119 13.9784 3.34583C14.1146 3.26047 14.2099 3.13608 14.2644 2.97213C14.3194 2.80766 14.3471 2.59792 14.3471 2.34237C14.3471 2.08707 14.3167 1.87889 14.256 1.7178C14.1957 1.55698 14.0981 1.43649 13.9627 1.3566C13.8278 1.27696 13.6455 1.23689 13.4158 1.23689Z" fill="#062B22"/>
<path d="M6.2333 4.0434C6.33177 4.0434 6.4093 4.05433 6.46587 4.07567C6.52296 4.09648 6.58163 4.12667 6.64187 4.16623C6.69137 4.19745 6.72934 4.21307 6.75606 4.21307C6.77622 4.21307 6.79194 4.20162 6.8032 4.17872C6.8142 4.1553 6.8231 4.11782 6.82939 4.0663H6.90691C6.89565 4.19537 6.89015 4.42204 6.89015 4.74603H6.81263C6.79927 4.56647 6.74715 4.41501 6.65653 4.29218C6.56644 4.16883 6.43549 4.10689 6.26368 4.10689C6.14268 4.10689 6.0442 4.14307 5.96825 4.21515C5.89203 4.2875 5.85406 4.38014 5.85406 4.49308C5.85406 4.57714 5.87344 4.65026 5.91272 4.71272C5.95175 4.77466 6.00125 4.82774 6.06149 4.87198C6.12225 4.91648 6.20841 4.97347 6.32025 5.0427L6.41768 5.10203C6.55806 5.18895 6.6691 5.2652 6.75082 5.33104C6.83253 5.39636 6.89775 5.4713 6.94672 5.55588C6.99622 5.63994 7.0211 5.73856 7.0211 5.85151C7.0211 6.05345 6.95406 6.20959 6.81996 6.31993C6.68587 6.42975 6.51615 6.4844 6.31082 6.4844C6.20318 6.4844 6.11518 6.47321 6.04682 6.45109C5.97899 6.42897 5.91377 6.39878 5.85091 6.36053C5.80194 6.33008 5.76396 6.31472 5.73672 6.31472C5.71708 6.31472 5.70163 6.3267 5.69063 6.35012C5.67937 6.37302 5.6702 6.40997 5.66339 6.46046H5.58691C5.5953 6.33841 5.59949 6.07219 5.59949 5.66206H5.67701C5.6922 5.88638 5.74772 6.06854 5.84358 6.20855C5.93996 6.34803 6.08768 6.41778 6.28672 6.41778C6.40746 6.41778 6.51013 6.38082 6.59472 6.3064C6.67984 6.23145 6.72253 6.12085 6.72253 5.97434C6.72253 5.85021 6.68063 5.74507 6.59682 5.65893C6.51301 5.57227 6.38049 5.47443 6.19977 5.36539C6.06777 5.28576 5.96091 5.21497 5.8792 5.15304C5.79801 5.09058 5.73175 5.01563 5.68015 4.92819C5.62908 4.84023 5.60368 4.73718 5.60368 4.61904C5.60368 4.43323 5.66365 4.29088 5.78387 4.19225C5.9046 4.0931 6.05441 4.0434 6.2333 4.0434Z" fill="#062B22"/>
<path d="M8.93963 6.01182C8.93963 6.13829 8.94749 6.28012 8.96373 6.43756C8.8113 6.43079 8.55542 6.42715 8.19582 6.42715C7.76682 6.42715 7.44285 6.43079 7.22363 6.43756V6.37094C7.30456 6.36678 7.36323 6.35819 7.39963 6.34492C7.43656 6.33112 7.4617 6.30536 7.47506 6.26789C7.48816 6.22989 7.49497 6.16874 7.49497 6.08468V4.43271C7.49497 4.34892 7.48816 4.28802 7.47506 4.25055C7.4617 4.21255 7.43656 4.18679 7.39963 4.17352C7.36323 4.15973 7.30456 4.15062 7.22363 4.14645V4.07983C7.44285 4.08686 7.76682 4.09024 8.19582 4.09024C8.52399 4.09024 8.75761 4.08686 8.89668 4.07983C8.88044 4.22635 8.87259 4.3575 8.87259 4.47331C8.87259 4.55945 8.87599 4.62815 8.88306 4.67941H8.80554C8.79009 4.53524 8.77018 4.42803 8.74582 4.35776C8.7212 4.28776 8.67982 4.23676 8.62116 4.20475C8.56301 4.173 8.47501 4.15686 8.35716 4.15686H8.07849C7.99809 4.15686 7.93942 4.16311 7.90249 4.1756C7.8653 4.18757 7.84016 4.21255 7.82706 4.25055C7.8137 4.28802 7.80716 4.34892 7.80716 4.43271V5.21862H8.0282C8.10625 5.21862 8.16675 5.20066 8.20944 5.16449C8.25187 5.1278 8.28016 5.08434 8.2943 5.03437C8.30897 4.98441 8.32075 4.92169 8.32992 4.84596L8.34039 4.77934H8.41687C8.41059 4.87251 8.40744 4.97686 8.40744 5.09267V5.25193C8.40744 5.36513 8.41399 5.52258 8.42735 5.72452H8.34982C8.34773 5.70942 8.34092 5.65582 8.32992 5.56421C8.31866 5.47209 8.28801 5.40261 8.23773 5.35602C8.18744 5.30892 8.11751 5.28524 8.0282 5.28524H7.80716V6.08468C7.80716 6.16874 7.8137 6.22989 7.82706 6.26789C7.84016 6.30536 7.8653 6.33034 7.90249 6.34283C7.93942 6.35481 7.99809 6.36053 8.07849 6.36053H8.32363C8.46192 6.36053 8.5672 6.34257 8.64001 6.3064C8.71256 6.26971 8.76573 6.21064 8.79925 6.12944C8.83278 6.04825 8.85713 5.92906 8.87259 5.77136H8.95011C8.94304 5.83173 8.93963 5.91189 8.93963 6.01182Z" fill="#062B22"/>
<path d="M11.2697 4.14645C11.1914 4.15062 11.1335 4.16259 11.0958 4.18185C11.0581 4.20058 11.0322 4.23181 11.0183 4.27553C11.0049 4.31873 10.9984 4.38223 10.9984 4.46602V6.45422H10.9219L9.5139 4.29323V6.05137C9.5139 6.13829 9.52123 6.20283 9.5359 6.24499C9.55056 6.28662 9.57885 6.31733 9.62075 6.33659C9.66318 6.35533 9.72918 6.36678 9.81875 6.37094V6.43756C9.73835 6.43079 9.62442 6.42715 9.47723 6.42715C9.34313 6.42715 9.2389 6.43079 9.16504 6.43756V6.37094C9.24309 6.36678 9.30123 6.35533 9.33894 6.33659C9.37718 6.31733 9.40311 6.2861 9.41647 6.2429C9.42956 6.19919 9.43637 6.13543 9.43637 6.05137V4.43271C9.43637 4.34892 9.42956 4.28802 9.41647 4.25055C9.40311 4.21255 9.37797 4.18679 9.34104 4.17352C9.30463 4.15973 9.24597 4.15062 9.16504 4.14645V4.07983C9.2389 4.08686 9.34313 4.09024 9.47723 4.09024C9.5778 4.09024 9.66475 4.08686 9.73809 4.07983L10.9219 5.89107V4.46602C10.9219 4.37936 10.9146 4.31509 10.8999 4.27345C10.8852 4.23129 10.8564 4.20058 10.814 4.18185C10.7713 4.16259 10.7056 4.15062 10.617 4.14645V4.07983C10.6972 4.08686 10.8111 4.09024 10.9586 4.09024C11.0927 4.09024 11.1964 4.08686 11.2697 4.07983V4.14645Z" fill="#062B22"/>
<path d="M12.1474 4.0434C12.2458 4.0434 12.3234 4.05433 12.3799 4.07567C12.437 4.09648 12.4957 4.12667 12.5559 4.16623C12.6054 4.19745 12.6434 4.21307 12.6701 4.21307C12.6903 4.21307 12.706 4.20162 12.7173 4.17872C12.7283 4.1553 12.7372 4.11782 12.7435 4.0663H12.821C12.8097 4.19537 12.8042 4.42204 12.8042 4.74603H12.7267C12.7133 4.56647 12.6612 4.41501 12.5706 4.29218C12.4805 4.16883 12.3495 4.10689 12.1777 4.10689C12.0567 4.10689 11.9583 4.14307 11.8823 4.21515C11.8061 4.2875 11.7681 4.38014 11.7681 4.49308C11.7681 4.57714 11.7875 4.65026 11.8268 4.71272C11.8658 4.77466 11.9153 4.82774 11.9755 4.87198C12.0363 4.91648 12.1225 4.97347 12.2343 5.0427L12.3317 5.10203C12.4721 5.18895 12.5832 5.2652 12.6649 5.33104C12.7466 5.39636 12.8118 5.4713 12.8608 5.55588C12.9103 5.63994 12.9352 5.73856 12.9352 5.85151C12.9352 6.05345 12.8681 6.20959 12.734 6.31993C12.5999 6.42975 12.4302 6.4844 12.2249 6.4844C12.1172 6.4844 12.0292 6.47321 11.9609 6.45109C11.893 6.42897 11.8278 6.39878 11.765 6.36053C11.716 6.33008 11.678 6.31472 11.6508 6.31472C11.6311 6.31472 11.6157 6.3267 11.6047 6.35012C11.5934 6.37302 11.5843 6.40997 11.5775 6.46046H11.501C11.5094 6.33841 11.5135 6.07219 11.5135 5.66206H11.5911C11.6063 5.88638 11.6618 6.06854 11.7576 6.20855C11.854 6.34803 12.0017 6.41778 12.2008 6.41778C12.3215 6.41778 12.4242 6.38082 12.5088 6.3064C12.5939 6.23145 12.6366 6.12085 12.6366 5.97434C12.6366 5.85021 12.5947 5.74507 12.5109 5.65893C12.4271 5.57227 12.2945 5.47443 12.1138 5.36539C11.9818 5.28576 11.875 5.21497 11.7933 5.15304C11.7121 5.09058 11.6458 5.01563 11.5942 4.92819C11.5431 4.84023 11.5177 4.73718 11.5177 4.61904C11.5177 4.43323 11.5777 4.29088 11.6979 4.19225C11.8187 4.0931 11.9685 4.0434 12.1474 4.0434Z" fill="#062B22"/>
<path d="M15.1926 4.14645C15.1142 4.15062 15.0564 4.16259 15.0187 4.18185C14.9809 4.20058 14.955 4.23181 14.9411 4.27553C14.9278 4.31873 14.9212 4.38223 14.9212 4.46602V5.46845C14.9212 5.62823 14.9102 5.76511 14.8887 5.87962C14.8678 5.99412 14.8327 6.09249 14.784 6.1742C14.7279 6.26997 14.646 6.3457 14.5378 6.40113C14.4294 6.45656 14.3073 6.4844 14.1711 6.4844C13.9252 6.4844 13.7374 6.42455 13.6075 6.30432C13.509 6.2135 13.443 6.11045 13.4095 5.99516C13.376 5.87936 13.3592 5.70734 13.3592 5.47886V4.43271C13.3592 4.34892 13.3524 4.28802 13.3393 4.25055C13.326 4.21255 13.3008 4.18679 13.2639 4.17352C13.2275 4.15973 13.1688 4.15062 13.0879 4.14645V4.07983C13.1822 4.08686 13.3252 4.09024 13.5174 4.09024C13.6981 4.09024 13.8401 4.08686 13.9427 4.07983V4.14645C13.8623 4.15062 13.8037 4.15973 13.7667 4.17352C13.7296 4.18679 13.7044 4.21255 13.6913 4.25055C13.678 4.28802 13.6714 4.34892 13.6714 4.43271V5.53507C13.6714 5.71281 13.6835 5.86062 13.7081 5.97851C13.7324 6.09587 13.783 6.19034 13.86 6.26164C13.9375 6.33243 14.0509 6.36782 14.2005 6.36782C14.4377 6.36782 14.6043 6.29261 14.7002 6.14193C14.7966 5.99074 14.8447 5.77839 14.8447 5.50488V4.46602C14.8447 4.34605 14.8227 4.26382 14.7787 4.21932C14.7353 4.17508 14.6557 4.15062 14.5399 4.14645V4.07983C14.62 4.08686 14.734 4.09024 14.8814 4.09024C15.0155 4.09024 15.1192 4.08686 15.1926 4.07983V4.14645Z" fill="#062B22"/>
<path d="M17.9611 4.14645C17.8807 4.15062 17.8221 4.15973 17.7851 4.17352C17.748 4.18679 17.7228 4.21255 17.7097 4.25055C17.6964 4.28802 17.6898 4.34892 17.6898 4.43271V6.08468C17.6898 6.16874 17.6964 6.22989 17.7097 6.26789C17.7228 6.30536 17.748 6.33112 17.7851 6.34492C17.8221 6.35819 17.8807 6.36678 17.9611 6.37094V6.43756C17.8585 6.43079 17.7165 6.42715 17.5358 6.42715C17.3436 6.42715 17.2006 6.43079 17.1063 6.43756V6.37094C17.1864 6.36678 17.2451 6.35819 17.2823 6.34492C17.3192 6.33112 17.3444 6.30536 17.3577 6.26789C17.3708 6.22989 17.3776 6.16874 17.3776 6.08468V4.29947L16.5699 6.45422H16.5165L15.6721 4.29323V6.05137C15.6721 6.13829 15.6794 6.20283 15.6941 6.24499C15.7088 6.28662 15.7371 6.31733 15.779 6.33659C15.8214 6.35533 15.8874 6.36678 15.977 6.37094V6.43756C15.8966 6.43079 15.7826 6.42715 15.6354 6.42715C15.5013 6.42715 15.3971 6.43079 15.3232 6.43756V6.37094C15.4013 6.36678 15.4594 6.35533 15.4971 6.33659C15.5354 6.31733 15.5613 6.2861 15.5747 6.2429C15.5878 6.19919 15.5946 6.13543 15.5946 6.05137V4.43271C15.5946 4.34892 15.5878 4.28802 15.5747 4.25055C15.5613 4.21255 15.5362 4.18679 15.4992 4.17352C15.4628 4.15973 15.4042 4.15062 15.3232 4.14645V4.07983C15.3971 4.08686 15.5013 4.09024 15.6354 4.09024C15.7512 4.09024 15.8463 4.08686 15.9204 4.07983L16.6579 6.00765L17.3776 4.09024H17.5358C17.7165 4.09024 17.8585 4.08686 17.9611 4.07983V4.14645Z" fill="#062B22"/>
<path d="M0.586914 7.8598H19.6201H22.5869V0.140198H0.586914V7.8598Z" stroke="#062B22" stroke-width="0.25"/>
<path d="M34.5869 3.03168H35.8231C36.1164 3.03168 36.3482 3.09413 36.5198 3.21905C36.69 3.34396 36.7764 3.51571 36.7764 3.73431C36.7764 3.89436 36.7306 4.02968 36.6402 4.14028C36.5525 4.25218 36.432 4.32635 36.2788 4.36408C36.4674 4.39531 36.6154 4.47598 36.7241 4.6035C36.8314 4.72841 36.8864 4.88715 36.8864 5.07712C36.8864 5.32044 36.7935 5.51171 36.6088 5.64964C36.4268 5.78496 36.1741 5.85262 35.8493 5.85262H34.5869V3.03168ZM35.0688 3.45326V4.19753H35.7969C35.9501 4.19753 36.0693 4.165 36.1531 4.09864C36.2395 4.03358 36.2841 3.9412 36.2841 3.82279C36.2841 3.70178 36.2395 3.6094 36.1531 3.54694C36.0693 3.48449 35.9501 3.45326 35.7969 3.45326H35.0688ZM35.0688 4.61911V5.43104H35.7969C35.9855 5.43104 36.1322 5.39721 36.2369 5.32695C36.3417 5.25408 36.3941 5.15259 36.3941 5.01987C36.3941 4.89496 36.3417 4.79867 36.2369 4.72841C36.1322 4.65554 35.9855 4.61911 35.7969 4.61911H35.0688Z" fill="#062B22"/>
<path d="M40.1714 5.85262H39.6895V3.03168H40.1714V5.85262Z" fill="#062B22"/>
<path d="M45.5603 3.03168V4.68157C45.5603 5.0498 45.4503 5.34126 45.2303 5.55595C45.0129 5.76805 44.713 5.87344 44.3293 5.87344C43.9443 5.87344 43.6405 5.76805 43.4179 5.55595C43.1979 5.34126 43.0879 5.0498 43.0879 4.68157V3.03168H43.5698V4.68157C43.5698 4.91838 43.6379 5.10575 43.7741 5.24367C43.9103 5.37899 44.0962 5.44666 44.3346 5.44666C44.565 5.44666 44.7457 5.37899 44.8793 5.24367C45.0155 5.10835 45.0836 4.92098 45.0836 4.68157V3.03168H45.5603Z" fill="#062B22"/>
<path d="M50.2755 5.85262L49.757 4.99905C49.7282 4.99905 49.6849 4.99905 49.626 4.99905H48.9555V5.85262H48.4736V3.03168H49.626C49.9888 3.03168 50.2703 3.11495 50.4693 3.2815C50.671 3.44805 50.7732 3.68617 50.7732 3.99455C50.7732 4.22095 50.7221 4.41092 50.6213 4.56706C50.5191 4.7232 50.3751 4.83771 50.1865 4.91057L50.8203 5.85262H50.2755ZM48.9555 4.57227H49.626C50.087 4.57227 50.3174 4.3836 50.3174 4.00496C50.3174 3.64063 50.087 3.45846 49.626 3.45846H48.9555V4.57227Z" fill="#062B22"/>
<path d="M53.84 3.42759C54.1294 3.15434 54.4869 3.01642 54.9138 3.01642C55.3394 3.01642 55.6956 3.15434 55.9824 3.42759C56.2718 3.70214 56.4172 4.04044 56.4172 4.4425C56.4172 4.84587 56.2718 5.18547 55.9824 5.46262C55.6956 5.73717 55.3394 5.8738 54.9138 5.8738C54.4869 5.8738 54.1294 5.73717 53.84 5.46262C53.5493 5.18547 53.4053 4.84587 53.4053 4.4425C53.4053 4.04044 53.5493 3.70214 53.84 3.42759ZM54.9191 3.4432C54.6362 3.4432 54.3927 3.54079 54.191 3.73467C53.9919 3.92594 53.8924 4.16145 53.8924 4.4425C53.8924 4.72096 53.9932 4.95777 54.1962 5.15555C54.3979 5.35072 54.6375 5.44701 54.9138 5.44701C55.1928 5.44701 55.4324 5.35072 55.6315 5.15555C55.8305 4.95777 55.93 4.72096 55.93 4.4425C55.93 4.16145 55.8305 3.92594 55.6315 3.73467C55.4324 3.54079 55.1941 3.4432 54.9191 3.4432Z" fill="#062B22"/>
<path d="M64.3948 3.45816H63.4938V5.85232H63.0119V3.45816H62.1162V3.03137H64.3948V3.45816Z" fill="#062B22"/>
<path d="M68.8132 5.42094V5.85293H67.1003V4.36959L66.7651 4.46327L66.6865 4.1614L67.1003 4.03649V3.03198H67.577V3.89596L68.2265 3.70859L68.3103 4.01567L67.577 4.22906V5.42094H68.8132Z" fill="#062B22"/>
<path d="M73.9148 3.03168V4.68157C73.9148 5.0498 73.8048 5.34126 73.5848 5.55595C73.3674 5.76805 73.0675 5.87344 72.6838 5.87344C72.2988 5.87344 71.995 5.76805 71.7724 5.55595C71.5524 5.34126 71.4424 5.0498 71.4424 4.68157V3.03168H71.9243V4.68157C71.9243 4.91838 71.9924 5.10575 72.1286 5.24367C72.2648 5.37899 72.4507 5.44666 72.689 5.44666C72.9195 5.44666 73.1002 5.37899 73.2338 5.24367C73.37 5.10835 73.4381 4.92098 73.4381 4.68157V3.03168H73.9148Z" fill="#062B22"/>
<path d="M79.8348 5.85262H79.3896V3.74472L78.4886 5.55595H78.1796L77.2786 3.74472V5.85262H76.8281V3.03168H77.3991L78.3367 4.90537L79.2691 3.03168H79.8348V5.85262Z" fill="#062B22"/>
<path d="M84.6681 5.21734H83.2329L82.9605 5.85232H82.4629L83.7148 3.03137H84.2072L85.4486 5.85232H84.9405L84.6681 5.21734ZM84.4848 4.79056L83.9453 3.53623L83.411 4.79056H84.4848Z" fill="#062B22"/>
<path d="M89.3125 3.01642C89.5116 3.01642 89.7054 3.05545 89.894 3.13092C90.0852 3.20769 90.2515 3.31569 90.3916 3.45361L90.1087 3.80233C90.0066 3.69173 89.8848 3.60455 89.7421 3.54209C89.602 3.47703 89.4605 3.4432 89.3178 3.4432C89.0349 3.4432 88.794 3.53949 88.5949 3.72946C88.3985 3.92073 88.3016 4.15495 88.3016 4.4321C88.3016 4.71315 88.3985 4.95126 88.5949 5.14514C88.794 5.33641 89.0349 5.4314 89.3178 5.4314C89.6137 5.4314 89.8783 5.3195 90.1087 5.09309L90.3916 5.41058C90.2475 5.55371 90.0786 5.66561 89.8835 5.74888C89.6871 5.83216 89.4906 5.8738 89.2916 5.8738C88.8752 5.8738 88.5242 5.73717 88.2387 5.46262C87.9559 5.18547 87.8145 4.84327 87.8145 4.4373C87.8145 4.03914 87.9572 3.70214 88.244 3.42759C88.5334 3.15434 88.8896 3.01642 89.3125 3.01642Z" fill="#062B22"/>
<path d="M95.2756 3.36998L93.547 5.42584H95.2965V5.85262H92.8975V5.50911L94.6313 3.45846H92.9498V3.03168H95.2756V3.36998Z" fill="#062B22"/>
<path d="M100.086 3.45846H98.5356V4.21835H99.9237V4.64513H98.5356V5.42584H100.133V5.85262H98.0537V3.03168H100.086V3.45846Z" fill="#062B22"/>
<path d="M104.822 2.3292L104.324 2.72476H103.91L104.34 2.12622L104.822 2.3292ZM105.413 5.85278H104.942L103.428 3.82816V5.85278H102.946V3.03184H103.418L104.942 5.05646V3.03184H105.413V5.85278Z" fill="#062B22"/>
</svg>
