<svg width="108" height="98" viewBox="0 0 108 98" fill="none" xmlns="http://www.w3.org/2000/svg">
<mask id="mask0_147_211" style="mask-type:luminance" maskUnits="userSpaceOnUse" x="0" y="0" width="108" height="98">
<path d="M0 0H108V98H0V0Z" fill="white"/>
</mask>
<g mask="url(#mask0_147_211)">
<path d="M102.997 15.5625C101.584 15.5063 100.239 15.9172 99.1938 16.7492V11.5761C99.1938 9.02404 96.9581 6.84456 94.2112 6.71696C92.7978 6.66336 91.453 7.0717 90.4108 7.90368V5.46644C90.4108 2.70763 88.0751 0.352059 85.0942 0.101955C83.4181 -0.0358577 81.762 0.454142 80.5342 1.44946C79.3235 2.43201 78.6297 3.828 78.6297 5.27758V8.00321C77.656 7.20185 76.3511 6.71185 74.9149 6.71185C72.051 6.71185 69.7125 8.61826 69.4755 11.1448C69.0758 15.4119 68.7788 19.753 68.5932 24.0456C68.3334 30.0736 68.2877 36.8213 68.4504 43.1199C67.8451 42.0939 67.1627 41.1165 66.3975 40.1952C65.0669 38.6001 63.6792 37.3853 62.36 36.6631C61.2579 36.0634 59.6732 35.3386 58.1313 35.114L55.8841 31.8141V7.49279C55.8841 3.5243 52.2236 0.293361 47.7236 0.293361H8.18014C3.68299 0.293361 0.0224609 3.5243 0.0224609 7.49279V32.2429C0.0224609 36.2114 3.68299 39.4423 8.18014 39.4423H47.3438L53.774 41.3309L64.8898 65.2745C65.6008 66.8492 66.5773 68.3115 67.7909 69.6207C68.419 70.297 69.1129 70.9172 69.8467 71.4965V78.3412C69.3042 78.331 68.7674 78.4713 68.3162 78.7699C67.6681 79.1961 67.2969 79.852 67.2969 80.5692V97.2215C67.2969 97.6528 67.6881 97.9999 68.1678 97.9999H105.002C105.484 97.9999 105.872 97.6528 105.872 97.2215V80.5794C105.872 79.8597 105.501 79.2038 104.853 78.775C104.299 78.4101 103.622 78.2799 102.957 78.3769V77.3637C104.587 74.9393 105.844 72.331 106.692 69.6156C107.497 67.0329 107.931 64.3634 107.977 61.6684V20.4216C107.977 17.8696 105.744 15.6901 102.997 15.5625ZM47.4838 37.8881H8.18014C4.64238 37.8881 1.76421 35.3564 1.76421 32.2429V7.49279C1.76421 4.3818 4.64238 1.84758 8.18014 1.84758H47.7236C51.2642 1.84758 54.1424 4.3818 54.1424 7.49279V32.0311C54.1424 32.174 54.1852 32.3118 54.2709 32.4343L60.5726 41.6907L47.7579 37.9264C47.6693 37.9009 47.5751 37.8881 47.4838 37.8881ZM69.3499 80.0179C69.5469 79.8877 69.7924 79.852 70.0266 79.9158C70.1437 79.9464 70.2607 79.972 70.3778 80.0051C70.3806 80.0051 70.3864 80.0051 70.3921 80.0077C75.8258 81.4598 81.4508 82.1693 87.1129 82.1285C89.8226 82.1285 92.0298 84.0834 92.0298 86.4874C92.0298 88.792 89.9968 90.678 87.4384 90.8285C81.2566 90.8489 75.0748 90.2824 69.0386 89.1237V80.5692C69.0386 80.3497 69.1528 80.1481 69.3499 80.0179ZM69.0386 96.4457V90.7111C74.9749 91.8264 81.0482 92.3981 87.1129 92.3981C92.815 92.3981 98.5342 91.8902 104.131 90.9025V96.4457H69.0386ZM103.817 80.023C104.016 80.1557 104.131 80.3573 104.131 80.5794V89.3202C100.05 90.0552 95.9101 90.5223 91.7499 90.7213C92.9949 89.6444 93.7715 88.1463 93.7715 86.4874C93.7715 84.6627 92.835 83.0319 91.3702 81.9473C95.1021 81.664 98.7912 81.0464 102.395 80.1072C102.406 80.1021 102.423 80.1021 102.435 80.097C102.666 80.0358 102.9 79.9822 103.131 79.9184C103.368 79.8546 103.62 79.8929 103.817 80.023ZM106.235 61.6557C106.192 64.2052 105.781 66.7445 105.013 69.1971C104.185 71.8461 102.951 74.3855 101.344 76.741C101.261 76.8635 101.218 77.0039 101.218 77.1468V78.7904C96.6183 79.9311 91.8784 80.536 87.1043 80.5743C81.8648 80.6304 76.6424 79.9847 71.5884 78.6985V72.7087C71.9796 72.9486 72.3765 73.1809 72.7905 73.3978C72.9276 73.4693 73.0789 73.5024 73.2274 73.5024C73.5272 73.5024 73.8185 73.3646 73.9812 73.1171C74.2211 72.7445 74.0811 72.2698 73.6671 72.0528C71.9282 71.1494 70.4006 69.9984 69.1329 68.6305C68.0336 67.4438 67.1513 66.1218 66.5031 64.6875L55.9584 41.9714L62.2687 43.8268C62.36 43.8523 62.4514 43.8651 62.5428 43.8651C62.8026 43.8651 63.0567 43.7605 63.2223 43.5716C63.4508 43.3164 63.4765 42.9617 63.2851 42.6835L59.4733 37.0816C60.1015 37.3139 60.7753 37.6201 61.4806 38.0029C62.5685 38.5976 63.8191 39.7052 65.0012 41.1216C66.5773 43.0152 67.7994 45.1718 68.6332 47.5248C68.6389 47.5426 68.6532 47.558 68.6589 47.5758C68.676 47.6141 68.6989 47.6498 68.7217 47.6881C68.7445 47.7213 68.7674 47.7519 68.7959 47.7825C68.9244 47.928 69.1015 48.0224 69.3128 48.048C69.347 48.0531 69.3813 48.0658 69.4155 48.0684C72.4536 48.2113 75.2804 48.9233 77.8216 50.1815C84.5374 53.512 86.7845 59.4507 87.4384 61.8496C87.5355 62.2044 87.8924 62.4443 88.2836 62.4443C88.3521 62.4443 88.4206 62.4366 88.4891 62.4213C88.9574 62.3192 89.243 61.9007 89.1287 61.4847C88.4206 58.8841 85.985 52.4503 78.6668 48.8238C76.117 47.5605 73.3074 46.8051 70.3064 46.5703C70.0152 39.3734 70.0237 31.2323 70.3321 24.1018C70.5148 19.8347 70.8118 15.5165 71.2087 11.2699C71.3686 9.55742 72.9619 8.26352 74.9149 8.26352C76.9622 8.26352 78.6297 9.72841 78.6297 11.5276V38.447C78.6297 38.8758 79.018 39.2228 79.5006 39.2228C79.9803 39.2228 80.3714 38.8758 80.3714 38.447V5.27758C80.3714 4.2644 80.8568 3.28696 81.702 2.60045C82.5815 1.88586 83.7236 1.54899 84.9314 1.64852C87.0272 1.82461 88.669 3.50133 88.669 5.46644V37.342C88.669 37.7707 89.0574 38.1178 89.5399 38.1178C90.0196 38.1178 90.4108 37.7707 90.4108 37.342V11.3592C90.4108 10.5119 90.7905 9.72076 91.4844 9.13378C92.1954 8.53149 93.1348 8.22524 94.1227 8.27118C95.9587 8.35539 97.452 9.84071 97.452 11.5787V40.6597C97.452 41.091 97.8432 41.4381 98.3229 41.4381C98.8026 41.4381 99.1938 41.091 99.1938 40.6597V20.2022C99.1938 19.3549 99.5764 18.5663 100.27 17.9767C100.978 17.377 101.915 17.0708 102.906 17.1167C104.742 17.2009 106.235 18.6837 106.235 20.4216V61.6557Z" fill="#062B22"/>
</g>
<path d="M39.9611 11.6633H12.9753C12.4361 11.6633 11.9995 12.0388 11.9995 12.5054C11.9995 12.9692 12.4361 13.3446 12.9753 13.3446H39.9611C40.5003 13.3446 40.9401 12.9692 40.9401 12.5054C40.9401 12.0388 40.5003 11.6633 39.9611 11.6633Z" fill="#062B22"/>
<path d="M34.2749 23.623H17.9204C17.3812 23.623 16.9414 23.9985 16.9414 24.4651C16.9414 24.9289 17.3812 25.3043 17.9204 25.3043H34.2749C34.8142 25.3043 35.254 24.9289 35.254 24.4651C35.254 23.9985 34.8142 23.623 34.2749 23.623Z" fill="#062B22"/>
<path d="M57.7168 73.8176H56.3497L54.0863 61.7961C55.111 61.427 56.0871 60.8747 56.989 60.1111C57.6169 59.5791 57.9366 58.8308 57.8709 58.0571C57.8024 57.2578 57.34 56.5324 56.6008 56.0743C55.4421 55.3539 53.8923 55.4659 52.8334 56.339C52.3767 56.7182 51.9343 56.9422 51.5205 57.0109C50.7499 57.1407 49.8337 56.6851 47.5904 55.4507C46.0948 54.6311 44.2339 53.6079 41.7651 52.5668C40.8575 52.185 39.9356 51.8389 39.008 51.5105C39.0594 51.3425 39.0508 51.1669 38.9709 51.0015C38.8311 50.7215 38.5171 50.5408 38.1746 50.5408H26.7667C26.4242 50.5408 26.1103 50.7215 25.9704 51.0015C25.8905 51.1669 25.8848 51.3425 25.9333 51.5105C25.0057 51.8389 24.0838 52.185 23.1762 52.5668C20.7074 53.6079 18.8465 54.6311 17.3339 55.4583C15.1076 56.6826 14.1915 57.1306 13.4237 57.0084C13.007 56.9422 12.5675 56.7157 12.108 56.339C11.0462 55.4634 9.4993 55.3539 8.33767 56.0717C7.59845 56.5324 7.13894 57.2553 7.07044 58.0545C7.0048 58.8308 7.32446 59.5791 7.94951 60.1086C8.85141 60.8722 9.82752 61.4245 10.855 61.7936L8.59169 73.8176H7.22456C6.97055 73.8176 6.72795 73.9168 6.56241 74.0899C6.39687 74.2604 6.32552 74.4895 6.36262 74.7135C6.98482 78.2718 10.5211 80.9546 14.5882 80.9546C18.6525 80.9546 22.1887 78.2718 22.8109 74.7135C22.8509 74.4895 22.7767 74.2604 22.6111 74.0899C22.4456 73.9168 22.203 73.8176 21.949 73.8176H20.5676L17.9104 61.2718C18.7438 60.89 19.58 60.4318 20.4648 59.9457C21.9062 59.1541 23.5387 58.2556 25.7307 57.3291C27.0065 56.792 28.2651 56.3237 29.4953 55.9292V86.3201L19.3061 93.536C19.0149 93.7422 18.9036 94.0884 19.0263 94.3989C19.1462 94.7094 19.4773 94.9181 19.8455 94.9181H45.093C45.4641 94.9181 45.7951 94.7094 45.915 94.3989C46.0377 94.0884 45.9264 93.7422 45.6353 93.536L35.4461 86.3201V55.9292C36.6734 56.3237 37.9349 56.792 39.2107 57.3316C41.4026 58.2556 43.0352 59.1541 44.4765 59.9482C45.3613 60.4318 46.1976 60.89 47.031 61.2718L44.3738 73.8176H42.9895C42.7355 73.8176 42.4958 73.9168 42.3302 74.0899C42.1647 74.2604 42.0905 74.4895 42.1304 74.7135C42.7526 78.2718 46.2889 80.9546 50.3532 80.9546C54.4203 80.9546 57.9537 78.2718 58.5787 74.7135C58.6158 74.4895 58.5445 74.2604 58.3789 74.0899C58.2134 73.9168 57.9708 73.8176 57.7168 73.8176ZM55.6047 57.3469C55.913 57.5378 56.1071 57.8407 56.1356 58.1741C56.1499 58.3549 56.127 58.701 55.7903 58.9861C55.1566 59.5231 54.4859 59.9253 53.7895 60.2206L53.3586 57.94C53.5812 57.8051 53.7981 57.6549 54.015 57.4767C54.4717 57.1 55.1252 57.0466 55.6047 57.3469ZM36.2053 52.0934L32.4692 55.751L31.0251 54.3358L28.7332 52.0934H36.2053ZM32.4692 85.9205H31.2363V56.8455L31.8271 57.4233C31.9926 57.5862 32.2267 57.6778 32.4721 57.6778C32.7176 57.6778 32.9487 57.5862 33.1143 57.4233L33.7051 56.8455V85.9205H32.4692ZM9.15109 58.9861C8.81431 58.701 8.79148 58.3549 8.80575 58.1741C8.83429 57.8382 9.02551 57.5378 9.33376 57.3469C9.8161 57.0466 10.4697 57.1 10.9235 57.4767C11.1404 57.6549 11.3602 57.8051 11.5799 57.94L11.1518 60.2206C10.4554 59.9253 9.78471 59.5231 9.15109 58.9861ZM14.5882 79.4045C11.7227 79.4045 9.19105 77.7221 8.3234 75.3677H20.8501C19.9853 77.7221 17.4537 79.4045 14.5882 79.4045ZM18.798 73.8176H10.3555L12.5389 62.2212C12.9328 62.2772 13.3238 62.3103 13.7091 62.3103C14.6139 62.3103 15.4558 62.1601 16.275 61.9081L18.798 73.8176ZM24.9886 55.9292C22.7053 56.8913 21.0299 57.8152 19.5515 58.6272C17.3795 59.8184 15.6642 60.7602 13.7091 60.7602C13.4209 60.7602 13.124 60.7347 12.8272 60.694L13.2325 58.5457C14.6824 58.729 15.9667 58.0341 18.2643 56.7717C19.7228 55.9724 21.5408 54.9747 23.9212 53.9693C24.9572 53.5315 26.0189 53.137 27.0778 52.7755L28.8331 54.4936C27.5744 54.9009 26.2844 55.3819 24.9886 55.9292ZM22.34 93.368L30.6712 87.4706H34.2702L42.6014 93.368H22.34ZM39.9528 55.9317C38.6541 55.3819 37.3669 54.9009 36.1083 54.4936L37.8635 52.7755C38.9224 53.137 39.9813 53.5315 41.0173 53.9693C43.4005 54.9747 45.2186 55.9724 46.6942 56.7819C48.9746 58.0341 50.2561 58.729 51.7089 58.5457L52.1142 60.694C51.8173 60.7347 51.5205 60.7602 51.2294 60.7602C49.2772 60.7602 47.5618 59.8184 45.3898 58.6272C43.9114 57.8127 42.236 56.8913 39.9528 55.9317ZM48.6664 61.9081C49.4855 62.1601 50.3275 62.3103 51.2322 62.3103C51.6175 62.3103 52.0085 62.2772 52.4024 62.2212L54.5858 73.8176H46.1433L48.6664 61.9081ZM50.3532 79.4045C47.4876 79.4045 44.956 77.7221 44.0912 75.3677H56.618C55.7503 77.7221 53.2187 79.4045 50.3532 79.4045Z" fill="#062B22"/>
<path d="M35.2945 46.8429C35.2945 45.484 34.0264 44.3774 32.471 44.3774C30.9129 44.3774 29.6475 45.484 29.6475 46.8429C29.6475 48.2017 30.9129 49.3083 32.471 49.3083C34.0264 49.3083 35.2945 48.2017 35.2945 46.8429ZM31.2977 46.8429C31.2977 46.2836 31.8234 45.8267 32.4683 45.8267C33.1159 45.8267 33.6389 46.2836 33.6389 46.8429C33.6389 47.4021 33.1159 47.859 32.4683 47.859C31.8234 47.859 31.2977 47.4021 31.2977 46.8429Z" fill="#062B22"/>
<path d="M88.5037 92.6098C90.6768 92.6098 92.4423 91.0997 92.4423 89.2445C92.4423 87.3865 90.6736 85.8792 88.5037 85.8792C86.3338 85.8792 84.5684 87.3865 84.5684 89.2445C84.5684 91.0997 86.3338 92.6098 88.5037 92.6098ZM88.5037 87.5604C89.5951 87.5604 90.4842 88.3141 90.4842 89.2445C90.4842 90.1721 89.5951 90.9286 88.5037 90.9286C87.4123 90.9286 86.5264 90.1721 86.5264 89.2445C86.5264 88.3141 87.4123 87.5604 88.5037 87.5604Z" fill="#062B22"/>
</svg>
