<svg width="108" height="98" viewBox="0 0 108 98" fill="none" xmlns="http://www.w3.org/2000/svg">
<path d="M52.3411 83.3761C52.3411 87.5933 49.1589 91.0256 45.247 91.0256C41.335 91.0256 38.1529 87.5933 38.1529 83.3761C38.1529 79.1567 41.335 75.7244 45.247 75.7244C49.1589 75.7244 52.3411 79.1567 52.3411 83.3761ZM36.2495 83.3761C36.2495 88.7253 40.2855 93.0786 45.247 93.0786C50.2084 93.0786 54.2444 88.7253 54.2444 83.3761C54.2444 78.0247 50.2084 73.6714 45.247 73.6714C40.2855 73.6714 36.2495 78.0247 36.2495 83.3761Z" fill="#062B22"/>
<path d="M41.6631 79.5787C41.6631 80.1435 42.0879 80.604 42.6137 80.604H47.8801C48.4059 80.604 48.8308 80.1435 48.8308 79.5787C48.8308 79.0115 48.4059 78.551 47.8801 78.551H42.6137C42.0879 78.551 41.6631 79.0115 41.6631 79.5787Z" fill="#062B22"/>
<path d="M39.6709 83.7325C39.6709 84.2996 40.0957 84.7578 40.6215 84.7578H49.5265C50.0523 84.7578 50.4792 84.2996 50.4792 83.7325C50.4792 83.1653 50.0523 82.7048 49.5265 82.7048H40.6215C40.0957 82.7048 39.6709 83.1653 39.6709 83.7325Z" fill="#062B22"/>
<path d="M46.9501 86.7788H43.5429C43.0171 86.7788 42.5923 87.2393 42.5923 87.8064C42.5923 88.3736 43.0171 88.8318 43.5429 88.8318H46.9501C47.4759 88.8318 47.9029 88.3736 47.9029 87.8064C47.9029 87.2393 47.4759 86.7788 46.9501 86.7788Z" fill="#062B22"/>
<path d="M65.4309 83.0812C65.2437 83.9637 65.0671 84.7985 64.9177 85.5993C64.903 85.6787 64.8883 85.7626 64.8715 85.8488C64.5118 87.7407 63.8472 91.2615 65.8284 92.6158C66.3353 92.9606 66.7854 93.0808 67.1682 93.0808C67.5131 93.0808 67.8033 92.981 68.0263 92.863C69.1241 92.2755 69.7698 90.5764 70.0033 87.6704C70.0222 87.4436 70.1231 86.2503 70.3356 85.0094C70.4618 84.279 70.5837 83.7731 70.6889 83.4237C70.8004 83.764 70.9118 84.1497 70.9939 84.4378C71.1937 85.1342 71.3998 85.8511 71.6669 86.4159C72.2537 87.6591 73.0235 87.7589 73.4693 87.6863C74.481 87.5865 75.0131 86.6019 75.4421 85.808C75.5809 85.5516 75.8291 85.0911 75.9848 84.9414C76.0983 85.0049 76.418 85.234 76.9648 86.0325C77.3245 86.7607 77.886 86.8265 78.1174 86.8197C79.2468 86.7834 79.8525 85.2635 81.1123 81.8312C81.5814 80.5541 82.1114 79.109 82.4521 78.5759C82.7507 78.1086 82.6435 77.4712 82.2102 77.1468C81.7791 76.8246 81.186 76.9426 80.8873 77.4099C80.4225 78.1336 79.9219 79.4969 79.3436 81.0758C79.0176 81.9583 78.6832 82.8702 78.374 83.603C78.2625 83.8684 78.1658 84.0793 78.0837 84.2472C77.4885 83.4895 76.7482 82.8203 75.8691 82.8702C74.7943 82.9292 74.2412 83.9523 73.7974 84.7758C73.6881 84.9777 73.5114 85.3043 73.3684 85.504C73.1728 85.0888 72.9477 84.3017 72.8131 83.8321C72.4156 82.446 72.0728 81.2482 71.2105 80.8694C70.8235 80.697 70.3987 80.7287 70.0117 80.9533C69.3239 81.3526 68.8739 82.3802 68.5079 84.3879C68.2513 85.8034 68.1293 87.2212 68.1062 87.4935C67.898 90.0932 67.368 90.9235 67.1808 91.0233C67.1618 91.0324 67.0483 91.0187 66.8464 90.8804C66.4278 90.5945 66.3689 89.6712 66.3732 89.1495C66.3795 88.1491 66.594 87.0125 66.737 86.2594C66.7538 86.1709 66.7707 86.0847 66.7854 86.003C66.9284 85.2295 67.103 84.4083 67.288 83.5394C67.7402 81.4093 68.2071 79.2066 68.3396 77.1876C68.4154 76.0488 68.4406 73.2268 67.0504 71.6547C66.4405 70.965 65.6349 70.6112 64.72 70.6338C63.6726 70.6588 62.7956 71.2191 62.253 72.2105C61.153 74.2249 61.6262 77.4802 62.3897 79.0546C62.6337 79.5559 63.2099 79.7487 63.6748 79.4856C64.1396 79.2224 64.3204 78.6031 64.0765 78.1018C63.4728 76.8587 63.2562 74.42 63.8935 73.254C64.1059 72.8661 64.3667 72.6959 64.7642 72.6868C65.1449 72.6778 65.433 72.8003 65.6728 73.0725C66.2554 73.7304 66.5561 75.2888 66.4405 77.0424C66.3185 78.9049 65.8663 81.0282 65.4309 83.0812Z" fill="#062B22"/>
<path d="M67.7086 30.708C68.2344 30.708 68.6592 30.2475 68.6592 29.6804C68.6592 29.1133 68.2344 28.655 67.7086 28.655H49.5265C49.0007 28.655 48.5737 29.1133 48.5737 29.6804C48.5737 30.2475 49.0007 30.708 49.5265 30.708H67.7086Z" fill="#062B22"/>
<mask id="mask0_147_171" style="mask-type:luminance" maskUnits="userSpaceOnUse" x="80" y="23" width="28" height="47">
<path d="M80.2744 23.6106H107.763V69.3258H80.2744V23.6106Z" fill="white"/>
</mask>
<g mask="url(#mask0_147_171)">
<path d="M105.71 28.5787C105.689 28.6173 105.67 28.6581 105.651 28.7057L105.096 29.7266L101.653 27.4876L102.28 26.3374L102.292 26.3125C102.465 26.0107 102.732 25.7975 103.048 25.709C103.146 25.6818 103.249 25.6682 103.352 25.6682C103.578 25.6682 103.796 25.734 103.99 25.8588L105.273 26.6936C105.561 26.8819 105.763 27.179 105.847 27.5352C105.929 27.8914 105.881 28.2634 105.71 28.5787ZM87.1894 61.7898L82.2658 66.4131L83.7107 60.9641L85.0294 61.8216C85.1746 61.9169 85.3407 61.9668 85.509 61.9668C85.8413 61.9668 86.1504 61.7739 86.3187 61.4654C86.5795 60.9845 86.4344 60.3584 85.9927 60.0703L84.1356 58.8612L100.675 29.2502L104.11 31.4824L87.1894 61.7898ZM106.236 24.9423L104.953 24.1075C104.469 23.7921 103.916 23.6243 103.359 23.6243C103.098 23.6243 102.837 23.6606 102.583 23.7309C101.773 23.9555 101.092 24.5113 100.667 25.2962L99.9979 26.5212C99.9642 26.5189 99.9327 26.5166 99.899 26.5166C99.6424 26.5166 99.4069 26.6255 99.2323 26.8161C99.1734 26.8773 99.1229 26.9499 99.0788 27.027C98.8937 27.3696 98.9084 27.7961 99.1103 28.1205L82.0408 58.6956C82.0261 58.7228 82.0134 58.75 82.0008 58.7772L81.9924 58.7976C81.9798 58.8294 81.9693 58.8612 81.9567 58.902L81.9504 58.9247C81.9419 58.9542 81.9335 58.9859 81.9293 59.02L81.923 59.0472C81.9188 59.0857 81.9146 59.122 81.9125 59.1583L80.3078 68.2369C80.2909 68.6158 80.4655 68.9697 80.762 69.1625C80.9072 69.2578 81.0733 69.3077 81.2437 69.3077C81.4161 69.3077 81.5844 69.2555 81.7316 69.158L88.3987 63.3778C88.5817 63.2553 88.7226 63.067 88.7941 62.8424L105.761 32.4601C105.801 32.467 105.845 32.4692 105.885 32.4692C106.116 32.4692 106.339 32.3739 106.507 32.2106C106.585 32.1403 106.65 32.0541 106.703 31.9565C106.892 31.6117 106.873 31.1784 106.665 30.8518L107.336 29.6177C107.363 29.5678 107.386 29.5133 107.407 29.4566C108.177 27.8528 107.664 25.8701 106.236 24.9423Z" fill="#062B22"/>
</g>
<mask id="mask1_147_171" style="mask-type:luminance" maskUnits="userSpaceOnUse" x="0" y="28" width="31" height="60">
<path d="M0.762695 28.6738H30.1906V87.3286H0.762695V28.6738Z" fill="white"/>
</mask>
<g mask="url(#mask1_147_171)">
<path d="M17.6181 81.7573L9.44932 84.7427L2.95045 64.0697L11.1193 61.0843L17.6181 81.7573ZM29.9365 33.7328C29.6526 32.02 28.6788 29.9421 27.1435 29.1549C26.2665 28.7057 25.3011 28.7443 24.4346 29.2638C23.3746 29.899 22.8698 31.2147 22.2851 32.7414C21.7656 34.098 21.1767 35.6361 20.0957 36.9858C17.3826 40.3727 16.0407 48.4418 15.6937 50.8329L15.6811 50.9281C15.4834 52.0579 15.3656 53.0628 15.252 54.036C15.0985 55.3495 14.9534 56.5926 14.6337 57.9605C14.3182 59.3103 13.5989 60.0657 13.0311 60.3221L12.8313 60.4128L12.5515 59.5236C12.4274 59.1243 12.0804 58.8543 11.6892 58.8543C11.5904 58.8543 11.4915 58.8725 11.3969 58.9088L1.50345 62.5248C1.02813 62.6995 0.77364 63.2575 0.933483 63.7702L8.01705 86.3034C8.14324 86.7027 8.48816 86.9704 8.87935 86.9704C8.9782 86.9704 9.07705 86.9522 9.1717 86.9182L19.0651 83.3022C19.2944 83.2182 19.4816 83.0413 19.5888 82.8054C19.6961 82.5717 19.7129 82.304 19.6351 82.0567L19.0041 80.0536L22.3798 78.8196L22.3987 78.8128C22.4113 78.8082 22.4176 78.806 22.4429 78.7946C22.4954 78.7719 22.7773 78.6676 23.1706 78.6676C23.4482 78.6676 23.7195 78.7198 23.9719 78.8218C24.2453 78.9285 24.5187 79.0623 24.8069 79.2052C25.2948 79.4434 25.8038 79.7565 26.4516 79.8858C27.5557 80.1081 27.9827 78.1594 26.6219 77.9258C26.0961 77.835 25.7007 77.5356 25.3369 77.3405C25.0824 77.2021 24.8426 77.0751 24.6028 76.9798C24.1486 76.796 23.669 76.703 23.179 76.703C22.466 76.703 21.9255 76.9027 21.7698 76.9685L18.4216 78.1935L13.4138 62.2662L13.5947 62.1913C14.9302 61.6378 15.9797 60.2359 16.4004 58.4415C16.718 57.0781 16.8925 55.6671 17.0755 54.1698C17.2143 53.0424 17.3573 51.8741 17.5719 50.665C18.655 44.3199 19.9674 40.1481 21.4733 38.2675C22.7478 36.6773 23.4251 34.9101 23.9698 33.49C24.4241 32.3059 24.8153 31.2828 25.3179 30.9811C25.686 30.761 26.0036 30.7451 26.3611 30.9289C27.1603 31.3372 27.9091 32.662 28.1446 34.0776C28.5779 36.6932 28.0437 38.8188 26.3548 41.1849C26.2202 41.3731 26.155 41.6068 26.1676 41.845C26.2034 42.4961 26.1887 44.4492 25.6944 45.6243C25.5956 45.8648 25.5871 46.1302 25.6713 46.3752C25.7575 46.6202 25.9279 46.8153 26.1487 46.9242C26.2686 46.9832 26.3948 47.0127 26.5231 47.0127C26.8806 47.0127 27.2066 46.7858 27.3538 46.4365C27.9743 44.9574 28.0121 42.9588 27.9995 42.1671V42.0945L28.0395 42.0355C29.8314 39.3791 30.435 36.7408 29.9365 33.7328Z" fill="#062B22"/>
</g>
<path d="M12.542 81.4488C12.6787 81.4488 12.8133 81.4261 12.9437 81.3762C13.5999 81.138 13.9511 80.3667 13.7303 79.6612C13.5578 79.1122 13.0783 78.7424 12.542 78.7424C12.4053 78.7424 12.2686 78.7651 12.1382 78.8128C11.482 79.0532 11.1307 79.8245 11.3537 80.53C11.5261 81.079 12.0035 81.4488 12.542 81.4488Z" fill="#062B22"/>
<mask id="mask2_147_171" style="mask-type:luminance" maskUnits="userSpaceOnUse" x="29" y="45" width="62" height="53">
<path d="M29.1138 45.6313H90.0307V98.0001H29.1138V45.6313Z" fill="white"/>
</mask>
<g mask="url(#mask2_147_171)">
<path d="M89.0756 68.1122C88.5498 68.1122 88.1229 68.5727 88.1229 69.1398V95.9469H31.0569V46.7042C31.0569 46.137 30.6299 45.6765 30.1041 45.6765C29.5783 45.6765 29.1514 46.137 29.1514 46.7042V96.9722C29.1514 97.5394 29.5783 97.9999 30.1041 97.9999H89.0756C89.6014 97.9999 90.0263 97.5394 90.0263 96.9722V69.1398C90.0263 68.5727 89.6014 68.1122 89.0756 68.1122Z" fill="#062B22"/>
</g>
<mask id="mask3_147_171" style="mask-type:luminance" maskUnits="userSpaceOnUse" x="29" y="0" width="62" height="41">
<path d="M29.1138 0H90.4934V40.2889H29.1138V0Z" fill="white"/>
</mask>
<g mask="url(#mask3_147_171)">
<path d="M74.1871 3.50486L86.7768 17.0819H74.1871V3.50486ZM30.1041 27.0816C30.6299 27.0816 31.0569 26.6233 31.0569 26.0562V2.05301H72.2837V18.1096C72.2837 18.6767 72.7085 19.135 73.2343 19.135H88.1229V38.7758C88.1229 39.3429 88.5498 39.8034 89.0756 39.8034C89.6014 39.8034 90.0263 39.3429 90.0263 38.7758V18.1096C90.0263 18.1028 90.0263 18.0982 90.0263 18.0937C90.0263 18.071 90.0241 18.0461 90.022 18.0234C90.022 18.0143 90.022 18.0052 90.0199 17.9984C90.0178 17.9689 90.0136 17.9372 90.0073 17.9077C90.0073 17.9077 90.0073 17.9077 90.0073 17.9054C90.0031 17.8782 89.9968 17.8487 89.9884 17.8215C89.9863 17.8124 89.9842 17.8033 89.98 17.7965C89.9737 17.7738 89.9674 17.7534 89.959 17.7307C89.9568 17.7239 89.9547 17.7171 89.9505 17.7103C89.94 17.6808 89.9274 17.6536 89.9148 17.6264V17.6241C89.9001 17.5992 89.8874 17.5719 89.8706 17.547C89.8664 17.5402 89.8622 17.5356 89.858 17.5266C89.8454 17.5084 89.8328 17.4903 89.8201 17.4721C89.8159 17.4653 89.8117 17.4585 89.8054 17.4517C89.7865 17.429 89.7676 17.4063 89.7486 17.3837L73.9074 0.299444C73.8863 0.276759 73.8674 0.258611 73.8464 0.238194C73.838 0.233658 73.8316 0.226852 73.8253 0.222315C73.8085 0.206436 73.7917 0.195093 73.7749 0.181481C73.7686 0.176945 73.7622 0.172408 73.7538 0.165602C73.7328 0.151991 73.7097 0.136111 73.6886 0.1225C73.6865 0.1225 73.6844 0.120231 73.6823 0.120231C73.6571 0.106621 73.6318 0.0930091 73.6066 0.0816667C73.6003 0.0771293 73.5919 0.074861 73.5856 0.0725926C73.5666 0.0635185 73.5456 0.0567125 73.5267 0.0499074C73.5183 0.0476385 73.5099 0.0431023 73.5014 0.0408333C73.4762 0.0340282 73.451 0.0272224 73.4257 0.0204167C73.4236 0.0204167 73.4236 0.0204167 73.4215 0.0204167C73.3942 0.0136115 73.3668 0.00907393 73.3395 0.00680556C73.3311 0.0045366 73.3227 0.00453704 73.3143 0.00453704C73.2932 0.00226866 73.2722 0 73.2512 0C73.2449 0 73.2407 0 73.2343 0H30.1041C29.5783 0 29.1514 0.45824 29.1514 1.02537V26.0562C29.1514 26.6233 29.5783 27.0816 30.1041 27.0816Z" fill="#062B22"/>
</g>
<path d="M42.2837 37.6868C42.2837 38.2539 42.7085 38.7122 43.2343 38.7122H75.9432C76.469 38.7122 76.896 38.2539 76.896 37.6868C76.896 37.1197 76.469 36.6592 75.9432 36.6592H43.2343C42.7085 36.6592 42.2837 37.1197 42.2837 37.6868Z" fill="#062B22"/>
<path d="M43.2343 45.6949H75.9432C76.469 45.6949 76.896 45.2343 76.896 44.6672C76.896 44.1001 76.469 43.6418 75.9432 43.6418H43.2343C42.7085 43.6418 42.2837 44.1001 42.2837 44.6672C42.2837 45.2343 42.7085 45.6949 43.2343 45.6949Z" fill="#062B22"/>
<path d="M43.2343 52.6751H75.9432C76.469 52.6751 76.896 52.2146 76.896 51.6474C76.896 51.0826 76.469 50.6221 75.9432 50.6221H43.2343C42.7085 50.6221 42.2837 51.0826 42.2837 51.6474C42.2837 52.2146 42.7085 52.6751 43.2343 52.6751Z" fill="#062B22"/>
<path d="M76.896 58.6297C76.896 58.0626 76.469 57.6021 75.9432 57.6021H43.2343C42.7085 57.6021 42.2837 58.0626 42.2837 58.6297C42.2837 59.1968 42.7085 59.6551 43.2343 59.6551H75.9432C76.469 59.6551 76.896 59.1968 76.896 58.6297Z" fill="#062B22"/>
</svg>
