<svg width="81" height="98" viewBox="0 0 81 98" fill="none" xmlns="http://www.w3.org/2000/svg">
<mask id="mask0_147_144" style="mask-type:luminance" maskUnits="userSpaceOnUse" x="0" y="0" width="81" height="98">
<path d="M0.536133 0.5H79.5361V97.5H0.536133V0.5Z" fill="white" stroke="white"/>
</mask>
<g mask="url(#mask0_147_144)">
<path d="M70.3696 5.90552V6.40552H70.8696H79.2318C79.4095 6.40552 79.531 6.5422 79.531 6.68391V97.2216C79.531 97.3618 79.4084 97.5 79.2318 97.5H10.0048C9.8266 97.5 9.70555 97.3629 9.70555 97.2216V92.0945V91.5945H9.20555H0.84077C0.663018 91.5945 0.541504 91.4578 0.541504 91.3161V0.778385C0.541504 0.638173 0.664101 0.5 0.84077 0.5H70.0677C70.2481 0.5 70.3696 0.639221 70.3696 0.778385V5.90552ZM1.64266 1.05677H1.14266V1.55677V90.5403V91.0403H1.64266H69.2684H69.7684V90.5403V1.55677V1.05677H69.2684H1.64266ZM78.4325 96.9432H78.9325V96.4432V7.45974V6.95974H78.4325H70.8696H70.3696V7.45974V91.3161C70.3696 91.4578 70.2481 91.5945 70.0703 91.5945H10.8041H10.3041V92.0945V96.4432V96.9432H10.8041H78.4325Z" fill="#062B22" stroke="#062B22"/>
</g>
<path d="M10.8039 14.5543C10.8039 14.5364 10.7934 14.5211 10.7934 14.5032C10.7908 14.4496 10.7751 14.4012 10.762 14.3501C10.7462 14.2991 10.7331 14.2506 10.7069 14.2046C10.6991 14.1868 10.6991 14.1689 10.6886 14.1536L8.13355 10.0345L12.84 8.32975C13.2017 8.79167 13.7074 9.13365 14.2944 9.30464V17.7776C12.405 18.0762 10.8013 19.4083 10.2536 21.2254C10.1828 21.4602 10.23 21.7129 10.382 21.9094C10.5313 22.1059 10.7698 22.2207 11.0214 22.2207H19.166C19.4176 22.2207 19.6561 22.1059 19.8055 21.9094C19.9574 21.7129 20.0046 21.4602 19.9339 21.2254C19.3862 19.4083 17.7824 18.0762 15.893 17.7776V9.30464C16.48 9.13365 16.9884 8.79167 17.35 8.32975L22.0565 10.0345L19.4988 14.1536C19.491 14.1689 19.4884 14.1868 19.4805 14.2046C19.4569 14.2506 19.4412 14.2991 19.4281 14.3501C19.4124 14.4012 19.3993 14.4496 19.3966 14.5032C19.394 14.5211 19.3835 14.5364 19.3835 14.5543C19.3835 16.6113 21.1131 18.2854 23.2384 18.2854C25.3636 18.2854 27.0932 16.6113 27.0932 14.5543C27.0932 14.5364 27.0827 14.5211 27.0801 14.5032C27.0775 14.4496 27.0644 14.4012 27.0513 14.3501C27.0355 14.2991 27.0198 14.2506 26.9962 14.2046C26.9857 14.1868 26.9857 14.1689 26.9779 14.1536L23.9223 9.23318C23.904 9.20256 23.8752 9.18469 23.8542 9.15917C23.8227 9.12089 23.7939 9.08771 23.7599 9.05709C23.7074 9.01115 23.6498 8.97797 23.5869 8.9499C23.5633 8.93714 23.545 8.91417 23.5188 8.90396L17.9108 6.87251C17.916 6.8087 17.9291 6.74745 17.9291 6.6811C17.9291 5.16771 16.6582 3.93506 15.0937 3.93506C13.5319 3.93506 12.2583 5.16771 12.2583 6.6811C12.2583 6.74745 12.274 6.8087 12.2792 6.87251L6.67128 8.90396C6.64508 8.91417 6.62673 8.93459 6.60315 8.94735C6.54025 8.97797 6.4826 9.01115 6.42757 9.05709C6.3935 9.08771 6.36468 9.12089 6.33585 9.15662C6.31227 9.18469 6.28344 9.20256 6.2651 9.23318L3.20954 14.1536C3.20168 14.1689 3.19906 14.1868 3.1912 14.2046C3.16761 14.2506 3.15189 14.2991 3.13879 14.3501C3.12306 14.4037 3.10996 14.4496 3.10734 14.5032C3.10472 14.5211 3.09424 14.5364 3.09424 14.5543C3.09424 16.6113 4.8238 18.2854 6.94906 18.2854C9.07432 18.2854 10.8039 16.6113 10.8039 14.5543ZM23.2384 11.1396L24.8762 13.7784H21.6005L23.2384 11.1396ZM23.2384 16.7287C22.2792 16.7287 21.459 16.1493 21.1341 15.3327H25.3427C25.0203 16.1493 24.1975 16.7287 23.2384 16.7287ZM17.8951 20.6665H12.2924C12.9265 19.8116 13.9669 19.268 15.0937 19.268C16.2205 19.268 17.2609 19.8116 17.8951 20.6665ZM15.0937 5.49183C15.7751 5.49183 16.3306 6.02521 16.3306 6.68365C16.3306 7.33954 15.7751 7.87292 15.0937 7.87292C14.4124 7.87292 13.8568 7.33954 13.8568 6.68365C13.8568 6.02521 14.4124 5.49183 15.0937 5.49183ZM8.5869 13.7784H5.31384L6.94906 11.1396L8.5869 13.7784ZM4.84476 15.3327H9.05336C8.73103 16.1493 7.90818 16.7287 6.94906 16.7287C5.98994 16.7287 5.16971 16.1493 4.84476 15.3327Z" fill="#062B22"/>
<path d="M35.4555 10.4126H55.8172C56.2574 10.4126 56.6164 10.0655 56.6164 9.63423C56.6164 9.20548 56.2574 8.8584 55.8172 8.8584H35.4555C35.0153 8.8584 34.6562 9.20548 34.6562 9.63423C34.6562 10.0655 35.0153 10.4126 35.4555 10.4126Z" fill="#062B22"/>
<path d="M32.4025 17.3003H63.9617C64.4019 17.3003 64.761 16.9532 64.761 16.5245C64.761 16.0932 64.4019 15.7461 63.9617 15.7461H32.4025C31.9596 15.7461 31.6006 16.0932 31.6006 16.5245C31.6006 16.9532 31.9596 17.3003 32.4025 17.3003Z" fill="#062B22"/>
<path d="M21.2028 27.5547H8.98579C8.54554 27.5547 8.18652 27.9043 8.18652 28.3331C8.18652 28.7618 8.54554 29.1115 8.98579 29.1115H21.2028C21.6456 29.1115 22.002 28.7618 22.002 28.3331C22.002 27.9043 21.6456 27.5547 21.2028 27.5547Z" fill="#062B22"/>
<path d="M13.2754 34.2386C13.2754 34.6673 13.6344 35.017 14.0773 35.017H61.9232C62.3661 35.017 62.7251 34.6673 62.7251 34.2386C62.7251 33.8098 62.3661 33.4602 61.9232 33.4602H14.0773C13.6344 33.4602 13.2754 33.8073 13.2754 34.2386Z" fill="#062B22"/>
<path d="M8.98579 42.888H61.926C62.3663 42.888 62.7253 42.5409 62.7253 42.1121C62.7253 41.6808 62.3663 41.3337 61.926 41.3337H8.98579C8.54554 41.3337 8.18652 41.6808 8.18652 42.1121C8.18652 42.5409 8.54292 42.888 8.98579 42.888Z" fill="#062B22"/>
<path d="M8.98579 51.7461H61.926C62.3663 51.7461 62.7253 51.399 62.7253 50.9677C62.7253 50.539 62.3663 50.1919 61.926 50.1919H8.98579C8.54554 50.1919 8.18652 50.539 8.18652 50.9677C8.18652 51.399 8.54292 51.7461 8.98579 51.7461Z" fill="#062B22"/>
<path d="M30.3637 59.6193H61.9256C62.3658 59.6193 62.7248 59.2696 62.7248 58.8409C62.7248 58.4121 62.3658 58.0625 61.9256 58.0625H30.3637C29.9235 58.0625 29.5645 58.4121 29.5645 58.8409C29.5645 59.2696 29.9235 59.6193 30.3637 59.6193Z" fill="#062B22"/>
<path d="M31.1653 74.5874C31.1653 67.6457 25.3241 62.0005 18.1464 62.0005C10.9714 62.0005 5.13281 67.6457 5.13281 74.5874C5.13281 81.529 10.9714 87.1742 18.1464 87.1742C25.3241 87.1742 31.1653 81.529 31.1653 74.5874ZM6.73135 74.5874C6.73135 68.5057 11.8545 63.5547 18.1464 63.5547C24.4436 63.5547 29.5642 68.5057 29.5642 74.5874C29.5642 80.6715 24.4436 85.62 18.1464 85.62C11.8545 85.62 6.73135 80.6715 6.73135 74.5874Z" fill="#062B22"/>
<path d="M27.0931 74.5871C27.0931 69.8173 23.081 65.9355 18.1466 65.9355C13.2147 65.9355 9.20264 69.8173 9.20264 74.5871C9.20264 79.357 13.2147 83.2387 18.1466 83.2387C23.081 83.2387 27.0931 79.357 27.0931 74.5871ZM10.8038 74.5871C10.8038 70.6748 14.0978 67.4923 18.1492 67.4923C22.1979 67.4923 25.4946 70.6748 25.4946 74.5871C25.4946 78.4995 22.1979 81.6819 18.1492 81.6819C14.0978 81.6819 10.8038 78.4995 10.8038 74.5871Z" fill="#062B22"/>
<path d="M21.7159 71.0368C21.3778 70.7612 20.8721 70.8046 20.589 71.1338L16.1839 76.2456L14.74 74.1529C14.4936 73.7956 13.9984 73.7012 13.6289 73.9411C13.2646 74.181 13.165 74.6634 13.4114 75.0206L15.4475 77.9734C15.5864 78.1776 15.817 78.3052 16.0686 78.3154C16.0843 78.3179 16.0974 78.3179 16.1105 78.3179C16.3464 78.3179 16.5717 78.2159 16.7237 78.0398L21.8155 72.1342C22.0985 71.805 22.0539 71.315 21.7159 71.0368Z" fill="#062B22"/>
<path d="M63.6711 74.6972C62.7434 75.0468 61.7843 75.3556 60.8226 75.621C59.7901 75.9018 58.7392 76.134 57.6805 76.3126C57.7723 76.0855 57.8509 75.8533 57.9138 75.6159C58.1182 74.8477 58.3986 73.7937 57.7592 73.0332C57.1093 72.2599 55.8304 72.1783 53.9594 72.7882C52.5652 73.245 51.3991 74.0081 50.4636 74.8044C50.5002 74.1178 50.3797 73.4543 49.9185 72.9873C48.9122 71.9664 47.0385 72.5024 44.1402 73.7657C41.1161 75.0825 38.126 76.698 35.2513 78.5661C34.8844 78.806 34.7875 79.2884 35.0312 79.6457C35.1858 79.8702 35.44 79.9902 35.6968 79.9902C35.8514 79.9902 36.006 79.9468 36.1423 79.86C38.941 78.0404 41.8524 76.4658 44.7953 75.1846C48.0867 73.7503 48.6632 73.9673 48.7654 74.0643C48.7785 74.0796 49.0904 74.4215 48.5741 76.1519C48.3697 76.8307 48.0186 77.3411 47.8273 77.6142C47.3635 78.2828 47.5993 78.6733 47.8797 78.8826C48.0474 79.0102 48.2702 79.0663 48.4824 79.0383C48.8493 78.9872 49.0065 78.7805 49.321 78.3696C49.9919 77.4866 51.7764 75.1438 54.4704 74.2633C55.8881 73.7988 56.4541 73.9571 56.5196 74.0183C56.6402 74.1842 56.4332 74.9702 56.3624 75.228C56.2104 75.8073 55.93 76.3484 55.5343 76.8358C55.3351 77.0834 55.3063 77.4228 55.4662 77.6984C55.6234 77.9715 55.9379 78.1272 56.2602 78.0889C57.9452 77.8898 59.625 77.5632 61.255 77.1165C62.2665 76.8409 63.2754 76.5143 64.2502 76.1468C64.6617 75.9911 64.8661 75.5394 64.7062 75.1387C64.5464 74.7406 64.0851 74.5415 63.6711 74.6972Z" fill="#062B22"/>
<path d="M60.8273 80.7019L40.4656 82.6696C40.0254 82.713 39.7057 83.0932 39.7502 83.522C39.7895 83.9227 40.1381 84.2213 40.5443 84.2213C40.5705 84.2213 40.5967 84.2213 40.6229 84.2187L60.9845 82.2511C61.4248 82.2077 61.7471 81.8274 61.7025 81.3987C61.658 80.9725 61.2675 80.656 60.8273 80.7019Z" fill="#062B22"/>
</svg>
