<svg width="40" height="40" viewBox="0 0 40 40" fill="none" xmlns="http://www.w3.org/2000/svg">
<path d="M4.05644 36.5025C3.94644 36.5025 3.83977 36.4592 3.76061 36.3792C3.65644 36.2733 3.61561 36.1192 3.65477 35.9767L5.85394 27.9467C4.49061 25.525 3.77144 22.775 3.77311 19.9833C3.77644 11.0317 11.0606 3.75 20.0114 3.75C24.3531 3.75167 28.4323 5.4425 31.4981 8.51083C34.5639 11.58 36.2514 15.6583 36.2498 19.995C36.2464 28.9458 28.9614 36.2283 20.0114 36.2283C17.3539 36.2275 14.7248 35.5717 12.3914 34.3308L4.16227 36.4883C4.12727 36.4983 4.09227 36.5025 4.05644 36.5025Z" fill="white"/>
<path d="M20.0113 4.16683C24.2438 4.1685 28.2155 5.816 31.203 8.80516C34.1897 11.7952 35.8347 15.7685 35.833 19.9952C35.8297 28.716 28.7313 35.8118 20.0113 35.8118H20.0047C17.3572 35.811 14.7547 35.1468 12.4438 33.886L4.05633 36.086L6.30133 27.8902C4.91633 25.4918 4.188 22.7702 4.18883 19.9827C4.193 11.2618 11.2897 4.16683 20.0113 4.16683ZM20.0113 3.3335C10.8313 3.3335 3.35967 10.8018 3.3555 19.9827C3.35467 22.7885 4.063 25.5535 5.40633 28.001L3.25217 35.8668C3.17383 36.1543 3.25383 36.461 3.46383 36.6727C3.62217 36.8327 3.83633 36.9202 4.05633 36.9202C4.12717 36.9202 4.198 36.911 4.268 36.8927L12.3405 34.776C14.6972 35.9993 17.3388 36.6452 20.0047 36.646C29.1913 36.646 36.663 29.1768 36.6672 19.996C36.6688 15.5468 34.938 11.3635 31.7938 8.21683C28.648 5.06933 24.4638 3.33516 20.0113 3.3335Z" fill="#CFD8DC"/>
<path d="M29.3132 10.6934C26.8299 8.20838 23.529 6.83921 20.0157 6.83838C12.7624 6.83838 6.8632 12.735 6.85986 19.9834C6.85903 22.4675 7.55403 24.8859 8.8707 26.98L9.18403 27.4775L7.85486 32.3284L12.8324 31.0234L13.3132 31.3084C15.3315 32.5067 17.6465 33.14 20.0065 33.1409H20.0115C27.2599 33.1409 33.159 27.2434 33.1615 19.9942C33.1624 16.4817 31.7965 13.1784 29.3132 10.6934Z" fill="#40C351"/>
<path fill-rule="evenodd" clip-rule="evenodd" d="M16.0565 13.3707C15.7607 12.7124 15.449 12.6991 15.1665 12.6874C14.9357 12.6774 14.6724 12.6782 14.409 12.6782C14.1457 12.6782 13.7174 12.7774 13.3549 13.1732C12.9924 13.5691 11.9707 14.5249 11.9707 16.4699C11.9707 18.4149 13.3874 20.2949 13.5849 20.5582C13.7824 20.8216 16.3199 24.9407 20.3382 26.5257C23.6774 27.8424 24.3574 27.5807 25.0824 27.5149C25.8074 27.4491 27.4215 26.5591 27.7507 25.6357C28.0799 24.7124 28.0799 23.9216 27.9815 23.7566C27.8824 23.5916 27.619 23.4932 27.224 23.2949C26.829 23.0966 24.8849 22.1407 24.5224 22.0091C24.1599 21.8774 23.8965 21.8116 23.6324 22.2074C23.369 22.6024 22.6115 23.4932 22.3807 23.7566C22.1499 24.0207 21.919 24.0541 21.524 23.8557C21.129 23.6574 19.8557 23.2407 18.3449 21.8941C17.1699 20.8466 16.3765 19.5524 16.1457 19.1566C15.9149 18.7616 16.1207 18.5474 16.319 18.3499C16.4965 18.1724 16.714 17.8882 16.9124 17.6574C17.1099 17.4266 17.1757 17.2616 17.3074 16.9982C17.439 16.7341 17.3732 16.5032 17.274 16.3057C17.1765 16.1074 16.4082 14.1524 16.0565 13.3707Z" fill="white"/>
</svg>
